<svg version="1.1" id="Layer_1" xmlns="http://www.w3.org/2000/svg" xmlns:xlink="http://www.w3.org/1999/xlink" x="0px" y="0px" viewBox="0 0 500 500" style="width: 166px;" xml:space="preserve" data-imageid="navigation-94" imageName="Navigation" class="illustrations_image">
<style type="text/css">
	.st0_navigation-94{fill:#D1D3D4;}
	.st1_navigation-94{fill:#FFFFFF;}
	.st2_navigation-94{fill:#231F20;}
	.st3_navigation-94{fill:#68E1FD;}
</style>
<g id="background_navigation-94">
	<path class="st0_navigation-94" d="M93.8,189.4h-0.1c-0.4-0.1-0.7-0.5-0.6-0.9l13.4-79.7L64,114.5l-3.5,14.2c-0.1,0.3-0.3,0.5-0.7,0.6l-35.6,3.7&#xA;&#9;&#9;c-0.4,0.1-0.8-0.2-0.9-0.6c-0.1-0.4,0.2-0.8,0.6-0.9c0,0,0.1,0,0.1,0l35.1-3.6l3.5-14.2c0.1-0.3,0.3-0.5,0.6-0.6l44-5.8&#xA;&#9;&#9;c0.2,0,0.5,0.1,0.6,0.2c0.2,0.2,0.2,0.4,0.2,0.6l-13.6,80.6C94.5,189.2,94.2,189.4,93.8,189.4z"/>
	<path class="st0_navigation-94" d="M484.3,272.9h-0.1L19.9,195.2c-0.4,0-0.7-0.4-0.7-0.8s0.4-0.7,0.8-0.7c0.1,0,0.1,0,0.2,0l464.3,77.7&#xA;&#9;&#9;c0.4,0.1,0.7,0.5,0.6,0.9C484.9,272.6,484.6,272.9,484.3,272.9z"/>
	<path class="st0_navigation-94" d="M215.2,210.6h-0.1c-0.4-0.1-0.7-0.4-0.6-0.8c0,0,0,0,0,0l11.4-84.3c0.1-0.4,0.3-0.6,0.7-0.7l96.9-5.7&#xA;&#9;&#9;c0.2,0,0.4,0.1,0.6,0.2c0.2,0.2,0.2,0.4,0.2,0.6l-5.7,36.5c-0.1,0.4-0.4,0.7-0.8,0.6c0,0,0,0,0,0c-0.4-0.1-0.7-0.5-0.6-0.9&#xA;&#9;&#9;l5.5-35.6l-95.3,5.6L216,209.9C216,210.3,215.6,210.6,215.2,210.6z"/>
	<path class="st0_navigation-94" d="M462.6,193.6L462.6,193.6c-0.5,0-0.8-0.4-0.8-0.8l8.3-94.9l-143.3-2.4l-6.8,54c-0.1,0.4-0.4,0.7-0.8,0.6&#xA;&#9;&#9;c-0.4,0-0.7-0.4-0.7-0.8c0,0,0,0,0,0l6.8-54.7c0.1-0.4,0.4-0.7,0.8-0.7L471,96.4c0.2,0,0.4,0.1,0.5,0.2c0.1,0.2,0.2,0.4,0.2,0.6&#xA;&#9;&#9;l-8.4,95.8C463.3,193.4,463,193.6,462.6,193.6z"/>
	<path class="st0_navigation-94" d="M159.3,203h-0.2c-0.4-0.1-0.7-0.5-0.6-0.9l8.9-38.2c0.1-0.3,0.3-0.5,0.6-0.6l48.7-8.4c0.4-0.1,0.8,0.2,0.9,0.6&#xA;&#9;&#9;s-0.2,0.8-0.6,0.9l-48.2,8.3l-8.8,37.8C159.9,202.8,159.6,203,159.3,203z"/>
</g>
<g id="character_navigation-94">
	<path class="st1_navigation-94" d="M417.8,386.9l16.3,5.3c0,0,4.2,16,6.1,14.8s1.5-31.1,1.5-31.1l-22.8-8"/>
	<path class="st2_navigation-94" d="M440,407.8c-0.2,0-0.3,0-0.5-0.1c-2.1-0.9-4.8-10.4-6-15l-16-5.2c-0.4-0.1-0.6-0.6-0.5-0.9&#xA;&#9;&#9;c0.1-0.4,0.6-0.6,0.9-0.5l16.3,5.3c0.2,0.1,0.4,0.3,0.5,0.5c1.6,6,3.9,12.8,5,14.1c0.9-2.5,1.3-16.6,1.1-29.8l-22.3-7.8&#xA;&#9;&#9;c-0.4-0.1-0.6-0.6-0.5-1c0,0,0,0,0,0c0.1-0.4,0.6-0.6,0.9-0.5c0,0,0,0,0.1,0l22.8,8c0.3,0.1,0.5,0.4,0.5,0.7&#xA;&#9;&#9;c0.1,11.4,0.1,30.6-1.9,31.8C440.4,407.8,440.2,407.8,440,407.8z"/>
	<path class="st1_navigation-94" d="M316.9,370l-6.9,13.8c0,0-23-3.6-21.1,0.4s32.8,22.4,32.8,22.4l12.4-25.9"/>
	<path class="st2_navigation-94" d="M321.8,407.3c-0.1,0-0.3,0-0.4-0.1c-3.2-1.9-31.1-18.6-33.1-22.7c-0.3-0.5-0.3-1.2,0.1-1.6&#xA;&#9;&#9;c1.9-2.6,16.1-0.7,21.2,0.1l6.6-13.3c0.2-0.4,0.6-0.5,1-0.3c0,0,0,0,0,0c0.4,0.2,0.5,0.6,0.3,1l-6.9,13.8c-0.1,0.3-0.5,0.5-0.8,0.4&#xA;&#9;&#9;c-10.3-1.6-19.6-2-20.3-0.8c0,0,0,0.1,0,0.1c1.4,2.7,19.5,14.3,31.8,21.6l12-25.1c0.1-0.4,0.6-0.6,1-0.4c0.4,0.1,0.6,0.6,0.4,1&#xA;&#9;&#9;c0,0,0,0.1-0.1,0.1l-12.4,25.9c-0.1,0.2-0.3,0.3-0.5,0.4C321.9,407.3,321.8,407.3,321.8,407.3z"/>
	<path class="st2_navigation-94" d="M351.7,269.1l-40.3,103.4l22.8,19.8l46.7-77.1c0,0-5.7,41.2,6.1,57.4c13.3,18.2,34.2,19.4,34.2,19.4l4.2-24.3&#xA;&#9;&#9;c0,0-18.4-5.5-17.9-26.7s6.1-57.8,6.1-57.8L351.7,269.1z"/>
	<path class="st1_navigation-94" d="M375.3,165.4c0,0-5.6,7.4-4.6,9s4.5,0.8,4.5,0.8"/>
	<path class="st2_navigation-94" d="M373.3,176.3c-1.3,0.1-2.5-0.4-3.3-1.4c-1.1-1.9,2.9-7.5,4.7-9.9c0.3-0.3,0.7-0.4,1.1-0.1&#xA;&#9;&#9;c0.3,0.3,0.4,0.7,0.1,1.1c-2.7,3.6-4.9,7.5-4.6,8.2c0.5,0.9,2.7,0.7,3.7,0.5c0.4-0.1,0.8,0.1,0.9,0.5c0,0,0,0,0,0&#xA;&#9;&#9;c0.1,0.4-0.1,0.8-0.5,0.9c0,0,0,0,0,0C374.7,176.2,374,176.3,373.3,176.3z"/>
	<path class="st1_navigation-94" d="M317.2,213.3c0,0,2.4,5.5,16.8,7.2c7.7,0.9,27.5,1.6,27.5,1.6l12.2-18.5c0,0-23.4,15.2-60.8-2.8&#xA;&#9;&#9;C295.2,192.3,317.2,213.3,317.2,213.3z"/>
	<path class="st2_navigation-94" d="M361.5,222.8L361.5,222.8c-0.2,0-19.8-0.6-27.5-1.6c-13.5-1.6-16.8-6.5-17.3-7.5c-11.2-10.8-11.7-14.1-11-15.1&#xA;&#9;&#9;c0.8-1.2,3.1-0.8,7.7,1.4c19.1,9.2,34.4,9.5,43.9,8.1c10.3-1.5,16.1-5.2,16.1-5.2c0.4-0.2,0.8,0,1,0.4c0.1,0.2,0.1,0.4,0,0.6&#xA;&#9;&#9;l-12.2,18.5C362,222.6,361.7,222.8,361.5,222.8z M317.9,213c0,0.1,2.5,5.1,16.2,6.7c7,0.8,24.1,1.4,27,1.5l10.4-15.7&#xA;&#9;&#9;c-7.2,3.3-28.6,10.4-58.9-4.1c-5-2.4-5.8-1.9-5.9-1.9c-0.3,1.1,4.7,7.2,11,13.2C317.8,212.8,317.9,212.9,317.9,213z"/>
	<path class="st1_navigation-94" d="M377.1,155.3c-3.4,2.4-2.8,8.1-3,11.7c-0.3,5.1-0.5,10.2-0.5,15.4c0,3.2,8.4,3.9,9.9,3l-2.1,12.7l18.1-5.6&#xA;&#9;&#9;l0.4-14.8c0,0-5.5-0.3-8.4-7.1s-2.1-17-2.1-17S380.4,152.9,377.1,155.3z"/>
	<path class="st2_navigation-94" d="M381.3,198.9c-0.4,0-0.8-0.4-0.7-0.8c0,0,0-0.1,0-0.1l2-11.6c-2.7,0.3-5.5-0.2-7.9-1.3&#xA;&#9;&#9;c-1.1-0.5-1.8-1.5-1.8-2.7c0-5.1,0.2-10.3,0.5-15.4c0-0.6,0-1.3,0.1-2c0.1-3.6,0.1-8.1,3.3-10.3l0,0c3.5-2.5,12.3-1.9,12.7-1.9&#xA;&#9;&#9;c0.4,0,0.7,0.4,0.7,0.8c0,0.1-0.7,10.1,2,16.6c2.6,6.3,7.6,6.7,7.8,6.7c0.4,0,0.7,0.4,0.7,0.8l-0.4,14.8c0,0.3-0.2,0.6-0.5,0.7&#xA;&#9;&#9;l-18.1,5.6C381.4,198.9,381.4,198.9,381.3,198.9z M383.4,184.7c0.4,0,0.7,0.3,0.8,0.7c0,0,0,0.1,0,0.1l-1.9,11.5l16.4-5.1l0.4-13.6&#xA;&#9;&#9;c-1.7-0.3-5.9-1.7-8.3-7.5s-2.3-14-2.2-16.6c-2.2-0.1-8.5-0.2-11,1.6l0,0c-2.5,1.8-2.6,5.9-2.7,9.1c0,0.7,0,1.4-0.1,2&#xA;&#9;&#9;c-0.3,5.1-0.5,10.3-0.5,15.3c0,0.5,0.3,1,1,1.4c2.3,1.4,6.9,1.4,7.7,1C383.1,184.7,383.2,184.7,383.4,184.7L383.4,184.7z&#xA;&#9;&#9; M377.1,155.3L377.1,155.3z"/>
	<path class="st3_navigation-94 targetColor" d="M373.5,194c-9.2,7-32.6,25.7-32.6,25.7l11,23.9l8.5-6.4l-8.7,31.9c0,0,39.6,29.8,59.6,18c0,0,9.2-72,2.5-87.9&#xA;&#9;&#9;S382.7,187,373.5,194z" style="fill: rgb(214, 0, 36);"/>
	<path class="st2_navigation-94" d="M414.4,205.8c-1.2-6.6-5-12.4-10.6-16c3.2,1,6.3,2.2,9.4,3.6c0,0,7.1,3.2,8.6,13.8l-6.8-0.3"/>
	<path class="st2_navigation-94" d="M428.2,205.3c0,0-21.4-9.8-31.1-4.5s-29,69.9-28.7,73.5s14.7,12,30.1,13.7s20.4,0.5,22.7-2.1s9.5-30.9,8-36.6&#xA;&#9;&#9;s-5.5-5.6-5.5-5.6S433.7,211,428.2,205.3z"/>
	<path class="st2_navigation-94" d="M374.8,268.7l-0.6-1.1l-14.7-28.9l-2,10.2c0,0,7.7,23.6,13.7,28.8"/>
	<path class="st1_navigation-94" d="M373.9,180.1c0,0,3.8,2.7,6.2-1.3"/>
	<path class="st2_navigation-94" d="M376.7,181.7c-1.1,0-2.3-0.4-3.2-1c-0.3-0.2-0.4-0.7-0.2-1.1c0.2-0.3,0.7-0.4,1-0.2l0,0c0.9,0.6,1.9,0.8,3,0.7&#xA;&#9;&#9;c0.9-0.3,1.7-0.9,2.1-1.7c0.2-0.4,0.6-0.5,1-0.3c0.4,0.2,0.5,0.6,0.3,1c0,0,0,0.1-0.1,0.1c-0.6,1.2-1.8,2.1-3.1,2.4&#xA;&#9;&#9;C377.3,181.7,377,181.7,376.7,181.7z"/>
	<path class="st1_navigation-94" d="M387.9,168.6c0.2-1.3,0.8-2.5,1.7-3.4c0.6-0.8,1.2-1.6,2-2.2c0.8-0.6,1.8-0.9,2.8-0.7c0.9,0.3,1.5,0.9,1.9,1.7&#xA;&#9;&#9;c0.4,0.8,0.5,1.7,0.5,2.6c-0.1,3.9-2.3,7.5-5.7,9.4l0.3-0.3"/>
	<path class="st2_navigation-94" d="M391,176.8c-0.2,0-0.5-0.1-0.6-0.3c-0.2-0.3-0.2-0.7,0.1-1l0.3-0.3c0.1-0.1,0.3-0.2,0.5-0.2&#xA;&#9;&#9;c2.8-1.9,4.6-5,4.7-8.4c0-0.8-0.1-1.5-0.4-2.2c-0.3-0.6-0.8-1.1-1.4-1.3c-0.8-0.1-1.6,0.1-2.2,0.6c-0.7,0.6-1.3,1.2-1.9,2&#xA;&#9;&#9;c-0.8,0.8-1.3,1.9-1.5,3c0,0.4-0.4,0.7-0.8,0.7c-0.4,0-0.7-0.4-0.7-0.8c0,0,0,0,0,0c0.2-1.4,0.9-2.7,1.8-3.8&#xA;&#9;&#9;c0.6-0.9,1.3-1.7,2.2-2.4c1-0.8,2.2-1.1,3.5-0.8c1.1,0.3,1.9,1.1,2.4,2.1c0.4,0.9,0.6,1.9,0.5,2.9c-0.1,4.2-2.4,8-6.1,10.1&#xA;&#9;&#9;C391.3,176.7,391.1,176.8,391,176.8z"/>
	<path class="st2_navigation-94" d="M401.6,184.7c-0.4,0-0.7-0.2-0.9-0.5c-0.1-0.3-0.1-0.7,0.2-1c0.3-0.2,0.7-0.3,1-0.1c2.7-1,4.8-3,5.9-5.6&#xA;&#9;&#9;c3.2-6.9,3-16.6-0.5-24.2c-1.5-3.1-3.2-5.2-5.3-6.2s-5.5-0.8-6.9,1.3c-0.2,0.3-0.7,0.4-1,0.2c-0.2-0.1-0.3-0.4-0.3-0.6&#xA;&#9;&#9;c-0.1-2.9-3-5.1-5.7-5.5s-5.4,0.3-8.7,2.1c-1.1,0.6-2.2,1.3-3.3,2c-1.6,1.1-3.3,2-5,2.9c-1.4,0.7-3.1,0.9-4.7,0.4h-0.1&#xA;&#9;&#9;c-0.2,2.1,0.2,4.3,1,6.3c1.1,2.2,3.9,3.9,6.1,2.9c0.4-0.2,0.8,0,1,0.4c0.2,0.4,0,0.8-0.4,1c0,0,0,0,0,0c-3.1,1.4-6.7-0.7-8.1-3.6&#xA;&#9;&#9;s-1.3-6.2-1.1-8.9c0-0.4,0.4-0.7,0.8-0.7c0.3,0,0.6,0.2,0.7,0.5c0.1,0.3,0.3,0.6,0.7,0.7c1.1,0.3,2.4,0.2,3.4-0.3&#xA;&#9;&#9;c1.7-0.8,3.3-1.8,4.9-2.8c1.1-0.7,2.2-1.4,3.4-2c3.6-2,6.7-2.8,9.6-2.3c3,0.4,5.6,2.5,6.7,5.3c2.3-1.7,5.3-1.9,7.8-0.6&#xA;&#9;&#9;c2.4,1.2,4.4,3.5,6,6.9c3.7,8,3.9,18.2,0.5,25.5c-1.3,3.1-4,5.5-7.3,6.5C401.8,184.7,401.7,184.7,401.6,184.7z"/>
	<path class="st2_navigation-94" d="M383.4,185.4c0,0,4.4-1.1,6.7-3.9c0,0-0.8,7.8-7.6,9.6L383.4,185.4z"/>
	<path class="st2_navigation-94" d="M382.5,191.8c-0.2,0-0.4-0.1-0.5-0.2c-0.2-0.2-0.3-0.4-0.2-0.7l1-5.7c0.1-0.3,0.3-0.5,0.6-0.6&#xA;&#9;&#9;c0,0,4.2-1.1,6.2-3.7c0.3-0.3,0.7-0.4,1.1-0.1c0.2,0.2,0.3,0.4,0.3,0.7c0,0.3-0.9,8.3-8.2,10.2&#xA;&#9;&#9;C382.6,191.8,382.5,191.8,382.5,191.8z M384.1,186l-0.7,4c2.6-1.2,4.6-3.5,5.4-6.2C387.3,184.8,385.7,185.5,384.1,186z"/>
	<path class="st2_navigation-94" d="M372.4,194.6c9.5,2.9,19.2,3.3,24.6,16l7-3.2c0,0-4.1-14-23.5-17.9C380.5,189.6,375.9,189.2,372.4,194.6z"/>
	<path class="st2_navigation-94" d="M297.5,219.1c-1.9-8.9-9-43.4-10.8-52.6c-0.2-0.9,0.4-1.9,1.4-2c0.2,0,0.3,0,0.5,0l21.3,1.4&#xA;&#9;&#9;c1.2,0.1,2.3,1,2.5,2.2l9,49.9c0.2,0.9-0.4,1.7-1.3,1.8c-0.1,0-0.1,0-0.2,0l-19.7,1.2C298.9,221.2,297.8,220.4,297.5,219.1z"/>
	<polygon class="st1_navigation-94" points="289.3,167.7 300,217.4 317.8,217.2 308.9,168.8 &#9;"/>
	<path class="st2_navigation-94" d="M300,218.2c-0.4,0-0.7-0.2-0.7-0.6l-10.6-49.8c-0.1-0.2,0-0.5,0.2-0.6c0.2-0.2,0.4-0.3,0.6-0.3l19.6,1.1&#xA;&#9;&#9;c0.3,0,0.6,0.3,0.7,0.6l8.9,48.4c0.1,0.4-0.2,0.8-0.6,0.9c0,0-0.1,0-0.1,0L300,218.2L300,218.2z M290.3,168.5l10.3,48.2l16.4-0.2&#xA;&#9;&#9;l-8.7-47L290.3,168.5z"/>
	<path class="st1_navigation-94" d="M351.3,240.6c0,0-10.9,7.8-25,6.8c-8.5-0.6-15.6-7.8-21.3-13.4c-6.6-6.5-12.5-13.8-18.3-21.1&#xA;&#9;&#9;c-1.1-1.4-2-3.7-0.5-4.5c-1.5-1.9-1.2-4.7,0.7-6.2c0.2-0.1,0.4-0.3,0.6-0.4c-0.5-1.2-1-3.5-0.3-4.6c0,0,1.4-2.1,1.5-0.9&#xA;&#9;&#9;c-0.2-2.9,1.9-6,1.9-6l2.6,6.9c0.2-1.5,2.5-0.4,4,1.7s2,6.6,2.1,7c0,0,21,26.1,28.9,23.9c5.2-1.5,10.2-3.7,14.9-6.3"/>
	<path class="st2_navigation-94" d="M328.8,248.3c-0.8,0-1.6,0-2.5-0.1c-8.5-0.6-15.7-7.6-21.4-13.2l-0.4-0.4c-6.8-6.6-12.7-14-18.4-21.1&#xA;&#9;&#9;c-0.8-1-1.7-2.7-1.4-4.1c0.1-0.4,0.2-0.7,0.5-1c-1.3-2.3-0.7-5.2,1.4-6.8c-0.4-1.2-0.8-3.4,0-4.7l0,0c0.4-0.6,0.8-1.1,1.4-1.5&#xA;&#9;&#9;c0.2-2,0.9-3.8,2-5.5c0.2-0.2,0.4-0.4,0.7-0.3c0.3,0,0.5,0.2,0.6,0.5l2.2,5.8h0.1c1.4-0.3,3.1,1.2,4.2,2.7c1.3,1.8,1.8,5,2.1,6.5&#xA;&#9;&#9;c0,0.2,0.1,0.4,0.1,0.6c5.9,7.2,22,25.2,28,23.6c5.1-1.5,10.1-3.6,14.8-6.2c0.3-0.2,0.8-0.1,1,0.2c0.2,0.3,0.1,0.8-0.2,1&#xA;&#9;&#9;c0,0-0.1,0-0.1,0c-4.8,2.7-9.9,4.9-15.1,6.4c-3.5,1-9.6-2.9-18.1-11.4c-6.2-6.2-11.5-12.8-11.5-12.8c0-0.1-0.1-0.1-0.1-0.2&#xA;&#9;&#9;c-0.1-0.3-0.2-0.6-0.2-0.9c-0.2-1.3-0.8-4.4-1.9-5.9c-0.6-1-1.5-1.7-2.6-2.1c0,0,0,0,0,0.1c-0.1,0.4-0.5,0.7-0.9,0.6&#xA;&#9;&#9;c-0.3,0-0.5-0.2-0.6-0.5l-2-5.4c-0.7,1.3-1,2.7-1,4.2l0,0c0,0.4-0.3,0.8-0.7,0.8c-0.1,0-0.3,0-0.4-0.1c-0.2,0.2-0.4,0.5-0.5,0.7&#xA;&#9;&#9;c-0.5,0.8-0.1,2.8,0.4,3.9c0.2,0.4,0,0.8-0.3,1c0,0,0,0,0,0c-1.7,1-2.3,3.3-1.3,5c0.1,0.1,0.2,0.3,0.3,0.4c0.2,0.2,0.2,0.4,0.2,0.6&#xA;&#9;&#9;c0,0.2-0.2,0.4-0.4,0.5c-0.2,0.1-0.4,0.3-0.4,0.5c0,1.1,0.4,2.1,1.1,2.9c5.7,7.1,11.6,14.4,18.3,21l0.4,0.4&#xA;&#9;&#9;c5.6,5.4,12.5,12.2,20.5,12.8c13.6,0.9,24.4-6.6,24.5-6.7c0.3-0.2,0.8-0.2,1,0.2c0,0,0,0,0,0c0.2,0.3,0.1,0.8-0.2,1&#xA;&#9;&#9;C344.9,245.7,336.9,248.2,328.8,248.3z"/>
	<path class="st1_navigation-94" d="M325.5,206c0,0-9-8.6-10.4-7.1s2.2,5.4,4.2,7.6s4.2,5.1,4.2,5.1"/>
	<path class="st2_navigation-94" d="M323.5,212.4c-0.2,0-0.5-0.1-0.6-0.3c0,0-2.2-2.9-4.1-5.1l-0.4-0.5c-2.4-2.8-5.5-6.2-3.8-8.1&#xA;&#9;&#9;c0.2-0.3,0.6-0.4,1-0.4c2.4-0.1,9.2,6.2,10.5,7.5c0.3,0.3,0.2,0.8-0.1,1.1c-0.3,0.2-0.6,0.2-0.9,0c-4.1-3.9-8.3-7.1-9.4-7.1l0,0&#xA;&#9;&#9;c-0.6,1,2.7,4.8,3.8,6l0.4,0.5c1.9,2.2,4.2,5.2,4.2,5.2c0.3,0.3,0.2,0.8-0.1,1C323.8,212.3,323.7,212.4,323.5,212.4L323.5,212.4z"/>
	<path class="st1_navigation-94" d="M359.5,238.7c0,0,11.2-10.5,16.9-14.8"/>
	<path class="st2_navigation-94" d="M359.5,239.5c-0.2,0-0.4-0.1-0.5-0.2c-0.3-0.3-0.3-0.8,0-1.1c0.1-0.1,11.3-10.6,17-14.8c0.3-0.2,0.8-0.2,1,0.2&#xA;&#9;&#9;c0.2,0.3,0.2,0.8-0.1,1c-5.6,4.2-16.7,14.6-16.8,14.7C359.9,239.4,359.7,239.5,359.5,239.5z"/>
	<path class="st1_navigation-94" d="M380.9,274.4L380.9,274.4c-0.5-0.1-0.8-0.4-0.7-0.8c0,0,0,0,0,0c0.1-1,3.1-23.9,8.5-30&#xA;&#9;&#9;c5.5-6.4,31.5-0.5,32.6-0.2c0.4,0.1,0.6,0.5,0.5,0.9c-0.1,0.4-0.5,0.6-0.9,0.5c-7.3-1.7-27.1-4.9-31.2-0.2&#xA;&#9;&#9;c-5.1,5.8-8.1,29-8.2,29.2C381.6,274.2,381.3,274.4,380.9,274.4z"/>
	<path class="st1_navigation-94" d="M397.1,236.4c-0.1,0-0.2,0-0.2,0c-0.4-0.1-0.6-0.5-0.5-0.9c2.1-6.2,3.9-12.6,5.4-19c0.4-2,0.8-4.3-0.1-6.2&#xA;&#9;&#9;c-0.5-1-1.4-1.8-2.5-2.1c-0.7-0.2-1.4-0.1-2,0.3c-0.3,0.2-0.8,0.2-1-0.2c-0.2-0.3-0.2-0.8,0.2-1c0.9-0.6,2.1-0.8,3.2-0.5&#xA;&#9;&#9;c1.5,0.4,2.8,1.5,3.4,2.9c1.1,2.3,0.6,4.9,0.2,7.1c-1.4,6.5-3.2,12.9-5.4,19.2C397.7,236.3,397.4,236.4,397.1,236.4z"/>
	<circle class="st1_navigation-94" cx="413.5" cy="262.4" r="2.4"/>
	<path class="st3_navigation-94 targetColor" d="M303.7,198l-0.9-1.9c-1-2-2-4-3-6c-0.4-0.7-0.6-1.5-0.6-2.3c0-2.5,2.1-4.5,4.6-4.4c2.1,0,3.8,1.4,4.3,3.4&#xA;&#9;&#9;c0.3,1,0.2,2.2-0.3,3.1c-0.8,1.7-1.7,3.4-2.5,5c-0.5,1-1,2-1.5,2.9C303.7,197.9,303.7,197.9,303.7,198z M303.7,190.1&#xA;&#9;&#9;c1.2,0,2.3-1,2.3-2.2c0-1.2-1-2.3-2.2-2.3c-1.2,0-2.3,1-2.3,2.2c0,0,0,0,0,0C301.4,189.1,302.4,190.1,303.7,190.1L303.7,190.1z" style="fill: rgb(214, 0, 36);"/>
	<path class="st1_navigation-94" d="M381.7,313.2c-0.3,0-0.5-0.1-0.6-0.4c-0.2-0.3-0.1-0.8,0.2-1c0.1-0.1,8.8-5.7,10.3-15.8c0-0.4,0.4-0.7,0.8-0.7&#xA;&#9;&#9;c0.4,0,0.7,0.4,0.7,0.8c0,0,0,0.1,0,0.1c-1.5,10.9-10.6,16.6-11,16.9C381.9,313.2,381.8,313.2,381.7,313.2z"/>
</g>
<g id="route_navigation-94">
	<ellipse class="st0_navigation-94" cx="76.9" cy="252.8" rx="15.9" ry="4.6"/>
	<path class="st0_navigation-94" d="M243.9,392L243.9,392c-3.4,0-6.7-0.3-10.1-0.7c-0.4-0.1-0.7-0.4-0.6-0.8c0.1-0.4,0.4-0.7,0.8-0.6c0,0,0,0,0,0&#xA;&#9;&#9;c3.3,0.4,6.6,0.7,9.9,0.7c0.4,0,0.7,0.3,0.7,0.8C244.6,391.7,244.3,392,243.9,392C243.9,392,243.9,392,243.9,392z M253.9,391.7&#xA;&#9;&#9;c-0.4,0-0.8-0.3-0.8-0.7s0.3-0.8,0.7-0.8c3.4-0.3,6.7-0.7,9.8-1.3c0.4-0.1,0.8,0.1,0.9,0.5c0.1,0.4-0.1,0.8-0.5,0.9&#xA;&#9;&#9;c0,0-0.1,0-0.1,0C260.7,391,257.4,391.4,253.9,391.7L253.9,391.7z M224.2,389c-0.1,0-0.2,0-0.2,0c-2-0.7-3.9-1.6-5.6-2.7&#xA;&#9;&#9;c-1.2-0.7-2.2-1.6-3.1-2.7c-0.3-0.3-0.2-0.8,0.1-1.1s0.8-0.2,1.1,0.1l0,0c0.8,0.9,1.8,1.7,2.8,2.4c1.7,1,3.5,1.9,5.3,2.5&#xA;&#9;&#9;c0.4,0.1,0.6,0.5,0.5,0.9c0,0,0,0,0,0.1C224.8,388.8,224.5,389,224.2,389z M273.5,387.9c-0.3,0-0.6-0.2-0.7-0.5&#xA;&#9;&#9;c-0.2-0.4,0-0.8,0.4-1c0,0,0,0,0.1,0l1.3-0.5c1.2-0.5,2.5-0.8,3.8-0.9c0.8,0,1.5,0.2,2.2,0.6c0.3,0.2,0.4,0.7,0.2,1&#xA;&#9;&#9;c-0.2,0.3-0.6,0.4-1,0.2c-0.4-0.2-0.9-0.4-1.4-0.4c-1.1,0.1-2.2,0.4-3.2,0.8c-0.4,0.2-0.9,0.3-1.3,0.5&#xA;&#9;&#9;C273.6,387.9,273.6,387.9,273.5,387.9L273.5,387.9z M211.8,374.9c-0.4,0-0.7-0.3-0.7-0.6c-0.4-2.5-0.7-5-0.9-7.5l-0.2-2.5&#xA;&#9;&#9;c0-0.4,0.3-0.8,0.7-0.8c0.4,0,0.8,0.3,0.8,0.7c0.1,0.8,0.1,1.7,0.2,2.5c0.2,2.5,0.4,5,0.8,7.4c0.1,0.4-0.2,0.8-0.6,0.9c0,0,0,0,0,0&#xA;&#9;&#9;L211.8,374.9z M116.6,364.3L116.6,364.3c-3.5-0.2-6.8-1.1-9.9-2.6c-0.4-0.2-0.5-0.6-0.3-1c0.2-0.4,0.6-0.5,1-0.3&#xA;&#9;&#9;c2.9,1.4,6.1,2.2,9.3,2.5c0.4,0,0.7,0.4,0.7,0.8S117,364.3,116.6,364.3L116.6,364.3L116.6,364.3z M126.6,363.7&#xA;&#9;&#9;c-0.4,0-0.8-0.3-0.8-0.7c0-0.4,0.3-0.7,0.6-0.8c0.7-0.1,1.4-0.3,2-0.4c2.5-0.6,5-1.4,7.4-2.3c0.4-0.1,0.8,0.1,1,0.4s-0.1,0.8-0.4,1&#xA;&#9;&#9;c-2.5,1-5,1.8-7.6,2.4C128.1,363.4,127.4,363.6,126.6,363.7L126.6,363.7z M145.3,357c-0.4,0-0.7-0.3-0.7-0.8c0-0.3,0.2-0.6,0.4-0.7&#xA;&#9;&#9;l1.3-0.6c2.2-1,4.5-2.1,6.8-3c0.4-0.2,0.7-0.3,1.1-0.5c0.4-0.2,0.8-0.1,1,0.3s0.1,0.8-0.3,1c0,0-0.1,0-0.1,0.1l-1.1,0.5&#xA;&#9;&#9;c-2.3,1-4.6,2-6.8,3l-1.3,0.6C145.5,357,145.4,357,145.3,357z M99.4,355.4c-0.2,0-0.5-0.1-0.6-0.3c-1.9-2.8-3.4-5.9-4.3-9.2&#xA;&#9;&#9;c-0.1-0.4,0.1-0.8,0.5-0.9s0.8,0.1,0.9,0.5l0,0c0.9,3.1,2.3,6.1,4.1,8.8c0.2,0.3,0.1,0.8-0.2,1C99.8,355.3,99.6,355.3,99.4,355.4&#xA;&#9;&#9;L99.4,355.4z M208.8,355.1c-0.3,0-0.6-0.2-0.7-0.5c-0.7-1.9-1.8-3.7-3.3-5.2c-0.8-0.8-1.6-1.5-2.6-2.1c-0.3-0.2-0.4-0.7-0.2-1&#xA;&#9;&#9;c0.2-0.3,0.7-0.4,1-0.2c1,0.7,2,1.4,2.8,2.3c1.6,1.6,2.8,3.6,3.6,5.7c0.2,0.4,0,0.8-0.4,1c0,0,0,0,0,0&#xA;&#9;&#9;C209,355.1,208.9,355.1,208.8,355.1L208.8,355.1z M163.8,349.5c-0.4,0-0.7-0.3-0.7-0.8c0-0.3,0.2-0.6,0.5-0.7c3.2-1,6.4-2,9.7-2.8&#xA;&#9;&#9;c0.4-0.1,0.8,0.2,0.9,0.6s-0.2,0.8-0.6,0.9c-3.2,0.8-6.4,1.7-9.6,2.7C164,349.5,163.9,349.5,163.8,349.5L163.8,349.5z M183.2,344.8&#xA;&#9;&#9;c-0.4,0-0.7-0.3-0.7-0.8c0-0.4,0.3-0.7,0.6-0.7c3.4-0.5,6.8-0.6,10.1-0.4c0.4,0,0.7,0.4,0.7,0.8c0,0,0,0,0,0c0,0.4-0.4,0.7-0.8,0.7&#xA;&#9;&#9;c0,0,0,0,0,0C189.9,344.2,186.6,344.3,183.2,344.8L183.2,344.8z M93.5,336.5c-0.4,0-0.7-0.3-0.8-0.7c0-0.8-0.1-1.5-0.1-2.3&#xA;&#9;&#9;c0-2.6,0.3-5.3,0.8-7.9c0.1-0.4,0.5-0.7,0.9-0.6c0.4,0.1,0.7,0.5,0.6,0.9l0,0c-0.5,2.5-0.8,5-0.8,7.5c0,0.7,0,1.5,0.1,2.2&#xA;&#9;&#9;C94.3,336.2,94,336.5,93.5,336.5L93.5,336.5z M98.5,317.6c-0.2,0-0.3-0.1-0.5-0.2c-0.3-0.3-0.3-0.7-0.1-1c2.2-2.6,4.8-4.8,7.8-6.6&#xA;&#9;&#9;c0.3-0.2,0.8-0.1,1,0.2s0.1,0.8-0.2,1c-2.8,1.7-5.3,3.8-7.4,6.3C98.9,317.5,98.7,317.6,98.5,317.6L98.5,317.6z M114.6,305.9&#xA;&#9;&#9;c-0.4,0-0.7-0.3-0.7-0.8c0-0.3,0.1-0.5,0.4-0.6l8.6-5.2c0.4-0.2,0.8-0.1,1,0.3c0.2,0.4,0.1,0.8-0.3,1l-8.5,5.1&#xA;&#9;&#9;C114.9,305.9,114.7,305.9,114.6,305.9L114.6,305.9z M131.7,295.5c-0.3,0-0.5-0.1-0.6-0.3c-0.2-0.3-0.1-0.8,0.2-1&#xA;&#9;&#9;c2.8-1.7,5.3-3.8,7.6-6.2c0.3-0.3,0.8-0.3,1.1-0.1c0,0,0,0,0,0c0.3,0.3,0.3,0.8,0.1,1.1c-2.3,2.5-5,4.6-7.9,6.5&#xA;&#9;&#9;C132,295.5,131.8,295.5,131.7,295.5L131.7,295.5z M144.2,280.5c-0.1,0-0.1,0-0.2,0c-0.4-0.1-0.6-0.5-0.6-0.9c0,0,0,0,0,0&#xA;&#9;&#9;c0.3-1.2,0.5-2.4,0.5-3.7c0-1.9-0.4-3.8-1.3-5.5c-0.2-0.3-0.1-0.8,0.2-1s0.8-0.1,1,0.2c0,0,0,0.1,0.1,0.1c1,1.9,1.5,4,1.5,6.2&#xA;&#9;&#9;c0,1.4-0.2,2.7-0.5,4C144.8,280.3,144.5,280.5,144.2,280.5L144.2,280.5z M136,264.1c-0.1,0-0.2,0-0.4-0.1c-0.9-0.5-1.8-1-2.9-1.5&#xA;&#9;&#9;c-2-0.9-4.1-1.7-6.1-2.5c-0.4-0.1-0.6-0.6-0.5-0.9c0,0,0,0,0-0.1c0.1-0.4,0.5-0.6,0.9-0.5c0,0,0,0,0.1,0c2.1,0.7,4.2,1.6,6.2,2.5&#xA;&#9;&#9;c1.1,0.5,2.1,1,3,1.5c0.4,0.2,0.5,0.7,0.3,1C136.5,263.9,136.3,264,136,264.1L136,264.1z M117.2,257.5c-0.1,0-0.1,0-0.2,0&#xA;&#9;&#9;c-3.2-0.7-6.5-1.1-9.8-1.4c-0.4,0-0.7-0.4-0.7-0.8c0-0.4,0.4-0.7,0.8-0.7c3.4,0.2,6.7,0.7,10,1.4c0.4,0.1,0.7,0.5,0.6,0.9&#xA;&#9;&#9;C117.8,257.2,117.5,257.5,117.2,257.5L117.2,257.5z"/>
</g>
<path id="marking_navigation-94" class="st3_navigation-94 targetColor" d="M77.8,244.5c-2.4-4.9-4.7-9.5-7-14.2c-7.4-15-14.8-30.1-22.3-45.1c-2.9-5.4-4.4-11.3-4.4-17.4&#xA;&#9;c0.3-18.7,15.8-33.6,34.5-33.2c15.2,0.3,28.3,10.6,32.1,25.3c2.1,7.9,1.1,16.3-2.6,23.5c-6.2,12.6-12.5,25.1-18.7,37.7&#xA;&#9;c-3.7,7.4-7.3,14.7-11,22.1C78.2,243.7,78,244,77.8,244.5z M77.8,185.3c9.4,0,17-7.5,17-16.9c0-9.4-7.5-17-16.9-17s-17,7.5-17,16.9&#xA;&#9;c0,0,0,0,0,0C60.9,177.7,68.4,185.2,77.8,185.3L77.8,185.3z" style="fill: rgb(214, 0, 36);"/>
</svg>