<svg version="1.1" id="Layer_1" xmlns="http://www.w3.org/2000/svg" xmlns:xlink="http://www.w3.org/1999/xlink" x="0px" y="0px" viewBox="0 0 500 500" style="width: 166px;" xml:space="preserve" data-imageid="career-1-24" imageName="Career 1" class="illustrations_image">
<style type="text/css">
	.st0_career-1-24{fill:#FFFFFF;}
	.st1_career-1-24{fill:#231F20;}
	.st2_career-1-24{fill:#D1D3D4;}
	.st3_career-1-24{fill:#68E1FD;}
</style>
<g id="Upward_way_career-1-24">
	<polygon class="st0_career-1-24" points="129.2,449 423.5,338.6 426.7,161.1 364.6,116.9 232.4,321.9 121.3,404 &#9;"/>
	<path class="st1_career-1-24" d="M129.2,449.8c-0.1,0-0.3,0-0.4-0.1c-0.2-0.1-0.4-0.3-0.4-0.6l-7.9-45c-0.1-0.3,0.1-0.6,0.3-0.8l111-82.1&#xA;&#9;&#9;l132.1-204.9c0.1-0.2,0.3-0.3,0.5-0.3c0.2,0,0.4,0,0.6,0.1l62.1,44.2c0.2,0.2,0.3,0.4,0.3,0.7l-3.2,177.5c0,0.3-0.2,0.6-0.5,0.7&#xA;&#9;&#9;L129.5,449.8C129.4,449.8,129.3,449.8,129.2,449.8z M122.2,404.4l7.7,43.5L422.8,338l3.1-176.6L364.8,118L233.1,322.3&#xA;&#9;&#9;c-0.1,0.1-0.1,0.2-0.2,0.2L122.2,404.4z"/>
	<path class="st0_career-1-24" d="M102.7,398.6c0,0,174.2-97.2,202-264.6l-39.2-12l112.6-71l48.6,110.1l-35.7-7.6c0,0-60.4,164.4-261.4,263.3&#xA;&#9;&#9;L102.7,398.6z"/>
	<path class="st1_career-1-24" d="M129.6,417.6c-0.2,0-0.3-0.1-0.5-0.1l-26.9-18.2c-0.2-0.2-0.4-0.4-0.4-0.7c0-0.3,0.2-0.5,0.4-0.7&#xA;&#9;&#9;c0.4-0.2,44-24.8,90.5-69.5c42.7-41.1,96.5-108,111-193.9l-38.5-11.7c-0.3-0.1-0.5-0.4-0.6-0.7c0-0.3,0.1-0.6,0.4-0.8l112.6-71&#xA;&#9;&#9;c0.4-0.2,0.9-0.1,1.1,0.2c0,0,0,0.1,0.1,0.1l48.6,110.1c0.1,0.3,0.1,0.6-0.1,0.8c-0.2,0.2-0.5,0.3-0.8,0.3l-35-7.5&#xA;&#9;&#9;c-2.1,5.5-18.1,44.8-55.2,94.1c-36.8,48.9-102.4,117.8-206.4,169C129.8,417.6,129.7,417.6,129.6,417.6z M104.2,398.6l25.4,17.2&#xA;&#9;&#9;c103.4-51,168.7-119.6,205.4-168.2c39.7-52.8,55.1-94,55.2-94.4c0.1-0.4,0.5-0.6,0.9-0.5l34.2,7.3L377.8,52.2l-110.4,69.6&#xA;&#9;&#9;l37.5,11.4c0.4,0.1,0.6,0.5,0.6,0.9c-14.4,86.7-68.6,154.1-111.6,195.5C151.4,370.4,111.4,394.5,104.2,398.6z"/>
	<polygon class="st0_career-1-24" points="102.7,398.6 102.7,431.4 129.2,449 129.2,416.8 &#9;"/>
	<path class="st1_career-1-24" d="M129.2,449.8c-0.2,0-0.3,0-0.4-0.1l-26.5-17.6c-0.2-0.2-0.4-0.4-0.4-0.7v-32.9c0-0.5,0.4-0.8,0.8-0.8&#xA;&#9;&#9;c0.2,0,0.3,0,0.4,0.1l26.5,18.2c0.2,0.1,0.4,0.4,0.4,0.7V449c0,0.3-0.2,0.6-0.4,0.7C129.5,449.8,129.3,449.8,129.2,449.8z&#xA;&#9;&#9; M103.5,431l24.9,16.5v-30.3l-24.9-17.1V431z"/>
	<path class="st2_career-1-24" d="M369.3,356.8c-0.4,0-0.8-0.4-0.8-0.8V205.3c0-0.4,0.4-0.8,0.8-0.8c0.4,0,0.8,0.4,0.8,0.8v150.7&#xA;&#9;&#9;C370.1,356.4,369.7,356.8,369.3,356.8z"/>
	<path class="st2_career-1-24" d="M312.6,377.8c-0.4,0-0.8-0.4-0.8-0.8v-94.3c0-0.4,0.3-0.8,0.7-0.9c0.4,0,0.8,0.3,0.9,0.7c0,0.1,0,0.1,0,0.2&#xA;&#9;&#9;V377C313.4,377.4,313,377.8,312.6,377.8z"/>
	<path class="st2_career-1-24" d="M256,398.7c-0.4,0-0.8-0.4-0.8-0.8v-59.3c0-0.4,0.5-0.8,0.9-0.7c0.4,0,0.7,0.3,0.7,0.7v59.3&#xA;&#9;&#9;C256.8,398.3,256.5,398.7,256,398.7C256,398.7,256,398.7,256,398.7z"/>
	<path class="st2_career-1-24" d="M199.3,419.6c-0.4,0-0.8-0.4-0.8-0.8v-36.6c0-0.4,0.3-0.8,0.7-0.9c0.4,0,0.8,0.3,0.9,0.7c0,0.1,0,0.1,0,0.2&#xA;&#9;&#9;v36.6C200.1,419.3,199.7,419.6,199.3,419.6C199.3,419.6,199.3,419.6,199.3,419.6z"/>
</g>
<g id="Character_career-1-24">
	<path class="st0_career-1-24" d="M210.2,146c0,0,5.4,5.9,4.7,7.4s-3.8,1.1-3.8,1.1"/>
	<path class="st1_career-1-24" d="M212.1,155.4c-0.4,0-0.7,0-1.1-0.1c-0.4-0.1-0.7-0.5-0.7-0.9c0.1-0.4,0.5-0.7,0.9-0.7c0,0,0,0,0,0&#xA;&#9;&#9;c1,0.1,2.7,0,3-0.6c0.1-0.7-2-3.8-4.6-6.6c-0.3-0.3-0.3-0.8,0.1-1.1c0,0,0,0,0,0c0.3-0.3,0.8-0.3,1.1,0.1c2.1,2.4,5.6,6.6,4.8,8.3&#xA;&#9;&#9;C215.1,155.1,213.3,155.4,212.1,155.4z"/>
	<path class="st0_career-1-24" d="M208,137.5c3.1,1.8,3.1,6.8,3.5,9.9c0.7,4.4,1.2,8.8,1.6,13.2c0.3,2.8-6.9,4-8.3,3.3l2.8,10.8l-16-3.5&#xA;&#9;&#9;l-0.8-9.2c0,0-2.3-9.2-0.4-15.3c1.3-3.8,3.7-7.2,6.8-9.8C197.4,136.9,204.9,135.7,208,137.5z"/>
	<path class="st1_career-1-24" d="M207.6,175.5c-0.1,0-0.1,0-0.2,0l-16-3.5c-0.4-0.1-0.6-0.4-0.6-0.7l-0.8-9.2c-0.1-0.3-2.3-9.4-0.3-15.6&#xA;&#9;&#9;c1.4-4,3.8-7.5,7.1-10.2c0.1-0.1,0.2-0.1,0.4-0.1c0.3,0,7.9-1.2,11.2,0.7c3,1.7,3.4,5.6,3.7,8.8c0.1,0.6,0.1,1.2,0.2,1.7&#xA;&#9;&#9;c0.6,4.4,1.2,8.8,1.6,13.2c0.1,1.1-0.5,2.1-1.4,2.6c-2,1.2-4.3,1.8-6.6,1.8l2.5,9.6c0.1,0.4-0.2,0.9-0.6,1&#xA;&#9;&#9;C207.8,175.5,207.7,175.5,207.6,175.5L207.6,175.5z M192.4,170.5l14.1,3.1l-2.5-9.5c-0.1-0.4,0.1-0.9,0.6-1c0.2,0,0.4,0,0.5,0&#xA;&#9;&#9;c0.7,0.3,4.6-0.1,6.4-1.4c0.5-0.4,0.8-0.8,0.7-1.1c-0.4-4.4-1-8.8-1.6-13.2c-0.1-0.5-0.1-1.1-0.2-1.7c-0.3-2.8-0.7-6.2-2.9-7.5l0,0&#xA;&#9;&#9;c-2.2-1.3-7.7-0.8-9.9-0.5c-2.9,2.5-5.1,5.7-6.4,9.3c-1.8,5.8,0.4,14.8,0.4,14.9L192.4,170.5z"/>
	<path class="st0_career-1-24" d="M212.5,157.3c0,0-3.1,2.6-5.4-0.6"/>
	<path class="st1_career-1-24" d="M209.9,159.1h-0.5c-1.2-0.2-2.3-0.9-3-1.9c-0.3-0.4-0.2-0.9,0.2-1.1c0,0,0,0,0,0c0.3-0.3,0.8-0.2,1.1,0.2&#xA;&#9;&#9;c0,0,0,0,0,0c0.4,0.7,1.1,1.1,1.9,1.3c0.9,0,1.7-0.3,2.4-0.8c0.4-0.3,0.9-0.2,1.1,0.2c0.2,0.3,0.2,0.8-0.1,1.1&#xA;&#9;&#9;C212.1,158.6,211,159,209.9,159.1z"/>
	<ellipse transform="matrix(0.9785 -0.206 0.206 0.9785 -25.3543 45.833)" class="st1_career-1-24" cx="207.4" cy="144.7" rx="0.6" ry="1.6"/>
	<path class="st0_career-1-24" d="M189,174.4l0.5-5l19.6,0.2l3.5,8.5C204.6,178,196.7,176.7,189,174.4z"/>
	<path class="st1_career-1-24" d="M212.2,178.8c-7.9-0.1-15.8-1.4-23.4-3.7c-0.4-0.1-0.6-0.5-0.6-0.9l0.5-5c0-0.4,0.4-0.7,0.8-0.7l19.6,0.2&#xA;&#9;&#9;c0.3,0,0.6,0.2,0.7,0.5l3.5,8.5c0.1,0.2,0.1,0.5-0.1,0.8c-0.1,0.2-0.4,0.4-0.6,0.4L212.2,178.8z M189.9,173.8&#xA;&#9;&#9;c7,2.1,14.2,3.2,21.5,3.4l-2.8-6.9l-18.3-0.2L189.9,173.8z"/>
	<path class="st0_career-1-24" d="M255.4,191c0,0,3.9-5.9,4.2-7s0.1-3.5,0.9-5.2s3-3.2,4.2-1c0,0,0.4-3.8,3-1.8c2.3,1.6,3.4,4.5,2.7,7.3&#xA;&#9;&#9;C269.8,186,260,201,260,201"/>
	<path class="st1_career-1-24" d="M260,201.8c-0.4,0-0.8-0.3-0.8-0.8c0-0.2,0-0.3,0.1-0.5c3.9-6,9.8-15.5,10.1-17.5c0.6-2.5-0.3-5-2.4-6.5&#xA;&#9;&#9;c-0.4-0.3-0.8-0.5-1-0.4c-0.4,0.2-0.6,1.1-0.7,1.6c0,0.4-0.5,0.8-0.9,0.7c-0.3,0-0.5-0.2-0.6-0.4c-0.4-0.7-0.7-0.7-0.8-0.7&#xA;&#9;&#9;c-0.9,0.2-1.6,0.8-1.9,1.7c-0.4,1.1-0.6,2.3-0.7,3.4c0,0.5-0.1,1.1-0.2,1.6c-0.3,1.2-3.3,5.9-4.3,7.3c-0.3,0.3-0.8,0.4-1.1,0.1&#xA;&#9;&#9;c-0.3-0.2-0.4-0.7-0.2-1c1.5-2.1,2.8-4.4,4-6.8c0.1-0.5,0.1-0.9,0.2-1.4c0-1.4,0.3-2.7,0.8-4c0.6-1.4,1.8-2.4,3.3-2.6&#xA;&#9;&#9;c0.4,0,0.8,0.1,1.2,0.3c0.2-0.6,0.7-1.1,1.3-1.4c0.9-0.3,1.9-0.1,2.6,0.6c2.6,1.8,3.8,5,3,8.1c-0.5,2.9-9.4,16.6-10.4,18.1&#xA;&#9;&#9;C260.5,201.6,260.3,201.7,260,201.8z"/>
	<path class="st0_career-1-24" d="M135.6,221.5c0,0-2.1,3.6-3.4,6.3c-0.9,2.6-1.6,5.3-2,8c-0.6-0.9-1.7-1.2-2.4-2c-0.2,1.2-0.6,2.3-1.1,3.4&#xA;&#9;&#9;c-0.6,1.1-1.7,1.7-2.9,1.8c-0.6,0-1.2-0.2-1.8-0.5c-2.1-0.9-5.6-2.5-5.8-5.1c0-1,0.3-2,0.8-2.9c2-3.7,10.2-13,11.6-14.5"/>
	<path class="st1_career-1-24" d="M123.8,239.8c-0.7,0-1.5-0.2-2.1-0.5c-1.8-0.8-6-2.6-6.3-5.8c0-1.2,0.3-2.3,0.9-3.3&#xA;&#9;&#9;c2.2-4.1,11.6-14.6,11.7-14.7c0.3-0.4,0.8-0.4,1.1-0.2s0.4,0.8,0.2,1.1c0,0-0.1,0.1-0.1,0.1c-2.4,2.7-9.7,11-11.4,14.4&#xA;&#9;&#9;c-0.5,0.7-0.7,1.6-0.7,2.4c0.2,2,2.9,3.5,5.3,4.5c0.5,0.2,1,0.4,1.5,0.4l0,0c0.9-0.1,1.7-0.6,2.2-1.4c0.5-1,0.8-2,1-3.1&#xA;&#9;&#9;c0.1-0.3,0.3-0.5,0.6-0.6c0.3-0.1,0.6,0,0.8,0.3c0.3,0.3,0.6,0.5,1,0.8l0.3,0.2c0.4-2.3,1-4.6,1.8-6.8c1.2-2.7,3.3-6.2,3.4-6.4&#xA;&#9;&#9;c0.2-0.4,0.7-0.5,1.1-0.3s0.5,0.7,0.3,1.1l0,0c0,0-2.1,3.6-3.4,6.2c-0.9,2.5-1.6,5.1-1.9,7.8c-0.1,0.5-0.6,0.7-1,0.6&#xA;&#9;&#9;c-0.2,0-0.3-0.1-0.5-0.3c-0.3-0.4-0.7-0.7-1.1-0.9l-0.2-0.1c-0.2,0.8-0.5,1.6-0.9,2.3C126.6,238.9,125.2,239.7,123.8,239.8&#xA;&#9;&#9;L123.8,239.8z"/>
	<path class="st1_career-1-24" d="M229.7,309.9c0,0-1.6,11.1,3,12.8s28.2-17.2,26.6-21.4s-9.7-5.6-16.9,0C238.3,304.5,234.1,307.3,229.7,309.9z"/>
	<path class="st1_career-1-24" d="M233.3,323.6c-0.3,0-0.6,0-0.9-0.1c-5.1-1.8-3.7-12.4-3.5-13.6c0-0.3,0.2-0.5,0.4-0.6&#xA;&#9;&#9;c4.4-2.5,8.6-5.4,12.6-8.5c4.3-3.3,9.3-4.6,13.5-3.5c2.1,0.5,3.8,1.9,4.7,3.8c0.2,0.5,0.9,2.2-4.2,7.5&#xA;&#9;&#9;C250.4,314.1,238.2,323.6,233.3,323.6z M230.4,310.4c-0.4,3.2-0.6,10.4,2.5,11.5c2.6,0.9,14.5-7.1,21.7-14.5&#xA;&#9;&#9;c3.5-3.6,4.1-5.3,3.9-5.8c-0.7-1.5-2.1-2.5-3.6-2.8c-2.8-0.8-7.5-0.4-12.1,3.2C238.9,305,234.8,307.9,230.4,310.4L230.4,310.4z"/>
	<path class="st0_career-1-24" d="M182.1,259.5c0,0,28.2,7.6,49.2,3.7l-1.9,46.6c0,0,8,2.9,16.7-8.3c0,0,8.4-57.3,3-60s-55.2,0.5-55.2,0.5&#xA;&#9;&#9;L182.1,259.5z"/>
	<path class="st1_career-1-24" d="M231.9,311c-1,0-1.9-0.1-2.8-0.4c-0.3-0.1-0.6-0.4-0.6-0.8l1.9-45.6c-20.9,3.4-48.3-3.8-48.6-3.9&#xA;&#9;&#9;c-0.3-0.1-0.5-0.3-0.6-0.5c-0.1-0.2-0.1-0.5,0.1-0.8l11.7-17.5c0.1-0.2,0.4-0.3,0.6-0.4c5.1-0.3,50.2-3.2,55.7-0.4&#xA;&#9;&#9;c5.7,2.9-1.1,51.2-2.5,60.9c0,0.1-0.1,0.3-0.2,0.4C240.8,309.7,235.2,311,231.9,311z M230.3,309.2c1.9,0.4,8.1,0.8,15-8&#xA;&#9;&#9;c4.1-27.8,6.4-57.4,3.4-59c-4.2-2.1-40.3-0.4-54.4,0.6L183.4,259c5.5,1.3,29.5,6.8,47.8,3.4c0.3-0.1,0.5,0,0.7,0.2&#xA;&#9;&#9;c0.2,0.2,0.3,0.4,0.3,0.7L230.3,309.2z"/>
	<path class="st0_career-1-24" d="M166.5,251.4c0,0-7.4,45.6-8.9,46.4s-41.9,35.9-41.9,35.9l12,10.5c0,0,45.2-27.3,47.7-35.4&#xA;&#9;&#9;s22.6-57.3,22.6-57.3H166.5z"/>
	<path class="st1_career-1-24" d="M127.6,344.9c-0.2,0-0.4-0.1-0.6-0.2l-12-10.5c-0.2-0.2-0.3-0.4-0.3-0.6c0-0.2,0.1-0.5,0.3-0.6&#xA;&#9;&#9;c6.6-5.7,38.8-33.7,41.9-35.9c1.2-2.3,5.9-29.2,8.6-45.9c0.1-0.4,0.4-0.7,0.8-0.7H198c0.3,0,0.5,0.1,0.7,0.4&#xA;&#9;&#9;c0.2,0.2,0.2,0.5,0.1,0.8c-0.2,0.5-20.2,49.3-22.7,57.3c-2.6,8.3-46.2,34.7-48.1,35.9C127.9,344.9,127.8,344.9,127.6,344.9z&#xA;&#9;&#9; M117,333.6l10.8,9.5c12.9-7.8,44.9-28.3,46.8-34.6c2.3-7.4,19.1-48.6,22.2-56.2h-29.7c-7.4,45.4-8.7,46-9.2,46.3&#xA;&#9;&#9;C156.6,299.3,133,319.7,117,333.6z M157.7,297.7L157.7,297.7z"/>
	<path class="st1_career-1-24" d="M149.8,294.4c0,0,25.7,17.5,40.7,14.5c43.2-8.8,65.3-68.5,65.3-68.5s-29-3.9-44.4-7.7L166.5,247L149.8,294.4z"/>
	<path class="st1_career-1-24" d="M186.7,310c-15.2,0-36.4-14.3-37.3-15c-0.3-0.2-0.4-0.6-0.3-0.9l16.7-47.4c0.1-0.2,0.3-0.4,0.5-0.5l44.8-14.3&#xA;&#9;&#9;c0.1,0,0.3,0,0.4,0c15.2,3.8,44.1,7.7,44.4,7.7c0.2,0,0.5,0.2,0.6,0.4c0.1,0.2,0.2,0.5,0.1,0.7c-0.2,0.6-22.7,60.2-65.9,69&#xA;&#9;&#9;C189.3,309.9,188,310,186.7,310z M150.8,294.1c3.7,2.4,26.2,16.7,39.6,14c39.3-8,61.3-59.4,64.3-67c-5.2-0.7-29.6-4.1-43.3-7.6&#xA;&#9;&#9;l-44.2,14.1L150.8,294.1z"/>
	<path class="st3_career-1-24 targetColor" d="M223,183.4c0,0-2.4-9.4-30.5-12.4c-6.8-0.8-13.7,0.1-20,2.6c-0.7,4.4-7.4,58.5-10.3,73.4&#xA;&#9;&#9;c0,0,37.8,8.3,53.1-13.3C215.3,233.7,220.8,188.1,223,183.4z" style="fill: rgb(214, 0, 36);"/>
	<path class="st0_career-1-24" d="M95.6,226.5l43.8,25.3c2.5,1.4,3.3,4.6,1.9,7.1l-14.6,25.3c-1.4,2.5-4.6,3.3-7.1,1.9l-43.8-25.3&#xA;&#9;&#9;c-2.5-1.4-3.3-4.6-1.9-7.1l14.6-25.3C90,225.9,93.2,225.1,95.6,226.5z"/>
	<path class="st1_career-1-24" d="M122.3,287.6c-1.1,0-2.1-0.3-3-0.8l0,0l-43.8-25.3c-2.8-1.7-3.8-5.3-2.2-8.1L87.9,228c1.7-2.8,5.3-3.8,8.2-2.2&#xA;&#9;&#9;l43.8,25.3c2.8,1.7,3.8,5.3,2.2,8.2l-14.6,25.3c-0.8,1.4-2.1,2.4-3.6,2.8C123.3,287.5,122.8,287.6,122.3,287.6z M120.1,285.4&#xA;&#9;&#9;c2.1,1.2,4.8,0.5,6-1.6c0,0,0,0,0,0l14.6-25.3c1.2-2.1,0.5-4.7-1.6-5.9c0,0,0,0,0,0l-43.8-25.3c-2.1-1.2-4.7-0.5-6,1.5&#xA;&#9;&#9;c0,0,0,0,0,0.1l-14.6,25.3c-0.6,1-0.7,2.2-0.4,3.3c0.3,1.1,1,2.1,2,2.6L120.1,285.4L120.1,285.4z"/>
	<path class="st1_career-1-24" d="M127.3,245.6c-0.1,0-0.3,0-0.4-0.1l-19.5-11.3c-0.4-0.2-0.5-0.7-0.3-1.1l2.2-3.7c1.3-2.2,4.2-3,6.4-1.7&#xA;&#9;&#9;l12.7,7.4c2.2,1.3,3,4.2,1.7,6.4l-2.2,3.7C127.9,245.5,127.6,245.6,127.3,245.6z M108.9,233.3l18.1,10.5l1.8-3&#xA;&#9;&#9;c0.8-1.5,0.3-3.4-1.1-4.2l-12.7-7.4c-1.5-0.9-3.4-0.3-4.2,1.1L108.9,233.3z"/>
	<path class="st3_career-1-24 targetColor" d="M190.5,181.2c0,0-28.6,3.3-35.8,6.8s-31.6,30.5-31.6,30.5l11.1,10.7c0,0,18.8-18.3,24-20.6s26.8,2.3,26.8,2.3&#xA;&#9;&#9;L190.5,181.2z" style="fill: rgb(214, 0, 36);"/>
	<path class="st3_career-1-24 targetColor" d="M223,183.4l15.7,26.2l17.1-21.7l8.9,9.9c0,0-15,29.6-22.3,29.4c-15.8-0.3-36.8-21.3-36.8-21.3L223,183.4z" style="fill: rgb(214, 0, 36);"/>
	<path class="st1_career-1-24" d="M127.6,344.1c-0.9-10.8-5.8-14-9.3-12.8s-5.9,1.5-4.9,12s6.7,25.5,12.4,24.2S128.5,354.9,127.6,344.1z"/>
	<path class="st1_career-1-24" d="M125,368.3c-1,0-2-0.4-2.8-1c-4.7-3.4-8.7-15.1-9.6-24c-1-10.2,1.2-11.4,5.1-12.7l0.4-0.1&#xA;&#9;&#9;c1.7-0.5,3.5-0.2,4.9,0.8c3,2,4.9,6.5,5.4,12.7c0.2,2.3,0.5,4.6,0.7,6.8c1,8.7,1.9,16.1-3.2,17.4&#xA;&#9;&#9;C125.6,368.3,125.3,368.3,125,368.3z M119.7,331.9c-0.4,0-0.8,0.1-1.2,0.2l-0.4,0.1c-3,1-4.9,1.6-4,11c0.8,8.3,4.7,19.8,8.9,22.8&#xA;&#9;&#9;c0.7,0.6,1.6,0.8,2.4,0.6c3.8-0.9,3-7.7,2-15.6c-0.3-2.3-0.6-4.6-0.7-6.9c-0.6-7.7-3.2-10.5-4.7-11.5&#xA;&#9;&#9;C121.4,332.2,120.6,331.9,119.7,331.9L119.7,331.9z"/>
	<path class="st0_career-1-24" d="M204.5,129.3c-7-2.1-16.2-0.7-22.4,3.1c-2.2,1.2-4.1,3-5.5,5c-4.1,6.2-2.2,14.3-4.9,21s-10.9,11.4-16.2,15.8&#xA;&#9;&#9;c-6.2,5.1-12.2,10.6-16.2,17.6c-6.6,11.6-4.1,22.8,3.4,33.1c1,1.4,2.2,2.7,3.6,3.9c2.6,2.1,6,3,9.3,3.7c6.1,1.2,15,2.5,20.8-0.9&#xA;&#9;&#9;c4.1-2.4,7.5-8.6,8.1-13.2c0.6-4.8-1-9.8,0.6-14.3c2.4-6.7,10.9-9.6,13.4-16.3c1.7-4.8-0.2-10.2-2.8-14.6c-2-3.4-4.5-7.3-3-11&#xA;&#9;&#9;c0.9-2.2,2.9-3.6,4.5-5.3c1.9-2.2,3.1-4.9,3.5-7.8c0.3-2.6-0.8-5.1-0.6-7.5c2.1,1.1,4.8,0.4,7,0.3c2.8-0.1,5.6-0.3,8.4-0.5&#xA;&#9;&#9;c-0.4-3-1.8-5.7-4-7.8C209.4,131.5,207.1,130.1,204.5,129.3z"/>
	<path class="st1_career-1-24" d="M166.4,234.5c-3.7-0.1-7.4-0.5-11-1.3c-3.1-0.6-6.8-1.6-9.6-3.8c-1.4-1.2-2.7-2.5-3.7-4&#xA;&#9;&#9;c-8.5-11.6-9.7-23-3.5-33.9c4-7.1,10.2-12.7,16.4-17.8c1.2-1,2.6-2.1,4.1-3.2c4.6-3.5,9.9-7.4,11.9-12.4c1-2.9,1.6-5.9,1.7-9&#xA;&#9;&#9;c0.4-4.1,0.8-8.4,3.2-12.1c1.5-2.2,3.5-4,5.8-5.3c6.6-4,16.1-5.3,23.1-3.2c2.7,0.8,5.1,2.3,7.1,4.2c2.4,2.2,3.9,5.1,4.2,8.3&#xA;&#9;&#9;c0,0.4-0.3,0.8-0.7,0.9c0,0,0,0,0,0c-2.8,0.2-5.6,0.4-8.5,0.5c-0.6,0-1.2,0.1-1.8,0.2c-1.5,0.3-3,0.2-4.5-0.1&#xA;&#9;&#9;c0,0.8,0.1,1.6,0.3,2.4c0.3,1.3,0.4,2.7,0.3,4.1c-0.3,3.1-1.6,6-3.7,8.3c-0.5,0.5-1,1-1.5,1.5c-1.2,1-2.1,2.2-2.8,3.6&#xA;&#9;&#9;c-1.2,3.1,0.8,6.7,2.7,9.8l0.3,0.5c3.4,5.9,4.4,11,2.9,15.3c-1.3,3.5-4.1,6.1-6.9,8.5s-5.3,4.7-6.5,7.8c-0.9,2.6-0.8,5.3-0.6,8.2&#xA;&#9;&#9;c0.2,2,0.2,3.9,0,5.9c-0.5,4.5-3.9,11.1-8.4,13.8C173.5,233.9,170,234.7,166.4,234.5z M197.4,129.2c-5.2,0-10.4,1.4-14.9,4&#xA;&#9;&#9;c-2.1,1.2-3.9,2.8-5.3,4.8c-2.2,3.4-2.6,7.2-3,11.4c-0.1,3.2-0.8,6.4-1.9,9.5c-2.2,5.4-7.6,9.4-12.4,13c-1.4,1.1-2.8,2.1-4,3.1&#xA;&#9;&#9;c-6,4.9-12.1,10.5-16,17.3c-5.9,10.3-4.7,21.1,3.4,32.2c1,1.4,2.1,2.6,3.4,3.7c2.6,2,6,2.9,8.9,3.5c3.5,0.7,14,2.8,20.2-0.9&#xA;&#9;&#9;c4-2.4,7.2-8.4,7.7-12.6c0.2-1.9,0.2-3.8,0-5.6c-0.2-2.9-0.4-6,0.7-8.9c1.3-3.5,4.1-6.1,6.9-8.5s5.3-4.7,6.5-7.9&#xA;&#9;&#9;c1.4-3.8,0.4-8.5-2.7-13.9l-0.3-0.5c-2-3.4-4.3-7.4-2.8-11.2c0.8-1.6,1.9-3,3.2-4.1c0.5-0.5,1-0.9,1.4-1.4c1.8-2.1,3-4.6,3.3-7.4&#xA;&#9;&#9;c0.1-1.2,0-2.4-0.3-3.6c-0.3-1.3-0.4-2.6-0.3-3.9c0.1-0.4,0.5-0.8,0.9-0.7c0.1,0,0.2,0,0.3,0.1c1.3,0.7,3.1,0.5,4.7,0.3&#xA;&#9;&#9;c0.6-0.1,1.3-0.1,1.9-0.2c2.5-0.1,5.1-0.3,7.5-0.4c-0.5-2.5-1.8-4.7-3.6-6.5c-1.8-1.8-4.1-3.1-6.5-3.8l0,0&#xA;&#9;&#9;C202,129.5,199.7,129.1,197.4,129.2L197.4,129.2z"/>
	<path class="st0_career-1-24" d="M203.5,150.6c-0.1-1.1-0.5-2.2-1.1-3.1c-0.4-0.8-0.9-1.5-1.5-2.1c-0.6-0.6-1.5-0.9-2.4-0.8&#xA;&#9;&#9;c-0.8,0.2-1.4,0.6-1.8,1.3c-0.4,0.7-0.6,1.4-0.6,2.2c-0.3,3.4,1.3,6.7,4.1,8.6l-0.2-0.3"/>
	<path class="st1_career-1-24" d="M200,157.5c-0.1,0-0.3,0-0.4-0.1c-3-2.1-4.7-5.7-4.4-9.3c0.1-0.9,0.3-1.7,0.8-2.5c0.5-0.9,1.4-1.5,2.3-1.7&#xA;&#9;&#9;c1.1-0.1,2.2,0.2,3,1c0.7,0.7,1.2,1.4,1.7,2.3c0.7,1,1.2,2.2,1.2,3.5c0,0.4-0.3,0.8-0.7,0.8c0,0-0.1,0-0.1,0&#xA;&#9;&#9;c-0.4,0-0.8-0.4-0.8-0.8c0,0,0,0,0,0c-0.1-1-0.4-1.9-1-2.7c-0.4-0.7-0.8-1.3-1.4-1.9c-0.4-0.4-1.1-0.7-1.7-0.6&#xA;&#9;&#9;c-0.5,0.1-1,0.5-1.2,0.9c-0.3,0.6-0.5,1.2-0.5,1.8c-0.2,2.9,1,5.6,3.2,7.5c0.2,0,0.3,0.1,0.5,0.3l0.2,0.2c0.3,0.3,0.3,0.8,0,1.1&#xA;&#9;&#9;C200.4,157.3,200.2,157.4,200,157.5z"/>
	<path class="st1_career-1-24" d="M239.2,228h-0.1c-16-3-33.4-23.3-34.1-24.1c-0.3-0.3-0.2-0.8,0.1-1.1c0.3-0.3,0.8-0.2,1.1,0.1&#xA;&#9;&#9;c0.2,0.2,17.8,20.7,33.2,23.6c0.4,0.1,0.7,0.5,0.6,0.9C239.9,227.7,239.6,228,239.2,228z"/>
	<path class="st1_career-1-24" d="M204.8,163.9l-7.5-2.4c0,0,0.7,2.6,4.1,4.5c2.9,1.7,4.3,1.3,4.3,1.3L204.8,163.9z"/>
	<path class="st1_career-1-24" d="M205.3,168.1c-1.5-0.1-3-0.6-4.3-1.4c-3.7-2.1-4.4-4.9-4.5-5c-0.1-0.4,0.1-0.9,0.5-1c0.2,0,0.3,0,0.5,0&#xA;&#9;&#9;l7.5,2.4c0.3,0.1,0.5,0.3,0.5,0.6l0.9,3.4c0.1,0.4-0.1,0.9-0.6,1C205.7,168.1,205.5,168.1,205.3,168.1z M199,162.8&#xA;&#9;&#9;c0.8,1,1.7,1.8,2.9,2.5c0.9,0.5,1.8,0.9,2.8,1.1l-0.5-2L199,162.8z"/>
	<path class="st2_career-1-24" d="M137.1,257.1L137.1,257.1l-30.9-2.6c-0.2,0-0.5-0.1-0.6-0.3l-15.3-22c-0.2-0.4-0.1-0.9,0.3-1.1&#xA;&#9;&#9;c0.4-0.2,0.8-0.1,1.1,0.2l15,21.6l30.5,2.5c0.4,0.1,0.7,0.5,0.7,0.9C137.8,256.7,137.5,257,137.1,257.1L137.1,257.1z"/>
</g>
</svg>