<svg version="1.1" id="Layer_1" xmlns="http://www.w3.org/2000/svg" xmlns:xlink="http://www.w3.org/1999/xlink" x="0px" y="0px" viewBox="0 0 500 500" style="width: 166px;" xml:space="preserve" data-imageid="entrepreneur-58" imageName="Entrepreneur" class="illustrations_image">
<style type="text/css">
	.st0_entrepreneur-58{fill:#68E1FD;}
	.st1_entrepreneur-58{fill:#231F20;}
	.st2_entrepreneur-58{fill:#FFFFFF;}
	.st3_entrepreneur-58{fill:#D1D3D4;}
</style>
<g id="Character_entrepreneur-58">
	<path class="st0_entrepreneur-58 targetColor" d="M200.8,201.3c0,0-70.1,28.9-72.5,32.7s-12.7,84.4-13.7,126.3s0,70.5,0,70.5h45.2c0,0,0-43.5,0.7-59.5&#xA;&#9;&#9;c0.7-11.7,2-23.4,3.9-35c0,0,5.3,27.2,5,37.1s-3.5,57.3-3.5,57.3h140.7c0,0-7.1-62.6-6.4-71.1s8.8-44.5,8.8-44.5l17-89.4&#xA;&#9;&#9;c0,0-57.4-23.3-64.2-25.8S200.8,201.3,200.8,201.3z" style="fill: rgb(214, 0, 36);"/>
	<path class="st1_entrepreneur-58" d="M238.1,431.5c-0.4,0-0.7-0.3-0.7-0.7l0,0v-74.7c0-0.4,0.3-0.7,0.7-0.7s0.7,0.3,0.7,0.7c0,0,0,0,0,0v74.7&#xA;&#9;&#9;C238.8,431.2,238.5,431.5,238.1,431.5z"/>
	<polygon class="st1_entrepreneur-58" points="207.4,186.7 259.3,186.9 258.4,206.7 221.7,206.7 203.9,198.2 &#9;"/>
	<path class="st1_entrepreneur-58" d="M258.4,207.4h-36.7c-0.1,0-0.2,0-0.3-0.1l-17.8-8.5c-0.3-0.1-0.5-0.5-0.4-0.8l3.5-11.5&#xA;&#9;&#9;c0.1-0.3,0.4-0.5,0.7-0.5l0,0l52,0.2c0.4,0,0.7,0.3,0.7,0.7c0,0,0,0,0,0l-0.9,19.8C259.1,207.1,258.8,207.4,258.4,207.4z&#xA;&#9;&#9; M221.9,206h35.9l0.9-18.4l-50.7-0.2l-3.1,10.4L221.9,206z"/>
	<path class="st2_entrepreneur-58" d="M272.8,136.3c2.8-6.1,3.5-14.4,4.6-21c0.8-4.9,2.9-12.9,0.7-17.7c-1.5-3.1-6.5-6.3-9.5-7.9&#xA;&#9;&#9;c-1.5-12.3-13.1-19.9-24.7-20.5c-7-0.4-14,1.5-20.7,3.7s-13.6,4.9-17,10.9c-0.6,1.3-1.4,2.6-2.3,3.8c-1.2,1.1-2.5,2.1-4,2.9&#xA;&#9;&#9;c-9.2,6-8.2,14.2-7,23.6c1.2,10,4.7,19.9,5.7,29.7c11.5,0.7,23.2,1.7,34.8,1.5C242.7,145.2,267.9,147.2,272.8,136.3z"/>
	<path class="st1_entrepreneur-58" d="M242.9,146.1c-1.8,0-3.4,0-5-0.1c-1.7,0-3.2,0-4.5,0c-9.5,0.1-19-0.5-28.3-1.1l-6.6-0.4&#xA;&#9;&#9;c-0.3,0-0.6-0.3-0.6-0.6c-0.6-5.2-1.6-10.4-2.8-15.5c-1.2-4.7-2.1-9.5-2.8-14.3c-1.2-9.3-2.2-18,7.3-24.3l1.1-0.7&#xA;&#9;&#9;c1-0.6,2-1.3,2.8-2.1c0.6-0.8,1.1-1.6,1.6-2.5c0.2-0.4,0.4-0.8,0.6-1.2c3.5-6.1,10.4-9,17.4-11.2c7.7-2.5,14.2-4.1,20.9-3.7&#xA;&#9;&#9;c11.3,0.6,23.6,8,25.3,20.8c2.2,1.2,7.8,4.5,9.5,8c2,4.2,0.8,10.4-0.1,15.4c-0.2,1-0.4,1.9-0.5,2.7c-0.2,1.2-0.4,2.5-0.6,3.8&#xA;&#9;&#9;c-0.8,5.7-1.8,12.3-4.1,17.3l0,0C269.6,145.1,254.4,146.1,242.9,146.1z M234.5,144.6h3.4c10.6,0.1,30.2,0.4,34.3-8.6l0,0&#xA;&#9;&#9;c2.2-4.9,3.1-11.3,4-17c0.2-1.3,0.4-2.6,0.6-3.8c0.1-0.8,0.3-1.8,0.5-2.8c0.9-4.8,2-10.8,0.2-14.5c-1.2-2.6-5.5-5.6-9.2-7.6&#xA;&#9;&#9;c-0.2-0.1-0.3-0.3-0.4-0.5c-1.5-12.3-13.2-19.3-24.1-19.9c-6.5-0.3-12.9,1.2-20.4,3.6c-6.7,2.2-13.4,4.9-16.6,10.6&#xA;&#9;&#9;c-0.2,0.4-0.4,0.8-0.6,1.1c-0.5,1-1.1,1.9-1.8,2.8c-0.9,0.9-2,1.7-3.1,2.4c-0.3,0.2-0.7,0.4-1,0.6c-8.9,5.8-7.9,13.7-6.7,22.9&#xA;&#9;&#9;c0.7,4.8,1.6,9.5,2.7,14.1c1.2,4.9,2.2,9.9,2.9,15l6,0.4c9.2,0.6,18.8,1.2,28.2,1.1L234.5,144.6z M272.8,136.3L272.8,136.3z"/>
	<path class="st2_entrepreneur-58" d="M211,138c-1.6-12.7-22.4-16.5-21.9-1.6c0.2,5.1,1.6,10.4,5.1,14.1s9.2,5.7,13.9,3.8"/>
	<path class="st1_entrepreneur-58" d="M204.1,155.7c-4-0.1-7.8-1.8-10.4-4.7c-4.1-4.5-5.1-10.4-5.3-14.6c-0.2-7.1,4.2-10,8.4-10.3&#xA;&#9;&#9;c6.3-0.5,13.9,4.2,14.9,11.8c0,0.4-0.2,0.7-0.6,0.8c0,0,0,0,0,0c-0.4,0-0.7-0.2-0.8-0.6c-0.9-6.8-7.7-11.1-13.4-10.6&#xA;&#9;&#9;c-4.6,0.4-7.3,3.7-7.1,8.9c0.1,4,1.1,9.5,4.9,13.7c3.5,3.8,8.9,5.3,13.1,3.6c0.3-0.2,0.8,0,0.9,0.3c0.2,0.3,0,0.8-0.3,0.9&#xA;&#9;&#9;c0,0-0.1,0-0.1,0C207,155.5,205.6,155.8,204.1,155.7z"/>
	<path class="st2_entrepreneur-58" d="M256.3,138c1.6-12.7,22.4-16.5,21.9-1.6c-0.2,5.1-1.6,10.4-5.1,14.1s-9.2,5.7-13.9,3.8"/>
	<path class="st1_entrepreneur-58" d="M263.1,155.7c-1.5,0-2.9-0.3-4.2-0.8c-0.4-0.1-0.6-0.5-0.5-0.9s0.5-0.6,0.9-0.5c0,0,0.1,0,0.1,0&#xA;&#9;&#9;c4.2,1.7,9.6,0.2,13.1-3.6c3.8-4.1,4.8-9.7,4.9-13.7c0.2-5.2-2.5-8.5-7.1-8.9c-5.7-0.5-12.5,3.8-13.4,10.6c0,0.4-0.4,0.7-0.8,0.6&#xA;&#9;&#9;c-0.4,0-0.7-0.4-0.6-0.8c1-7.6,8.6-12.3,14.9-11.8c4.2,0.3,8.6,3.2,8.4,10.3c-0.1,4.2-1.2,10.1-5.3,14.6&#xA;&#9;&#9;C270.9,153.9,267.1,155.7,263.1,155.7z"/>
	<path class="st2_entrepreneur-58" d="M209.4,201c0,0,9.6,4.9,26.1,5.5s19.3-3.9,19.3-3.9l-0.4-8.8l-0.9-20.5l-0.9-19.2l-37.7-1.3l-1.8,15.6&#xA;&#9;&#9;l-0.6,5.1L209.4,201z"/>
	<path class="st1_entrepreneur-58" d="M238.3,207.3c-0.9,0-1.8,0-2.8,0c-16.5-0.6-26-5.4-26.4-5.6c-0.3-0.1-0.4-0.4-0.4-0.7l5.5-48.3&#xA;&#9;&#9;c0-0.4,0.4-0.6,0.7-0.6l37.7,1.3c0.4,0,0.7,0.3,0.7,0.7l2.2,48.6c0,0.1,0,0.3-0.1,0.4C255.2,203.2,252.5,207.3,238.3,207.3z&#xA;&#9;&#9; M210.1,200.6c2,0.9,11.2,4.7,25.4,5.2c14,0.5,17.8-2.7,18.5-3.4l-2.1-47.7l-36.4-1.3L210.1,200.6z"/>
	<path class="st1_entrepreneur-58" d="M212.5,173.4c2.7,4.7,7.3,8.4,12,11.3c8,4.8,19.9,10.2,29.8,9.1l-0.9-20.5c-7.2,0.7-14.5,0.4-21.8-0.6&#xA;&#9;&#9;c-6.3-0.8-12.9-1.6-18.6-4.3L212.5,173.4z"/>
	<path class="st1_entrepreneur-58" d="M251.5,194.6c-10.2,0-21.3-5.7-27.4-9.3c-5.7-3.4-9.8-7.3-12.2-11.5c-0.1-0.1-0.1-0.3-0.1-0.4l0.6-5.1&#xA;&#9;&#9;c0-0.2,0.2-0.4,0.4-0.5c0.2-0.1,0.4-0.1,0.6,0c5.8,2.7,12.5,3.5,18.4,4.2c7.1,1.1,14.4,1.3,21.6,0.6c0.4,0,0.7,0.3,0.8,0.7&#xA;&#9;&#9;c0,0,0,0,0,0l0.9,20.5c0,0.4-0.3,0.7-0.6,0.7C253.5,194.6,252.5,194.6,251.5,194.6z M213.2,173.2c2.3,3.9,6.2,7.6,11.6,10.8&#xA;&#9;&#9;c6.3,3.8,18.4,9.9,28.7,9l-0.8-19.1c-7.1,0.6-14.2,0.3-21.2-0.7c-5.7-0.7-12.1-1.5-17.9-3.9L213.2,173.2z"/>
	<path class="st2_entrepreneur-58" d="M266.6,103.8l-1.6,45.8c-0.1,2-0.3,3.9-0.8,5.8c-3.2,13.3-15.4,22.5-29.1,22.1l-3.4-0.1&#xA;&#9;&#9;c-15.9-0.5-28.4-13.9-27.9-29.8c0,0,0-0.1,0-0.1l1.6-45.7c0,0,7.1,9.4,27.6,9.2S266.6,103.8,266.6,103.8z"/>
	<path class="st1_entrepreneur-58" d="M236.1,178.1h-1l-3.4-0.1c-16.3-0.5-29.1-14.2-28.6-30.5c0,0,0-0.1,0-0.1l1.6-45.7c0-0.4,0.3-0.7,0.7-0.7&#xA;&#9;&#9;c0.2,0,0.4,0.1,0.5,0.3c0.1,0.1,7.2,9.1,27.1,8.9c20-0.2,33.1-7,33.2-7c0.2-0.1,0.5-0.1,0.7,0c0.2,0.1,0.3,0.4,0.3,0.6l-1.6,45.8&#xA;&#9;&#9;c-0.1,2-0.3,4-0.8,6C261.7,168.8,249.8,178.1,236.1,178.1z M206.1,103.4l-1.5,44c-0.6,15.5,11.6,28.6,27.1,29.2c0,0,0,0,0.1,0&#xA;&#9;&#9;l3.4,0.1c13.4,0.4,25.2-8.6,28.4-21.5c0.4-1.9,0.7-3.8,0.8-5.7l1.5-44.6c-10.4,4.4-21.5,6.7-32.8,6.7&#xA;&#9;&#9;C216.9,111.8,208.9,106,206.1,103.4L206.1,103.4z"/>
	<path class="st3_entrepreneur-58" d="M265.4,139.6c2.8,28.8-16.3,38.3-30.2,37.9l-3.4-0.1c-31.8-2.4-27.9-29.9-27.6-39.1&#xA;&#9;&#9;c1.4,7.7,5.1,20.1,11.8,21.5c3.4,0.7,6.6-7.9,9.8-9.6s12.5-0.6,17.4-0.3s7,8.7,9.6,9.8C254.6,160.3,262.1,152.7,265.4,139.6z"/>
	<path class="st1_entrepreneur-58" d="M236.2,178.1h-1.1l-3.4-0.1c-30.3-2.2-28.9-27-28.3-37.6c0-0.8,0.1-1.5,0.1-2.2c0-0.4,0.3-0.6,0.6-0.7&#xA;&#9;&#9;c0.4,0,0.7,0.2,0.7,0.6c1.7,9.3,5.5,19.7,11.2,20.9c1.5,0.3,3.4-2.4,5-4.7c1.4-2.1,2.8-4,4.3-4.8c2.9-1.6,10.1-1,15.3-0.6l2.5,0.2&#xA;&#9;&#9;c3.4,0.2,5.5,3.7,7.2,6.4c0.9,1.5,1.9,3,2.6,3.4c1.3,0.2,8.4-6.8,11.6-19.6c0.1-0.3,0.4-0.6,0.7-0.5c0.3,0,0.6,0.3,0.6,0.6&#xA;&#9;&#9;c1.2,12.4-1.6,22.6-8,29.5C252.3,174.9,244.4,178.2,236.2,178.1z M204.7,143.5c-0.4,11.7,0.7,31.2,27.2,33.1l3.4,0.1&#xA;&#9;&#9;c8.2,0.3,16.1-2.9,21.8-8.7c5.5-5.9,8.2-14.2,7.9-24.4c-3.1,9.1-8,15.1-10.7,16.5c-0.5,0.3-1.1,0.4-1.6,0.2&#xA;&#9;&#9;c-1.2-0.5-2.2-2.1-3.3-3.9c-1.6-2.6-3.4-5.6-6.1-5.8c-0.8-0.1-1.6-0.1-2.5-0.2c-4.8-0.4-12-1-14.5,0.4c-1.2,0.6-2.5,2.5-3.8,4.4&#xA;&#9;&#9;c-2,2.8-4.1,5.8-6.5,5.3C209.8,159.1,206.4,150,204.7,143.5z"/>
	<path class="st2_entrepreneur-58" d="M234.8,129.4c0,0,9.5,21,5.3,21.3s-10.2-2.8-10.2-2.8"/>
	<path class="st1_entrepreneur-58" d="M239.4,151.5c-4.3,0-9.5-2.7-9.8-2.9c-0.3-0.2-0.5-0.6-0.3-0.9c0,0,0,0,0,0c0.2-0.3,0.6-0.5,0.9-0.3&#xA;&#9;&#9;c0.1,0,5.8,3,9.8,2.7c0.1,0,0.2-0.1,0.2-0.2c1.2-2.1-3.1-13.5-6.1-20.2c-0.2-0.4,0-0.8,0.3-0.9c0.4-0.2,0.8,0,0.9,0.4&#xA;&#9;&#9;c1.4,3,8,18.1,6,21.5c-0.3,0.5-0.8,0.8-1.3,0.9C239.9,151.5,239.6,151.5,239.4,151.5z"/>
	<path class="st1_entrepreneur-58" d="M240.7,163.6c-5.4-0.1-10.6-1.4-15.5-3.6c-0.4-0.2-0.5-0.6-0.4-0.9s0.6-0.5,0.9-0.4&#xA;&#9;&#9;c14.2,6.1,21.8,2.3,21.9,2.3c0.3-0.2,0.8-0.1,0.9,0.3c0,0,0,0,0,0c0.2,0.3,0.1,0.8-0.3,0.9c0,0,0,0,0,0&#xA;&#9;&#9;C248.1,162.3,245.6,163.6,240.7,163.6z"/>
	<ellipse class="st1_entrepreneur-58" cx="222.5" cy="126.3" rx="2" ry="4.5"/>
	<ellipse class="st1_entrepreneur-58" cx="249" cy="126.3" rx="2" ry="4.5"/>
	<polygon class="st1_entrepreneur-58" points="202.1,197 237.4,351.3 245.5,313 264.1,197 235.5,206.5 &#9;"/>
	<path class="st1_entrepreneur-58" d="M237.4,352c-0.3,0-0.6-0.2-0.7-0.5l-35.3-154.3c-0.1-0.2,0-0.5,0.2-0.7c0.2-0.2,0.4-0.2,0.7-0.2l33.2,9.4&#xA;&#9;&#9;l28.5-9.4c0.2-0.1,0.5,0,0.7,0.1c0.2,0.2,0.3,0.4,0.2,0.6l-18.7,116l-8,38.4C238.1,351.8,237.8,352,237.4,352L237.4,352z&#xA;&#9;&#9; M203.1,198l34.3,150l7.4-35.2L263.2,198l-27.6,9.1c-0.1,0-0.3,0-0.4,0L203.1,198z"/>
	<polygon class="st3_entrepreneur-58" points="223.1,211.3 229,223.4 222.6,284.8 238,345.6 250.3,284.8 240.6,222.6 245.5,213.2 235.5,206.5 &#9;"/>
	<path class="st1_entrepreneur-58" d="M238,346.3c-0.3,0-0.6-0.2-0.7-0.5L222,285c0-0.1,0-0.2,0-0.2l6.3-61.2l-5.8-11.8c-0.1-0.2-0.1-0.4,0-0.6&#xA;&#9;&#9;c0.1-0.2,0.2-0.3,0.4-0.4l12.4-4.8c0.2-0.1,0.4-0.1,0.6,0.1l10,6.7c0.3,0.2,0.4,0.6,0.2,0.9l-4.7,9.2l9.5,61.9c0,0.1,0,0.2,0,0.2&#xA;&#9;&#9;l-12.3,60.8C238.6,346,238.3,346.3,238,346.3L238,346.3z M223.4,284.7l14.6,57.7l11.7-57.6l-9.6-62.1c0-0.1,0-0.3,0.1-0.4l4.5-8.9&#xA;&#9;&#9;l-9.2-6.1l-11.3,4.4l5.5,11.3c0.1,0.1,0.1,0.2,0.1,0.4L223.4,284.7z"/>
	<path class="st2_entrepreneur-58" d="M259.3,186.9c-0.7,0-24.1,19.6-24.1,19.6l14.4,16.8l14.4-26.4L259.3,186.9z"/>
	<path class="st1_entrepreneur-58" d="M249.7,224.1c-0.2,0-0.4-0.1-0.5-0.2L234.7,207c-0.3-0.3-0.2-0.7,0.1-1c0,0,0,0,0,0&#xA;&#9;&#9;c23.5-19.8,24.2-19.8,24.5-19.8c0.3,0,0.5,0.2,0.6,0.4l4.8,10.1c0.1,0.2,0.1,0.4,0,0.6l-14.4,26.3c-0.1,0.2-0.3,0.3-0.5,0.4&#xA;&#9;&#9;L249.7,224.1z M236.2,206.6l13.3,15.5l13.8-25.1l-4.3-9.1C256.2,189.9,244.5,199.7,236.2,206.6z"/>
	<path class="st2_entrepreneur-58" d="M207.4,186.7c0.8,0,28.1,19.8,28.1,19.8l-16.7,16.8L202.1,197L207.4,186.7z"/>
	<path class="st1_entrepreneur-58" d="M218.8,224.1L218.8,224.1c-0.3,0-0.5-0.1-0.6-0.3l-16.7-26.3c-0.1-0.2-0.1-0.5,0-0.7l5.2-10.3&#xA;&#9;&#9;c0.1-0.2,0.4-0.4,0.6-0.4c0.3,0,1,0,28.5,19.9c0.2,0.1,0.3,0.3,0.3,0.5c0,0.2-0.1,0.4-0.2,0.6l-16.7,16.8&#xA;&#9;&#9;C219.2,224,219,224.1,218.8,224.1z M202.9,197l16,25.2l15.5-15.6c-9.8-7.1-23.8-17.1-26.8-18.9L202.9,197z"/>
	<path class="st0_entrepreneur-58 targetColor" d="M202.1,197c0,0,30.4,136.5,36,150.3c0,0-64.1-108.9-64.4-111s9.2-11.1,9.2-11.1l-7.8-3.5l7-12.7L202.1,197z" style="fill: rgb(214, 0, 36);"/>
	<path class="st1_entrepreneur-58" d="M238.1,348c-0.2,0-0.5-0.1-0.6-0.3c-10.7-18.2-64.2-109.1-64.5-111.2s5.4-7.9,8.6-11l-6.8-3.1&#xA;&#9;&#9;c-0.2-0.1-0.3-0.2-0.4-0.4c-0.1-0.2-0.1-0.4,0-0.6l7-12.7c0.1-0.1,0.1-0.2,0.2-0.3l20-12.1c0.2-0.1,0.4-0.1,0.6-0.1&#xA;&#9;&#9;c0.2,0.1,0.4,0.3,0.4,0.5c0.3,1.4,30.5,136.6,36,150.2c0.2,0.3,0,0.8-0.3,0.9C238.3,348,238.2,348,238.1,348L238.1,348z&#xA;&#9;&#9; M176.1,221.4l7.1,3.2c0.2,0.1,0.4,0.3,0.4,0.5c0,0.2,0,0.5-0.2,0.6c-4.4,4.1-9.1,9.3-9,10.4c0.8,2.4,38.6,67.1,61.1,105.3&#xA;&#9;&#9;c-8.1-28.4-31.2-131.5-33.9-143.4l-19,11.5L176.1,221.4z"/>
	<path class="st0_entrepreneur-58 targetColor" d="M264.1,197c0,0-20.4,136.5-26,150.3c0,0,54-108.9,54.4-111s-9.2-11.1-9.2-11.1l7.8-3.5l-7-12.7L264.1,197z" style="fill: rgb(214, 0, 36);"/>
	<path class="st1_entrepreneur-58" d="M238.1,348c-0.1,0-0.2,0-0.3-0.1c-0.3-0.2-0.5-0.6-0.4-0.9c5.5-13.6,25.8-148.8,26-150.1&#xA;&#9;&#9;c0-0.2,0.2-0.4,0.4-0.5c0.2-0.1,0.5-0.1,0.7,0l20,12.1c0.1,0.1,0.2,0.2,0.2,0.3l7,12.7c0.1,0.2,0.1,0.4,0,0.6&#xA;&#9;&#9;c-0.1,0.2-0.2,0.3-0.4,0.4l-6.8,3.1c3.2,3.1,9,8.9,8.6,11s-48.9,100.1-54.5,111.2C238.6,347.8,238.4,348,238.1,348z M264.7,198.1&#xA;&#9;&#9;c-1.8,12.2-17,112.4-23.9,142.2c19.1-38.5,50.4-101.9,51-104.2c0.1-1.1-4.5-6.2-9-10.4c-0.3-0.3-0.3-0.7,0-1&#xA;&#9;&#9;c0.1-0.1,0.1-0.1,0.2-0.1l7.1-3.2l-6.5-11.9L264.7,198.1z"/>
	<path class="st0_entrepreneur-58 targetColor" d="M326.1,225.7c0,0,2.5-2.1,5.7,2.8s78.6,148.1,45.7,160.7c-11.1,4.2-106.2,11.4-106.2,11.4l3.9-48.1l47-1.4&#xA;&#9;&#9;c0,0-19.4-29-19.8-33.6S326.1,225.7,326.1,225.7z" style="fill: rgb(214, 0, 36);"/>
	<path class="st2_entrepreneur-58" d="M273,358.2c-3.9-0.6-7.6-1.8-11.1-3.5c-4.6-2.5-15.8-17.1-19.9-19.6s-32.2-11.5-31.3-5.6s11,8,11,8&#xA;&#9;&#9;s-11.3,0.6-12.7,5s-0.4,21,5.1,27.2s32.7,13.8,41.7,16.7c5.6,1.8,15.6,2.5,15.6,2.5L273,358.2z"/>
	<path class="st1_entrepreneur-58" d="M271.3,389.6L271.3,389.6c-0.4,0-10.1-0.7-15.7-2.5c-1.4-0.4-3.1-1-5.1-1.6c-12-3.7-32.1-9.8-36.9-15.3&#xA;&#9;&#9;c-5.8-6.6-6.7-23.4-5.2-27.9c1-3.2,6.2-4.5,9.8-5.1c-3.2-1.2-7.5-3.5-8.1-7.5c-0.2-0.8,0.2-1.7,0.9-2.1c4.5-3,27.9,4.8,31.5,7&#xA;&#9;&#9;c2,1.2,5.5,5.1,9.2,9.2c3.9,4.3,8.3,9.2,10.6,10.5c4.4,2.4,10.9,3.4,10.9,3.4c0.4,0.1,0.6,0.4,0.6,0.7l-1.7,30.6&#xA;&#9;&#9;c0,0.2-0.1,0.4-0.2,0.5C271.6,389.5,271.5,389.6,271.3,389.6z M214.3,328.2c-0.9-0.1-1.8,0.1-2.6,0.5c-0.3,0.1-0.4,0.4-0.3,0.7&#xA;&#9;&#9;c0.8,5.4,10.3,7.4,10.4,7.4c0.4,0.1,0.6,0.4,0.6,0.8c-0.1,0.3-0.3,0.6-0.7,0.6c-3,0.2-11,1.3-12.1,4.5c-1.4,4.3-0.2,20.7,4.9,26.6&#xA;&#9;&#9;c4.6,5.2,25.2,11.5,36.2,14.9c2,0.6,3.8,1.2,5.2,1.6c4.6,1.5,12.3,2.2,14.7,2.4l1.6-29.3c-3.7-0.6-7.3-1.8-10.7-3.4&#xA;&#9;&#9;c-2.5-1.4-6.9-6.1-11-10.8c-3.5-3.8-7-7.8-8.9-8.9C238.6,333.8,221.5,328.2,214.3,328.2L214.3,328.2z"/>
	<polygon class="st1_entrepreneur-58" points="271.6,396.8 275.2,352.6 267,352.6 261.7,393.3 &#9;"/>
	<path class="st1_entrepreneur-58" d="M271.6,397.5c-0.1,0-0.2,0-0.2,0l-9.9-3.5c-0.3-0.1-0.5-0.4-0.5-0.8l5.3-40.7c0-0.3,0.3-0.6,0.7-0.6h8.1&#xA;&#9;&#9;c0.2,0,0.4,0.1,0.5,0.2c0.1,0.1,0.2,0.3,0.2,0.5l-3.6,44.2c0,0.2-0.1,0.4-0.3,0.5C271.9,397.5,271.7,397.5,271.6,397.5z&#xA;&#9;&#9; M262.5,392.8l8.5,3l3.4-42.5h-6.8L262.5,392.8z"/>
	<path class="st1_entrepreneur-58" d="M271.3,401.4c-0.2,0-0.4-0.1-0.5-0.2c-0.1-0.1-0.2-0.3-0.2-0.5l3.9-48.1c0-0.4,0.4-0.7,0.8-0.6&#xA;&#9;&#9;c0.4,0,0.7,0.4,0.6,0.8L272,400c8-0.5,72.7-4.4,100.7-10.8c0.4-0.1,0.8,0.2,0.8,0.5s-0.2,0.8-0.5,0.8l0,0&#xA;&#9;&#9;C343.2,397.4,272.1,401.4,271.3,401.4L271.3,401.4z"/>
	<path class="st1_entrepreneur-58" d="M275.2,353.3c-0.4,0-0.7-0.3-0.7-0.7c0-0.4,0.3-0.7,0.7-0.7l45.8-1.4l-15-22.6c-0.2-0.3-0.2-0.7,0.1-1&#xA;&#9;&#9;c0.3-0.2,0.7-0.2,1,0.1c0,0,0.1,0.1,0.1,0.1l15.7,23.7c0.1,0.2,0.1,0.5,0,0.7c-0.1,0.2-0.3,0.4-0.6,0.4L275.2,353.3L275.2,353.3z"/>
	<path class="st1_entrepreneur-58" d="M301.1,352H301c-0.4-0.1-0.6-0.4-0.5-0.8c0.1-0.6,13.3-64.2,19.1-94.7c0.1-0.4,0.4-0.6,0.8-0.6&#xA;&#9;&#9;s0.6,0.4,0.6,0.8c-5.8,30.5-19,94.1-19.1,94.8C301.7,351.8,301.4,352,301.1,352z"/>
	<path class="st1_entrepreneur-58" d="M166.3,418.5L166.3,418.5c-0.4,0-0.7-0.4-0.7-0.7c0,0,0,0,0,0c0-0.4,2.7-36.1,3.2-44.4&#xA;&#9;&#9;c0.4-6.8-1.1-15.3-3.4-28.1c-0.5-2.8-1-5.7-1.6-8.9c-3-17.7-26-90.3-26.2-91c-0.1-0.4,0-0.8,0.4-0.9s0.8,0,0.9,0.4c0,0,0,0,0,0.1&#xA;&#9;&#9;c0.2,0.7,23.2,73.4,26.3,91.2c0.6,3.2,1.1,6.1,1.6,8.9c2.3,12.9,3.8,21.4,3.4,28.4c-0.5,8.3-3.2,44-3.2,44.4&#xA;&#9;&#9;C166.9,418.3,166.6,418.5,166.3,418.5z"/>
	<path class="st1_entrepreneur-58" d="M160.6,372.1c-0.2,0-0.3-0.1-0.4-0.1c-0.7-0.5-17.3-13.6-22.5-20.1c-0.2-0.3-0.2-0.7,0.1-1&#xA;&#9;&#9;c0.3-0.2,0.7-0.2,1,0.1l0,0c5.1,6.5,22.1,19.8,22.3,19.9c0.3,0.2,0.4,0.7,0.1,1C161,372,160.8,372.1,160.6,372.1L160.6,372.1z"/>
	<path class="st1_entrepreneur-58" d="M322.2,351.9c-0.4,0-0.7-0.3-0.7-0.7c0-0.4,0.3-0.7,0.7-0.7l29.6-1.1c0.4,0,0.7,0.3,0.7,0.7c0,0,0,0,0,0&#xA;&#9;&#9;c0,0.4-0.3,0.7-0.7,0.7c0,0,0,0,0,0L322.2,351.9L322.2,351.9z"/>
	<path class="st1_entrepreneur-58" d="M184.7,420.4c-0.3,0-0.6-0.2-0.7-0.5c-0.1-0.4,0.1-0.8,0.5-0.8l35.4-8.6c0.4-0.1,0.7,0.1,0.8,0.5c0,0,0,0,0,0&#xA;&#9;&#9;c0.1,0.4-0.1,0.8-0.5,0.9l-35.4,8.6L184.7,420.4z"/>
	<path class="st1_entrepreneur-58" d="M305.1,419.7c-0.1,0-0.1,0-0.2,0l-35.4-8.7c-0.4-0.1-0.6-0.5-0.5-0.8s0.5-0.6,0.8-0.5c0,0,0,0,0,0l35.4,8.6&#xA;&#9;&#9;c0.4,0.1,0.6,0.5,0.5,0.9C305.7,419.4,305.4,419.7,305.1,419.7z"/>
	<circle class="st1_entrepreneur-58" cx="231.3" cy="386.6" r="1.8"/>
	<path class="st1_entrepreneur-58" d="M231.3,389.1c-1.4,0-2.5-1.1-2.5-2.5c0-1.4,1.1-2.5,2.5-2.5s2.5,1.1,2.5,2.5&#xA;&#9;&#9;C233.8,388,232.7,389.1,231.3,389.1z M231.3,385.5c-0.6,0-1.1,0.5-1.1,1.1c0,0.6,0.5,1.1,1.1,1.1s1.1-0.5,1.1-1.1l0,0&#xA;&#9;&#9;C232.4,386,231.9,385.5,231.3,385.5z"/>
	<circle class="st1_entrepreneur-58" cx="231.3" cy="412.8" r="1.8"/>
	<path class="st1_entrepreneur-58" d="M231.3,415.4c-1.4,0-2.5-1.1-2.5-2.5c0-1.4,1.1-2.5,2.5-2.5s2.5,1.1,2.5,2.5&#xA;&#9;&#9;C233.8,414.2,232.7,415.3,231.3,415.4z M231.3,411.7c-0.6,0-1.1,0.5-1.1,1.1c0,0.6,0.5,1.1,1.1,1.1s1.1-0.5,1.1-1.1l0,0&#xA;&#9;&#9;C232.4,412.2,231.9,411.7,231.3,411.7z"/>
</g>
</svg>