<svg version="1.1" id="Layer_1" xmlns="http://www.w3.org/2000/svg" xmlns:xlink="http://www.w3.org/1999/xlink" x="0px" y="0px" viewBox="0 0 500 500" style="width: 166px;" xml:space="preserve" data-imageid="motorcycle-81" imageName="Motorcycle" class="illustrations_image">
<style type="text/css">
	.st0_motorcycle-81{fill:#231F20;}
	.st1_motorcycle-81{fill:#FFFFFF;}
	.st2_motorcycle-81{fill:#D1D3D4;}
	.st3_motorcycle-81{fill:#68E1FD;}
	.st4_motorcycle-81{fill:none;}
</style>
<g id="Scooter_motorcycle-81">
	<path class="st0_motorcycle-81" d="M303.5,205.8c-0.3,0-0.5-0.1-0.6-0.4L292,186.7c-0.2-0.3-0.1-0.8,0.2-0.9c0,0,0,0,0,0c0.3-0.2,0.8-0.1,1,0.2&#xA;&#9;&#9;c0,0,0,0,0,0.1l10.8,18.7c0.2,0.3,0.1,0.8-0.2,1c0,0,0,0-0.1,0C303.7,205.8,303.6,205.8,303.5,205.8z"/>
	<path class="st0_motorcycle-81" d="M289.9,193.2c-0.2,0-0.4-0.1-0.5-0.2c-0.3-0.3-0.3-0.7,0-1c0.3-0.6,3-8.5,4.5-13.3c0.1-0.4,0.5-0.6,0.9-0.5&#xA;&#9;&#9;c0,0,0,0,0,0c0.4,0.1,0.6,0.5,0.5,0.9c-4.3,13.4-4.7,13.7-4.9,13.9C290.2,193.1,290,193.2,289.9,193.2z"/>
	<path class="st0_motorcycle-81" d="M326.1,203.9c0,0,5.8,3.2,6.8,9.5c1.3,8.5-3.2,11.2-3.2,11.2L326.1,203.9z"/>
	<path class="st1_motorcycle-81" d="M120.9,287.8c0,0-5.2-1.8-7.4-0.9s-18,26.4-16.6,27.6s8.8,0,8.8,0L120.9,287.8z"/>
	<path class="st0_motorcycle-81" d="M115.1,286.6c2,0.1,3.9,0.5,5.8,1.2l-15.2,26.7c-2,0.3-3.9,0.5-5.9,0.6c-1,0.1-2-0.1-2.9-0.6&#xA;&#9;&#9;c-1.5-1.2,14.3-26.7,16.6-27.6C114,286.7,114.5,286.6,115.1,286.6 M115.1,285.2c-0.7,0-1.5,0.1-2.2,0.4c-3,1.2-16.8,24.3-17.5,28.1&#xA;&#9;&#9;c-0.2,0.7,0,1.4,0.5,1.9c0.7,0.6,1.9,0.9,3.9,0.9c2.1,0,4.1-0.2,6.2-0.6l0.7-0.1l0.3-0.6l15.2-26.7l0.9-1.5l-1.6-0.6&#xA;&#9;&#9;C119.4,285.7,117.3,285.3,115.1,285.2L115.1,285.2z"/>
	<circle class="st0_motorcycle-81" cx="139.7" cy="361.1" r="37"/>
	<path class="st0_motorcycle-81" d="M139.7,398.8c-20.8,0-37.7-16.9-37.7-37.7c0-20.8,16.9-37.7,37.7-37.7c20.8,0,37.7,16.9,37.7,37.7c0,0,0,0,0,0&#xA;&#9;&#9;C177.3,381.9,160.5,398.8,139.7,398.8z M139.7,324.8c-20,0-36.3,16.3-36.2,36.3c0,20,16.3,36.3,36.3,36.2c20,0,36.2-16.3,36.2-36.3&#xA;&#9;&#9;C176,341.1,159.7,324.8,139.7,324.8L139.7,324.8z"/>
	<circle class="st1_motorcycle-81" cx="139.7" cy="361.1" r="26.1"/>
	<path class="st0_motorcycle-81" d="M139.7,335c14.4,0,26.2,11.7,26.2,26.1c0,14.4-11.7,26.2-26.1,26.2s-26.2-11.7-26.2-26.1c0,0,0,0,0,0&#xA;&#9;&#9;C113.5,346.7,125.2,335,139.7,335 M139.7,333.6c-15.2,0-27.5,12.3-27.5,27.5c0,15.2,12.3,27.6,27.5,27.6&#xA;&#9;&#9;c15.2,0,27.6-12.3,27.6-27.6l0,0C167.2,345.9,154.9,333.6,139.7,333.6z"/>
	<circle class="st2_motorcycle-81" cx="139.7" cy="361.1" r="10.4"/>
	<path class="st0_motorcycle-81" d="M150.1,328.7c-14.2,6.2-27.2,26.8-5.7,32.4c12.2,3.2,85,1.4,85,1.4l-16.5-29.4&#xA;&#9;&#9;C212.8,333.2,163.9,322.6,150.1,328.7z"/>
	<path class="st0_motorcycle-81" d="M188.7,363.7c-19,0-38.6-0.4-44.6-1.9c-9.2-2.4-11.6-7.3-11.9-11c-0.7-8.6,8.5-18.7,17.5-22.7l0,0&#xA;&#9;&#9;c13.8-6.1,61.2,4,63.2,4.4c0.2,0,0.4,0.2,0.5,0.3l16.5,29.4c0.1,0.2,0.1,0.5,0,0.7c-0.1,0.2-0.4,0.3-0.6,0.4&#xA;&#9;&#9;C227.8,363.3,208.7,363.7,188.7,363.7z M163.6,327.5c-5.5,0-10.3,0.5-13.2,1.8l0,0c-8.4,3.7-17.3,13.4-16.6,21.3&#xA;&#9;&#9;c0.4,4.7,4.1,8.1,10.8,9.8c11.2,2.9,74.2,1.6,83.6,1.4l-15.8-28.1C209.1,333.1,181.9,327.5,163.6,327.5L163.6,327.5z M150.1,328.7&#xA;&#9;&#9;L150.1,328.7z"/>
	<circle class="st0_motorcycle-81" cx="366.9" cy="361.1" r="37"/>
	<path class="st0_motorcycle-81" d="M366.9,398.8c-20.8,0-37.7-16.9-37.7-37.7c0-20.8,16.9-37.7,37.7-37.7c20.8,0,37.7,16.9,37.7,37.7c0,0,0,0,0,0&#xA;&#9;&#9;C404.6,381.9,387.7,398.8,366.9,398.8z M366.9,324.8c-20,0-36.3,16.2-36.3,36.3s16.2,36.3,36.3,36.3s36.3-16.2,36.3-36.3&#xA;&#9;&#9;C403.2,341.1,387,324.9,366.9,324.8L366.9,324.8z"/>
	<circle class="st1_motorcycle-81" cx="366.9" cy="361.1" r="26.1"/>
	<path class="st0_motorcycle-81" d="M366.9,335c14.4,0,26.2,11.7,26.2,26.1c0,14.4-11.7,26.2-26.1,26.2c-14.4,0-26.2-11.7-26.2-26.1c0,0,0,0,0,0&#xA;&#9;&#9;C340.8,346.7,352.5,335,366.9,335 M366.9,333.6c-15.2,0-27.6,12.3-27.6,27.5s12.3,27.6,27.5,27.6c15.2,0,27.6-12.3,27.6-27.5&#xA;&#9;&#9;c0,0,0,0,0,0C394.5,345.9,382.1,333.6,366.9,333.6z"/>
	<circle class="st2_motorcycle-81" cx="366.9" cy="361.1" r="10.4"/>
	<path class="st3_motorcycle-81 targetColor" d="M319.4,231.6l-20.8,11.7c0,0,14.2,67.5,12.9,74.6s-4.2,11.7-9.6,12.1s-44.1,0-52.5,0s13.2-57.9,13.2-57.9&#xA;&#9;&#9;H151.1c0,0-22.5,5-35.8,21.7S94,342.4,96.9,344.9s114.2,1.1,114.2,1.1l11.7,18.1h89.1c13.3,0,27.9-37.1,27.9-37.1h64.5&#xA;&#9;&#9;c0,0-8-18.5-26-23s-25.7-4-25.7-4s8.7-2.1,8.7-10.4S333.2,239.5,319.4,231.6z" style="fill: rgb(214, 0, 36);"/>
	<path class="st0_motorcycle-81" d="M147.7,273c0,0-17.9-14.3-8-18s115-4.6,123,3.3c8,7.9,5.9,15.7-1.4,17.5S147.7,273,147.7,273z"/>
	<path class="st3_motorcycle-81 targetColor" d="M301.5,245.2c-0.8-0.2-16.1-16.4-16-27.3s9.3-16.5,18.4-15.4s22-0.1,22-0.1l4.1,24.1l-16.2,2.5l5.4,6.2&#xA;&#9;&#9;L301.5,245.2z" style="fill: rgb(214, 0, 36);"/>
	<path class="st0_motorcycle-81" d="M209,340.6c-0.1,0-0.3,0-0.4-0.1c-0.3-0.2-0.4-0.7-0.2-1c0,0,0,0,0,0c0.2-0.3,23.5-32.4,3.2-49.6&#xA;&#9;&#9;c-17-14.3-57.2-17.2-81.7,0.6c-19.5,14.2-24.5,46.8-24.6,47.1c-0.1,0.4-0.4,0.6-0.8,0.6c-0.4-0.1-0.6-0.4-0.6-0.8&#xA;&#9;&#9;c1.1-6.3,2.8-12.5,5-18.5c3.4-9.3,9.7-22,20.2-29.6c20.4-14.9,62.2-18.4,83.4-0.5s-2.7,51.1-2.9,51.5&#xA;&#9;&#9;C209.5,340.5,209.2,340.6,209,340.6z"/>
	<path class="st0_motorcycle-81" d="M247.8,322.8h-27.4c-0.4,0-0.7-0.3-0.7-0.7c0-0.4,0.3-0.7,0.7-0.7h27.4c0.4,0,0.7,0.3,0.7,0.7&#xA;&#9;&#9;C248.5,322.5,248.2,322.8,247.8,322.8C247.8,322.8,247.8,322.8,247.8,322.8z"/>
	<path class="st0_motorcycle-81" d="M306.1,354h-78.7c-0.4,0-0.7-0.3-0.7-0.7c0-0.4,0.3-0.7,0.7-0.7h78.7c3.7,0,10.6-7,18.1-18.4&#xA;&#9;&#9;c11.6-17.6,21.5-40.9,17.9-49.4c-3.1-7.3-8.5-10.9-13.6-14.4s-9.9-6.7-12.6-13.1c-5.5-13-1-23.4-0.8-23.9c0.2-0.3,0.6-0.5,0.9-0.4&#xA;&#9;&#9;c0.4,0.2,0.5,0.6,0.4,0.9c-2.6,7.4-2.3,15.6,0.8,22.8c2.5,6.1,7.2,9.2,12.1,12.5c5.3,3.6,10.8,7.3,14.1,15c4,9.2-6.3,33-18,50.7&#xA;&#9;&#9;C321.6,340.7,312.2,354,306.1,354z"/>
	<path class="st0_motorcycle-81" d="M308.9,365c-1.5,0-3.1,0-5.1-0.1c-2.6-0.1-5.9-0.1-9.9-0.1h-36.7c-0.4,0-0.7-0.3-0.7-0.7s0.3-0.7,0.7-0.7&#xA;&#9;&#9;c0,0,0,0,0,0H294c4,0,7.2,0.1,9.9,0.1c12.3,0.3,13,0.3,19.9-8.6c8.5-11,25.7-50.9,25.9-51.3c0.2-0.3,0.6-0.5,0.9-0.4&#xA;&#9;&#9;c0.4,0.2,0.5,0.6,0.4,0.9c0,0,0,0,0,0c-0.7,1.6-17.4,40.4-26.1,51.6C318.7,363.8,316.8,365,308.9,365z"/>
	<path class="st0_motorcycle-81" d="M176.1,306.8h-39.7c-0.4,0-0.7-0.3-0.7-0.7c0-0.4,0.3-0.7,0.7-0.7c0,0,0,0,0,0h39.7c0.4,0,0.7,0.3,0.7,0.7&#xA;&#9;&#9;C176.8,306.5,176.5,306.8,176.1,306.8L176.1,306.8z"/>
	<path class="st0_motorcycle-81" d="M172.7,312H133c-0.4,0-0.7-0.3-0.7-0.7c0-0.4,0.3-0.7,0.7-0.7c0,0,0,0,0,0h39.7c0.4,0,0.7,0.3,0.7,0.7&#xA;&#9;&#9;C173.4,311.7,173.1,312,172.7,312L172.7,312z"/>
	<path class="st0_motorcycle-81" d="M169.2,317.3h-39.7c-0.4,0-0.7-0.3-0.7-0.7c0-0.4,0.3-0.7,0.7-0.7c0,0,0,0,0,0h39.7c0.4,0,0.7,0.3,0.7,0.7&#xA;&#9;&#9;C169.9,317,169.6,317.3,169.2,317.3C169.2,317.3,169.2,317.3,169.2,317.3z"/>
	<path class="st0_motorcycle-81" d="M165.8,322.5h-39.7c-0.4,0-0.7-0.3-0.7-0.7c0-0.4,0.3-0.7,0.7-0.7h39.7c0.4,0,0.7,0.3,0.7,0.7&#xA;&#9;&#9;C166.5,322.2,166.1,322.5,165.8,322.5C165.8,322.5,165.8,322.5,165.8,322.5z"/>
	<path class="st0_motorcycle-81" d="M298.6,244c-0.3,0-0.5-0.1-0.6-0.4c-0.2-0.3-0.1-0.8,0.2-1c0,0,0,0,0,0l20.8-11.6c0.3-0.2,0.8,0,0.9,0.3&#xA;&#9;&#9;c0.1,0.3,0,0.7-0.3,0.9l-20.8,11.7C298.8,244,298.7,244,298.6,244z"/>
	<circle class="st0_motorcycle-81" cx="294.5" cy="219.1" r="4.7"/>
	<path class="st1_motorcycle-81" d="M257.8,267.8c-13.6,0-47.6-0.3-60-2.9c-13.5-2.8-13.3-6.8-13.2-8.7c0-0.1,0-0.3,0-0.4c-0.2-0.3,0-0.7,0.3-0.9&#xA;&#9;&#9;c0,0,0,0,0,0c0.4-0.2,0.8,0,0.9,0.3c0.1,0.4,0.2,0.7,0.1,1.1c-0.1,1.4-0.2,4.7,12.1,7.2c15.1,3.2,64.8,2.8,65.3,2.8&#xA;&#9;&#9;c0.4,0,0.7,0.3,0.7,0.7c0,0,0,0,0,0c0,0.4-0.3,0.7-0.7,0.7c0,0,0,0,0,0C263.1,267.7,261,267.8,257.8,267.8z"/>
</g>
<g id="Character_motorcycle-81">
	<path class="st1_motorcycle-81" d="M272.5,134.2c0,0,3.2,8.3,1.9,9.6s-4.4-0.4-4.4-0.4"/>
	<path class="st0_motorcycle-81" d="M273.1,145c-1.2-0.1-2.3-0.4-3.4-1c-0.3-0.2-0.5-0.6-0.3-0.9c0.2-0.3,0.6-0.5,0.9-0.3c0,0,0,0,0,0&#xA;&#9;&#9;c0.9,0.5,2.9,1.2,3.6,0.5c0.5-0.6-0.5-4.7-2.1-8.8c-0.1-0.4,0-0.8,0.4-0.9c0.4-0.1,0.8,0,0.9,0.4c1,2.6,3.2,8.9,1.8,10.3&#xA;&#9;&#9;C274.5,144.8,273.8,145,273.1,145z"/>
	<path class="st1_motorcycle-81" d="M274,118.2c3.2,4.8,0.4,12.6-0.7,17.9c-1.1,4.8-2.2,9.6-3.5,14.4c-0.8,3-8.8,1.4-10,0.2l-7,17.7&#xA;&#9;&#9;c-3.3-1.6-6.4-3.5-9.3-5.8c-5.8-4.3-4.9-9.3-4.9-9.3c2.4-9.7,8-20,12.1-29.2c1.2-3.9,4.3-6.9,8.2-7.9c3.9-1.5,8.4-2.5,12.1-0.6&#xA;&#9;&#9;C272.3,116.2,273.3,117.1,274,118.2z"/>
	<path class="st0_motorcycle-81" d="M252.8,169c-0.1,0-0.2,0-0.3-0.1c-3.3-1.6-6.5-3.6-9.4-5.9c-6-4.5-5.2-9.8-5.2-10c1.9-7.3,5.4-14.9,8.8-22.2&#xA;&#9;&#9;c1.1-2.4,2.3-4.8,3.3-7.1c1.3-4,4.5-7.2,8.6-8.3c3.4-1.3,8.4-2.7,12.7-0.5c1.3,0.7,2.4,1.7,3.3,2.9l0,0c2.9,4.3,1.3,10.7,0,15.8&#xA;&#9;&#9;c-0.2,0.9-0.5,1.8-0.6,2.6c-1.1,4.8-2.2,9.6-3.5,14.4c-0.3,1.1-1.2,1.8-2.3,2c-2.7,0.5-5.5,0.1-8-1l-6.7,17&#xA;&#9;&#9;c-0.1,0.2-0.2,0.3-0.4,0.4C253,169,252.9,169,252.8,169z M266.4,115.2c-2.5,0.1-4.9,0.6-7.2,1.6c-3.7,1-6.7,3.9-7.8,7.6&#xA;&#9;&#9;c-1,2.3-2.1,4.7-3.3,7.1c-3.4,7.2-6.9,14.8-8.7,21.9c0,0.1-0.7,4.6,4.6,8.6c2.7,2.1,5.5,3.9,8.5,5.4l6.7-17&#xA;&#9;&#9;c0.1-0.2,0.3-0.4,0.5-0.4c0.2-0.1,0.5,0,0.6,0.2c0.6,0.6,4.9,1.8,7.4,1.1c0.8-0.2,1.2-0.5,1.3-1c1.3-4.7,2.5-9.6,3.5-14.3&#xA;&#9;&#9;c0.2-0.8,0.4-1.7,0.6-2.6c1.2-4.9,2.7-10.9,0.2-14.7l0,0c-0.7-1-1.6-1.8-2.8-2.4C269.4,115.5,267.9,115.2,266.4,115.2L266.4,115.2z&#xA;&#9;&#9;"/>
	<path class="st1_motorcycle-81" d="M270.4,146.8c0,0-4.5,0.2-5.7-5"/>
	<path class="st0_motorcycle-81" d="M270.4,147.5c-3.2-0.1-5.8-2.4-6.3-5.5c-0.1-0.4,0.2-0.7,0.5-0.8c0.4-0.1,0.7,0.1,0.8,0.5c0,0,0,0,0,0&#xA;&#9;&#9;c1,4.5,4.8,4.4,5,4.4c0.4,0,0.7,0.3,0.7,0.6c0,0,0,0,0,0C271.2,147.2,270.9,147.5,270.4,147.5L270.4,147.5z"/>
	<path class="st0_motorcycle-81" d="M259.8,150.6c0,0-3.8-2.1-5.1-5.4c0,0-3.8,9.7,2.1,13.2L259.8,150.6z"/>
	<path class="st0_motorcycle-81" d="M256.7,159.1c-0.1,0-0.2,0-0.4-0.1c-6.3-3.7-2.5-13.6-2.4-14.1c0.1-0.3,0.4-0.4,0.6-0.4c0.3,0,0.6,0.2,0.7,0.4&#xA;&#9;&#9;c1.2,3,4.8,5,4.8,5c0.3,0.2,0.4,0.5,0.3,0.9l-3.1,7.8c-0.1,0.2-0.2,0.3-0.4,0.4C256.9,159.1,256.8,159.1,256.7,159.1z M254.9,147&#xA;&#9;&#9;c-0.7,2.6-1.6,7.8,1.6,10.3l2.5-6.5C257.4,149.9,256,148.5,254.9,147z"/>
	<path class="st0_motorcycle-81" d="M276.6,131.6c0.1-0.7-13.1-3.4-13.1-3.4s-2,1.6,0.5,5S275.2,138.3,276.6,131.6z"/>
	<path class="st0_motorcycle-81" d="M270.8,136.9c-2.8,0-5.9-1.3-7.3-3.2c-2.9-3.9-0.4-6-0.4-6c0.2-0.1,0.4-0.2,0.6-0.1&#xA;&#9;&#9;c13.9,2.9,13.8,3.4,13.6,4.2l0,0c-0.4,2.5-2.3,4.5-4.8,5C271.9,136.9,271.3,136.9,270.8,136.9z M263.8,129&#xA;&#9;&#9;c-0.3,0.5-0.8,1.7,0.8,3.9c1.9,2.1,4.8,3.1,7.6,2.5c1.8-0.3,3.2-1.7,3.6-3.5C274.4,131.4,268.9,130.1,263.8,129L263.8,129z&#xA;&#9;&#9; M276.6,131.6L276.6,131.6z"/>
	<line class="st4_motorcycle-81" x1="263.5" y1="128.2" x2="258.6" y2="127.1"/>
	<path class="st0_motorcycle-81" d="M263.5,128.9c-0.1,0-0.1,0-0.2,0l-4.9-1.1c-0.4-0.1-0.6-0.5-0.5-0.8c0.1-0.4,0.5-0.6,0.8-0.5l4.9,1.1&#xA;&#9;&#9;c0.4,0.1,0.6,0.5,0.5,0.8C264.1,128.7,263.8,128.9,263.5,128.9L263.5,128.9z"/>
	<path class="st1_motorcycle-81" d="M275.1,125.6c1.1-0.6,1.9-1.5,2.3-2.7c0.3-1.2,0-2.5-0.6-3.6c-2.3-4.6-8-6.7-13-6c-2.3,0.2-4.4,1.1-6.3,2.4&#xA;&#9;&#9;c-2.5,1.9-5.7,7.8-1.9,10c1.3,0.7,3.1,0.5,4.5,0.6c2.3,0.1,4.6,0.6,6.9,0.8C269.7,127.2,272.6,127.1,275.1,125.6z"/>
	<path class="st0_motorcycle-81" d="M268.8,127.8c-0.6,0-1.3,0-1.9-0.1c-1.1-0.1-2.3-0.2-3.4-0.4s-2.3-0.3-3.5-0.3c-0.3,0-0.7,0-1,0&#xA;&#9;&#9;c-1.3,0.1-2.6-0.1-3.8-0.7c-1.3-0.7-2.1-2-2.1-3.4c-0.2-3,2.1-6.4,3.9-7.8c1.9-1.4,4.2-2.3,6.6-2.6c5.8-0.7,11.5,1.9,13.8,6.4&#xA;&#9;&#9;c0.7,1.2,0.9,2.7,0.6,4.1c-0.4,1.3-1.4,2.4-2.6,3.1l0,0C273.4,127.4,271.1,127.9,268.8,127.8z M265.6,113.8c-0.6,0-1.2,0-1.8,0.1&#xA;&#9;&#9;c-2.1,0.2-4.2,1-5.9,2.3c-1.5,1.2-3.5,4.2-3.4,6.6c0,1,0.6,1.8,1.4,2.3c1,0.4,2,0.6,3.1,0.5c0.4,0,0.8,0,1.1,0&#xA;&#9;&#9;c1.2,0.1,2.4,0.2,3.6,0.4s2.2,0.3,3.3,0.4c2.3,0.2,5.3,0.2,7.7-1.3c0.9-0.5,1.6-1.3,2-2.3c0.2-1.1,0-2.2-0.5-3.1&#xA;&#9;&#9;C274.3,116.1,270.1,113.8,265.6,113.8L265.6,113.8z M275.1,125.5L275.1,125.5z"/>
	<path class="st1_motorcycle-81" d="M252.1,144l0.3-0.2c4.2-2.4,5.8-8.1,6-12.2c0.2-2.9,1.1-7.5,3.3-9.8c2.6-2.8,16.6,3,16.6,3&#xA;&#9;&#9;c4.5-19.9-25.1-29.4-38.4-18.1c-6.3,5.3-9.4,13.9-8.9,22.1c0.4,6.1,3.5,16.1,10.7,16.6c2.1,0.2,4.3,0.1,6.4-0.2&#xA;&#9;&#9;C249.5,145,250.9,144.6,252.1,144z"/>
	<path class="st0_motorcycle-81" d="M243.9,146.2c-0.7,0-1.4,0-2.1-0.1c-7.6-0.6-11-10.6-11.4-17.3c-0.5-8.8,2.9-17.4,9.1-22.6&#xA;&#9;&#9;c8.4-7.1,22.1-6,30.6-0.8c7.5,4.6,10.8,11.7,9,19.6c0,0.2-0.2,0.4-0.4,0.5c-0.2,0.1-0.4,0.1-0.6,0c-5.6-2.4-14.3-4.9-15.9-3.2&#xA;&#9;&#9;c-1.8,2-2.9,6.1-3.1,9.4c-0.1,2.2-1,9.6-6.4,12.8l-0.3,0.2c-1.3,0.6-2.7,1.1-4.1,1.2C246.8,146.1,245.4,146.2,243.9,146.2z&#xA;&#9;&#9; M254.5,102.6c-5.1-0.2-10.1,1.5-14.1,4.7c-5.8,4.9-9.1,13.2-8.6,21.5c0.4,5.9,3.4,15.5,10.1,16c2.1,0.2,4.2,0.1,6.2-0.2&#xA;&#9;&#9;c1.3-0.2,2.5-0.5,3.7-1.1l0,0l0.3-0.1c4.7-2.8,5.5-9.6,5.7-11.6c0.2-3.2,1.3-7.9,3.5-10.3c2.6-2.8,13.1,1.1,16.6,2.5&#xA;&#9;&#9;c1.3-6.9-1.8-13.2-8.5-17.3C264.8,104,259.7,102.6,254.5,102.6z"/>
	<path class="st2_motorcycle-81" d="M248.4,140.6c-0.3,0-0.5-0.2-0.6-0.4c-0.2-0.5-5.2-12.8,2-23.4c2.6-4,7.3-6,12-5c5.5,0.9,10.7,4.9,11.4,7.5&#xA;&#9;&#9;c0.1,0.4-0.1,0.8-0.5,0.9c0,0,0,0,0,0c-0.4,0.1-0.7-0.1-0.9-0.5c-0.5-1.9-5.2-5.6-10.3-6.5c-4.1-0.9-8.3,0.8-10.6,4.4&#xA;&#9;&#9;c-6.8,10-1.9,21.9-1.8,22c0.1,0.4,0,0.8-0.4,0.9C248.6,140.6,248.5,140.6,248.4,140.6z"/>
	<path class="st0_motorcycle-81" d="M242.1,230.5c-1.4-0.3-50.3-6.7-50.3-6.7s-17.4,31-0.2,37.9c17.2,6.9,78,5.4,78,5.4L259,319.9h22.8&#xA;&#9;&#9;c0,0,21.9-55,15.8-68.9s-59.4-15.5-59.4-15.5L242.1,230.5z"/>
	<path class="st3_motorcycle-81 targetColor" d="M186.8,231.6c0,0,15.3-43.9,26.7-63.6c5.2-9,13.7-17.4,24.6-17.7c4.9-0.1,9,0.6,12.7,3.8&#xA;&#9;&#9;c5,4.3,8.5,10.1,10.1,16.5c3.2,13.5-16.6,59-19.5,66.7L186.8,231.6z" style="fill: rgb(214, 0, 36);"/>
	<path class="st1_motorcycle-81" d="M273.2,210.8c0,0,19.1,0.6,21.9,0.8s8,4.9,7.4,7.4s-7.9-0.2-10-1.2s-20.4,2.2-20.4,2.2L273.2,210.8z"/>
	<path class="st0_motorcycle-81" d="M273.2,210.8c0,0,19.1,0.6,21.9,0.8s8,4.9,7.4,7.4c-0.2,0.8-1,1.1-2.1,1.1c-2.5,0-6.4-1.5-7.9-2.2&#xA;&#9;&#9;c-0.5-0.2-1.1-0.2-1.6-0.2c-5,0-18.8,2.4-18.8,2.4L273.2,210.8 M271.9,209.4l-0.1,1.3l-1.1,9.4l-0.2,1.9l1.9-0.3&#xA;&#9;&#9;c0.1,0,13.6-2.4,18.5-2.4c0.4,0,0.7,0,1.1,0.1c1.5,0.8,5.7,2.4,8.5,2.4c2.5,0,3.2-1.3,3.5-2.1c0.3-1.4-0.1-2.9-1-4&#xA;&#9;&#9;c-1.6-2.3-5-5-7.5-5.2c-2.8-0.3-21.2-0.8-22-0.8L271.9,209.4L271.9,209.4z"/>
	<path class="st1_motorcycle-81" d="M259,319.9c0,0-6,12.5-2.5,13.3s48.5,5.7,45,0.9s-19.7-14.2-19.7-14.2H259z"/>
	<path class="st0_motorcycle-81" d="M292.4,336.9c-13.1,0-34.7-2.7-36-3c-0.6-0.1-1.1-0.5-1.3-1.1c-1.5-3.1,2.9-12.2,3.4-13.2&#xA;&#9;&#9;c0.1-0.2,0.4-0.4,0.6-0.4h22.8c0.1,0,0.2,0,0.4,0.1c0.7,0.4,16.3,9.6,19.9,14.4c0.4,0.5,0.5,1.1,0.1,1.6&#xA;&#9;&#9;C301.5,336.5,297.6,336.9,292.4,336.9z M259.5,320.6c-1.8,3.7-4,9.8-3.2,11.6c0.1,0.2,0.2,0.3,0.4,0.3c4.8,1.1,42.5,4.7,44.3,2&#xA;&#9;&#9;c-3.3-4.4-17.7-12.9-19.4-13.9L259.5,320.6z"/>
	<path class="st3_motorcycle-81 targetColor" d="M245.5,167.7l-2.6,37.8l34.5,1.4l1.4,17.5c0,0-46.9,2.1-56.6-5.9s-3.3-46.9,2-52.4S246.3,155.9,245.5,167.7z" style="fill: rgb(214, 0, 36);"/>
	<path class="st0_motorcycle-81" d="M268.6,207.2L268.6,207.2l-25.7-1c-0.2,0-0.4-0.1-0.5-0.2c-0.1-0.1-0.2-0.3-0.2-0.5l2.3-40.7&#xA;&#9;&#9;c0-0.4,0.3-0.7,0.7-0.7s0.7,0.3,0.7,0.7c0,0,0,0.1,0,0.1l-2.3,40l25,1c0.4,0,0.7,0.3,0.7,0.7c0,0,0,0,0,0&#xA;&#9;&#9;C269.3,207,269,207.3,268.6,207.2z"/>
	<path class="st0_motorcycle-81" d="M251.8,225.4c-12.5,0-26.8-1.2-30.2-6.5c-5.6-8.7-5.3-33.9-5.2-43.4c0-0.9,0-1.6,0-2.2c0-0.4,0.3-0.7,0.7-0.7&#xA;&#9;&#9;c0.4,0,0.7,0.3,0.7,0.7c0,0.5,0,1.3,0,2.2c-0.1,8.5-0.4,34.3,4.9,42.6c2.3,3.6,11.6,5.6,26.6,5.8c11.6,0.1,22.5-0.9,22.6-0.9&#xA;&#9;&#9;c0.4,0,0.7,0.2,0.8,0.6c0,0.4-0.2,0.7-0.6,0.8l0,0C271.3,224.5,262.2,225.4,251.8,225.4z"/>
	<path class="st3_motorcycle-81 targetColor" d="M261.7,155.9c0,0-24.2-12.2-26.4-9c-1.6,2.5-3.1,5.2-4.3,7.9c0,0,24.4,12.2,28.4,8.9&#xA;&#9;&#9;C261.7,161.8,262.6,158.7,261.7,155.9z" style="fill: rgb(214, 0, 36);"/>
</g>
</svg>