<svg version="1.1" id="Layer_1" xmlns="http://www.w3.org/2000/svg" xmlns:xlink="http://www.w3.org/1999/xlink" x="0px" y="0px" viewBox="0 0 500 500" style="width: 166px;" xml:space="preserve" data-imageid="phone-maintenance-14" imageName="Phone Maintenance" class="illustrations_image">
<style type="text/css">
	.st0_phone-maintenance-14{fill:#231F20;}
	.st1_phone-maintenance-14{fill:#FFFFFF;}
	.st2_phone-maintenance-14{fill:#D1D3D4;}
	.st3_phone-maintenance-14{fill:#68E1FD;}
</style>
<g id="Smartphone_phone-maintenance-14">
	<path class="st0_phone-maintenance-14" d="M420.3,139.5c0,0-3.2-6-8.5-14.3c0,0-16.5,12.4-16.4,11.7S420.2,139.5,420.3,139.5L420.3,139.5z"/>
	<path class="st0_phone-maintenance-14" d="M420.3,140.2L420.3,140.2c-8.8-1.1-23-2.9-24.6-2.7c-0.4,0.2-0.5,0.1-0.7,0c-0.2-0.2-0.4-0.5-0.3-0.8&#xA;&#9;&#9;c0-0.2,0.1-0.4,0.5-0.5l0,0c1-0.4,10.4-7.3,16.1-11.6c0.2-0.1,0.4-0.2,0.5-0.1c0.2,0,0.4,0.2,0.5,0.3c5.2,8.2,8.5,14.3,8.5,14.3&#xA;&#9;&#9;c0.1,0.2,0.1,0.5,0,0.7C420.8,140.1,420.5,140.2,420.3,140.2L420.3,140.2z M397.9,136.2c3,0.2,9.1,0.8,21.1,2.4&#xA;&#9;&#9;c-1.2-2.1-3.8-6.7-7.4-12.4C404.1,131.8,400.1,134.7,397.9,136.2L397.9,136.2z"/>
	<polygon class="st0_phone-maintenance-14" points="201,389.1 192.7,375.4 204.2,365 &#9;"/>
	<path class="st0_phone-maintenance-14" d="M201,389.8c-0.2,0-0.5-0.1-0.6-0.3l-8.3-13.8c-0.2-0.3-0.1-0.7,0.1-0.9l11.4-10.3c0.3-0.3,0.7-0.2,1,0&#xA;&#9;&#9;c0.1,0.2,0.2,0.4,0.2,0.6l-3.2,24.1c0,0.3-0.3,0.5-0.6,0.6L201,389.8L201,389.8z M193.6,375.5l6.9,11.6l2.7-20.2L193.6,375.5z"/>
	<path class="st0_phone-maintenance-14" d="M206.4,392l133,19c5.6,0.7,11-2.7,12.6-8.2l68.8-257.5c1.4-5.3-2-10-7.6-10.5l-135.6-10.9&#xA;&#9;&#9;c-5.5-0.3-10.5,3.3-12.1,8.6l-66,248.9c-1.3,4.4,1.2,9,5.6,10.3C205.4,391.9,205.9,392,206.4,392L206.4,392z"/>
	<path class="st0_phone-maintenance-14" d="M340.8,411.8c-0.5,0-1.1,0-1.6-0.1l-133-19l0,0c-2.6-0.3-4.9-1.8-6.4-3.9c-1.5-2.2-1.9-5-1.1-7.6l66-248.9&#xA;&#9;&#9;c1.7-5.6,7-9.4,12.8-9.1l135.6,10.9c2.8,0.1,5.4,1.5,7.1,3.8c1.5,2.2,2,5,1.2,7.6L352.6,403C351,408.2,346.3,411.8,340.8,411.8&#xA;&#9;&#9;L340.8,411.8z M206.5,391.4l133,19c5.3,0.7,10.3-2.6,11.8-7.6l68.8-257.5c0.6-2.2,0.3-4.5-1-6.4c-1.4-1.9-3.6-3.1-6-3.2&#xA;&#9;&#9;l-135.7-10.9c-5.2-0.3-9.9,3-11.3,8l-66,248.9c-0.6,2.2-0.3,4.5,0.9,6.5C202.2,389.8,204.2,391,206.5,391.4L206.5,391.4z"/>
	<path class="st1_phone-maintenance-14" d="M197.7,377.8l133,19c5.6,0.7,11-2.7,12.6-8.2l68.8-257.5c1.4-5.3-2-10-7.6-10.5l-135.6-10.9&#xA;&#9;&#9;c-5.5-0.3-10.5,3.3-12.1,8.6l-66,248.9c-1.3,4.4,1.2,9,5.5,10.3C196.8,377.7,197.2,377.8,197.7,377.8L197.7,377.8z"/>
	<path class="st0_phone-maintenance-14" d="M332.2,397.6c-0.5,0-1.1,0-1.6-0.1l-133-19l0,0c-2.6-0.3-4.9-1.8-6.4-3.9c-1.5-2.2-1.9-5-1.1-7.6l66-248.9&#xA;&#9;&#9;c1.7-5.6,7-9.4,12.8-9.1l135.6,11c2.8,0.1,5.4,1.5,7.1,3.8c1.5,2.2,2,5,1.2,7.6L344,388.8C342.4,394,337.7,397.6,332.2,397.6&#xA;&#9;&#9;L332.2,397.6z M268,110.4c-4.9,0.1-9.2,3.4-10.6,8.1l-66,248.9c-0.6,2.2-0.3,4.5,0.9,6.4c1.2,1.8,3.2,3,5.4,3.3l0,0l133,19&#xA;&#9;&#9;c5.3,0.7,10.3-2.6,11.8-7.6L411.4,131c0.6-2.2,0.3-4.5-1-6.4c-1.4-1.9-3.6-3.1-6-3.2l-135.6-10.9&#xA;&#9;&#9;C268.5,110.4,268.3,110.4,268,110.4L268,110.4z"/>
	<polygon class="st2_phone-maintenance-14" points="398.9,148.1 260.1,136.1 206.8,336.9 343.6,355.1 &#9;"/>
	<path class="st1_phone-maintenance-14" d="M252.7,376.3l26,3.6c3.4,0.4,6.6-1.7,7.6-5l2.6-9.7c0.8-2.8-0.8-5.7-3.5-6.5c-0.3-0.1-0.6-0.2-0.9-0.2l-26-3.5&#xA;&#9;&#9;c-3.4-0.4-6.5,1.7-7.5,5l-2.6,9.6c-0.8,2.7,0.7,5.6,3.5,6.4C252.1,376.3,252.4,376.3,252.7,376.3L252.7,376.3z"/>
	<path class="st2_phone-maintenance-14" d="M279.5,380.8c-0.3,0-0.7,0-1-0.1l-25.9-3.7l0,0c-3.2-0.4-5.6-3.2-5.2-6.5c0-0.3,0.1-0.7,0.2-1l2.6-9.6&#xA;&#9;&#9;c1-3.6,4.5-5.9,8.2-5.5l26,3.5c1.7,0.2,3.3,1.2,4.3,2.6c0.9,1.5,1.2,3.2,0.8,4.9l-2.6,9.7C285.9,378.4,282.9,380.7,279.5,380.8&#xA;&#9;&#9;L279.5,380.8z M252.8,375.6l25.9,3.6c3.1,0.4,5.9-1.5,6.8-4.5l2.6-9.7c0.4-1.3,0.2-2.7-0.6-3.8c-0.8-1.1-2-1.9-3.3-2l-26-3.5&#xA;&#9;&#9;c-3-0.3-5.9,1.5-6.7,4.5l-2.6,9.6c-0.7,2.4,0.6,4.9,3,5.6C252.2,375.6,252.5,375.6,252.8,375.6L252.8,375.6L252.8,375.6z"/>
	<path class="st2_phone-maintenance-14" d="M357.9,130.8L357.9,130.8l-39.7-3.3c-0.4,0-0.7-0.4-0.6-0.8c0,0,0,0,0,0c0-0.4,0.4-0.7,0.7-0.6c0,0,0,0,0,0&#xA;&#9;&#9;l39.7,3.3c0.4,0,0.7,0.3,0.7,0.7C358.6,130.5,358.3,130.8,357.9,130.8L357.9,130.8z"/>
	<path class="st2_phone-maintenance-14" d="M312.7,127.1L312.7,127.1l-5.3-0.4c-0.4,0-0.7-0.4-0.6-0.8c0,0,0,0,0,0c0-0.4,0.4-0.7,0.7-0.6c0,0,0,0,0,0&#xA;&#9;&#9;l5.2,0.4c0.4,0,0.7,0.3,0.7,0.7C313.4,126.8,313.1,127.1,312.7,127.1L312.7,127.1z"/>
	<path class="st1_phone-maintenance-14" d="M349.3,244.9c-0.2,0-0.4-0.1-0.6-0.3l-62.8-91.7c-0.2-0.3-0.2-0.7,0.1-1c0,0,0,0,0,0c0.3-0.2,0.7-0.2,1,0.1&#xA;&#9;&#9;c0,0,0,0,0,0l62.8,91.7c0.2,0.3,0.2,0.7-0.1,1c0,0,0,0,0,0C349.6,244.9,349.4,244.9,349.3,244.9L349.3,244.9z"/>
	<path class="st1_phone-maintenance-14" d="M298.3,322.5c-0.2,0-0.4-0.1-0.6-0.3l-37.9-54.3c-0.3-0.3-0.2-0.7,0.1-1c0.3-0.3,0.7-0.2,1,0.1&#xA;&#9;&#9;c0,0,0.1,0.1,0.1,0.1l37.9,54.3c0.2,0.3,0.2,0.7-0.1,1c0,0,0,0,0,0C298.5,322.5,298.4,322.5,298.3,322.5L298.3,322.5z"/>
	<path class="st1_phone-maintenance-14" d="M308.6,271.1c-0.2,0-0.5-0.1-0.6-0.3l-14.8-22c-0.2-0.3-0.2-0.7,0.1-1c0.3-0.2,0.7-0.2,1,0.1c0,0,0,0,0,0.1&#xA;&#9;&#9;l14.8,22c0.2,0.3,0.2,0.7-0.1,1c0,0,0,0-0.1,0C308.9,271,308.8,271.1,308.6,271.1z"/>
</g>
<g id="Gear_phone-maintenance-14">
	<path class="st3_phone-maintenance-14 targetColor" d="M305.2,304.8c1.2-3.5,2.4-7,3.6-10.4c0.6-1.8,1.4-3.6,2.1-5.3c0.8-2.3,3.1-3.7,5.5-3.4&#xA;&#9;&#9;c2.8,0.3,5.6,0.9,8.4,1.4c1.5,0.3,3,0.5,4.5,0.6c1.1,0,2.2-0.3,3.1-1c3.2-3.1,6.3-6.3,9.4-9.5c1.1-1.2,1.4-2.9,1-4.5&#xA;&#9;&#9;c-0.7-3.4-1.5-6.8-2.2-10.2c-0.3-1.3-0.4-2.7-0.4-4c0.1-1,0.6-1.9,1.3-2.6c5.2-3.4,10.9-6,16.8-7.7c1.8-0.6,3.8,0.1,4.8,1.7&#xA;&#9;&#9;c2.1,2.9,4.4,5.8,6.5,8.8c1.4,2.3,4,3.6,6.6,3.4c3.7-0.3,7.5-0.3,11.2-0.5c1.4-0.1,2.6-0.8,3.4-2c1.3-2,2.6-4,3.9-6&#xA;&#9;&#9;c1.1-1.7,2.2-3.4,3.4-5.1c1.1-1.8,3.2-2.5,5.1-1.8c5.2,1.8,10.3,3.6,15.4,5.6c2,0.8,3.2,2.9,2.8,5c-0.3,2.9-0.9,5.7-1.4,8.5&#xA;&#9;&#9;c-0.2,1.3-0.4,2.7-0.5,4c-0.2,1.8,0.4,3.5,1.7,4.7c2.7,2.6,5.5,5.1,8.1,7.8c1.5,1.6,3.8,2.3,6,1.7c3.7-0.8,7.4-1.7,11-2.5&#xA;&#9;&#9;c2.9-0.6,4.9,0.3,6.2,2.9c2.1,4.4,4.1,8.8,6.1,13.3c1.4,3.2,0.9,5.1-1.9,7.4c-1.9,1.5-3.9,2.8-5.9,4.2c-1.4,1-2.8,2.1-4.1,3.2&#xA;&#9;&#9;c-1.1,0.9-1.7,2.3-1.7,3.8c0.1,3.9,0.1,7.7,0.3,11.6c0.1,2.1,1.2,4.1,3.1,5.1c2.1,1.3,4.2,2.5,6.3,3.8c1.3,0.8,2.6,1.6,3.8,2.5&#xA;&#9;&#9;c1.8,1.2,2.5,3.5,1.7,5.5c-1.7,4.7-3.4,9.3-5.2,13.9c-0.3,0.7-0.7,1.4-1.1,2c-0.9,1.5-2.6,2.3-4.3,2l-10-1.7&#xA;&#9;&#9;c-0.2,0-0.5-0.1-0.8-0.1c-2.9-0.8-5.9,0.3-7.7,2.7c-1.9,2.2-4,4.2-6.1,6.4c-1.9,1.9-2.6,4.7-1.9,7.3c0.8,3.2,1.6,6.5,2.3,9.8&#xA;&#9;&#9;c0.7,3.5,0,5-3.1,6.5c-4.5,2.2-9.1,4.2-13.8,6.2c-2.5,1.1-4.4,0.6-6.1-1.6s-3.4-4.6-5.1-7c-3.6-5-4.5-5.5-10.7-5.2&#xA;&#9;&#9;c-2.4,0.1-4.8,0.3-7.2,0.4c-2.3,0-4.5,1.3-5.7,3.3c-1.5,2.4-2.9,4.9-4.4,7.3c-0.8,1.2-1.8,2.4-2.8,3.5c-0.9,1.1-2.5,1.5-3.8,1&#xA;&#9;&#9;c-4.9-1.8-9.8-3.6-14.6-5.5c-0.7-0.3-1.3-0.7-1.9-1.1c-1.5-0.9-2.4-2.6-2.1-4.3c0.5-3.3,1.1-6.6,1.6-9.9c0.2-1,0.2-2,0.3-3&#xA;&#9;&#9;c0.2-1.7-0.4-3.3-1.7-4.5c-2.7-2.4-5.3-4.9-7.9-7.4c-1.5-1.5-3.7-2-5.8-1.4c-3.2,0.8-6.5,1.5-9.8,2.3l-0.4,0.1&#xA;&#9;&#9;c-4.3,0.8-5.6,0.2-7.5-3.7c-2.1-4.4-3.9-8.8-5.8-13.3c-1.1-2.7-0.6-4.3,1.8-6.1c2.6-2,5.2-3.9,8-5.7c2.7-1.6,4.3-4.6,3.9-7.7&#xA;&#9;&#9;c-0.2-3.5-0.3-7-0.5-10.4c0-1.5-0.8-2.8-2-3.6c-2.9-1.9-5.8-3.7-8.7-5.5c-1.9-1.2-3.8-2.5-4.6-4.8L305.2,304.8L305.2,304.8z&#xA;&#9;&#9; M415.8,324.2c0-18.2-14.8-33-33-33c-0.1,0-0.2,0-0.2,0c-15.2-0.1-32.5,13.2-32.5,33c0.1,18.1,14.7,32.7,32.7,32.9&#xA;&#9;&#9;C403.9,357.1,416.6,338.7,415.8,324.2L415.8,324.2z" style="fill: rgb(214, 0, 36);"/>
	<path class="st0_phone-maintenance-14" d="M364,402.5c-0.5,0-1-0.1-1.5-0.3l-4-1.5c-3.5-1.3-7.1-2.7-10.6-4c-0.6-0.3-1.2-0.6-1.8-1l-0.2-0.2&#xA;&#9;&#9;c-1.8-1-2.7-3-2.4-5c0.2-1.5,0.5-2.9,0.7-4.4c0.3-1.8,0.6-3.7,0.9-5.5c0.2-1,0.2-2,0.3-3c0.2-1.5-0.4-2.9-1.5-3.9&#xA;&#9;&#9;c-2.4-2.1-4.7-4.3-7-6.5l-0.9-0.9c-1.3-1.3-3.3-1.8-5.1-1.2c-2.3,0.6-4.6,1.1-6.9,1.6l-2.9,0.7l-0.4,0.1c-4.7,0.9-6.3,0-8.3-4.1&#xA;&#9;&#9;c-1.8-3.8-3.6-7.9-5.8-13.3c-1.2-3-0.7-4.9,2-6.9c3-2.3,5.6-4.1,8-5.7c2.5-1.4,3.9-4.2,3.6-7.1c-0.1-2.2-0.2-4.3-0.3-6.5&#xA;&#9;&#9;c-0.1-1.3-0.1-2.6-0.2-3.9c0-1.3-0.6-2.4-1.7-3.1l-3.6-2.3c-1.7-1.1-3.4-2.1-5.1-3.2c-2-1.3-4-2.6-4.9-5.1c0-0.1,0-0.1,0-0.2v-1.3&#xA;&#9;&#9;c0-0.1,0-0.2,0-0.2l1-3c0.8-2.5,1.7-5,2.5-7.4c0.7-1.9,1.4-3.7,2.1-5.4c0.9-2.6,3.5-4.2,6.2-3.8c1.9,0.2,3.8,0.5,5.6,0.9&#xA;&#9;&#9;c1,0.2,1.9,0.3,2.9,0.5l1.1,0.2c1.1,0.2,2.2,0.4,3.3,0.4c1,0,1.9-0.3,2.7-0.8c3.4-3.3,6.6-6.6,9.3-9.5c0.9-1.1,1.2-2.5,0.8-3.8&#xA;&#9;&#9;c-0.3-1.5-0.7-3-1-4.5c-0.4-1.9-0.9-3.8-1.2-5.7c-0.3-1.4-0.5-2.8-0.4-4.2c0.1-1.2,0.7-2.3,1.6-3.1c5.2-3.4,11-6,17-7.8&#xA;&#9;&#9;c2.1-0.7,4.4,0.2,5.5,2c0.8,1,1.5,2.1,2.3,3.1c1.4,1.9,2.8,3.8,4.2,5.7c1.2,2.1,3.6,3.3,6,3c2.4-0.2,4.9-0.3,7.3-0.4l3.9-0.2&#xA;&#9;&#9;c1.2-0.1,2.2-0.7,2.8-1.7c0.8-1.2,1.5-2.3,2.3-3.5c0.5-0.8,1-1.6,1.6-2.4l0.6-0.9c0.9-1.4,1.9-2.8,2.9-4.2c1.3-2,3.7-2.8,5.9-2&#xA;&#9;&#9;c6.2,2.1,11,3.9,15.4,5.6c2.3,0.9,3.6,3.3,3.2,5.7c-0.2,1.9-0.5,3.8-0.9,5.7c-0.2,1-0.4,1.9-0.5,2.9c-0.2,1.3-0.4,2.6-0.5,4&#xA;&#9;&#9;c-0.2,1.5,0.4,3.1,1.5,4.2l1.9,1.8c2.1,1.9,4.2,3.9,6.2,6c1.4,1.5,3.5,2.1,5.4,1.5c1.8-0.4,3.6-0.8,5.4-1.2&#xA;&#9;&#9;c1.9-0.4,3.8-0.9,5.7-1.3c3.3-0.7,5.5,0.4,7,3.3c2.1,4.4,4.1,8.9,6.1,13.3c1.5,3.5,1,5.8-2.1,8.2c-1.1,0.9-2.3,1.7-3.5,2.5&#xA;&#9;&#9;c-0.8,0.6-1.6,1.1-2.4,1.7c-1.5,1.1-2.8,2.1-4,3.2c-1,0.8-1.5,2-1.5,3.3v2.4c0.1,3,0.1,6.1,0.3,9.2c0,1.9,1.1,3.6,2.8,4.6&#xA;&#9;&#9;c0.9,0.5,1.8,1.1,2.7,1.6c1.2,0.7,2.5,1.4,3.7,2.2c1.3,0.8,2.6,1.7,3.9,2.6c2,1.4,2.9,4,1.9,6.3c-1.6,4.4-3.3,8.9-5.2,13.9&#xA;&#9;&#9;c-0.3,0.7-0.7,1.3-1.1,2l-0.1,0.2c-1,1.7-3,2.7-5,2.3l-6.8-1.1l-3.5-0.6c-0.2,0-0.4-0.1-0.5-0.1c-2.6-0.7-5.4,0.3-7,2.5&#xA;&#9;&#9;c-1.3,1.6-2.8,3.1-4.2,4.5c-0.6,0.6-1.2,1.2-1.8,1.9c-1.8,1.7-2.4,4.3-1.7,6.6c0.8,3.1,1.6,6.5,2.3,9.8c0.8,3.8-0.1,5.6-3.5,7.3&#xA;&#9;&#9;c-4.1,2-8.7,4-13.8,6.2c-2.8,1.2-5,0.6-6.9-1.8c-1.5-1.9-2.9-3.8-4.2-5.7l-0.9-1.3c-3.5-4.9-4.1-5.2-10.1-4.9l-4.1,0.2l-3.1,0.2&#xA;&#9;&#9;c-2.1,0-4.1,1.2-5.1,3l-1.5,2.4c-1,1.6-1.9,3.3-3,4.9c-0.8,1.3-1.8,2.5-2.9,3.6C366.3,402,365.2,402.5,364,402.5L364,402.5z&#xA;&#9;&#9; M332.6,363.6c1.7,0,3.3,0.7,4.5,1.8l0.9,0.9c2.3,2.2,4.6,4.4,7,6.5c1.4,1.3,2.1,3.1,1.9,5c0,1-0.2,2.1-0.3,3.1&#xA;&#9;&#9;c-0.3,1.8-0.6,3.7-0.9,5.5l-0.7,4.4c-0.3,1.5,0.4,2.9,1.8,3.6l0.3,0.2c0.5,0.3,1,0.6,1.5,0.8c3.5,1.3,7.1,2.6,10.6,4l4,1.5&#xA;&#9;&#9;c1.1,0.4,2.3,0.1,3.1-0.8c1-1,1.9-2.1,2.7-3.4c1-1.6,2-3.2,2.9-4.8c0.5-0.8,1-1.6,1.5-2.5c1.3-2.2,3.7-3.6,6.2-3.6l3.1-0.2l4.1-0.2&#xA;&#9;&#9;c6.4-0.3,7.6,0.2,11.3,5.5l0.9,1.3c1.3,1.9,2.7,3.9,4.2,5.7s3.1,2.3,5.3,1.4c5.1-2.2,9.6-4.2,13.8-6.2c2.8-1.4,3.4-2.5,2.8-5.7&#xA;&#9;&#9;s-1.5-6.6-2.3-9.8c-0.8-2.8-0.1-5.9,2-7.9l1.9-1.9c1.4-1.4,2.9-2.9,4.2-4.4c1.9-2.6,5.2-3.8,8.4-2.9l0.4,0.1h0.3l3.2,0.5l6.8,1.1&#xA;&#9;&#9;c1.5,0.3,2.9-0.4,3.6-1.7l0.1-0.2c0.4-0.5,0.7-1.1,1-1.7c1.9-5,3.6-9.6,5.2-13.9c0.7-1.7,0.1-3.7-1.5-4.7c-1.2-0.9-2.4-1.7-3.7-2.5&#xA;&#9;&#9;c-1.2-0.7-2.4-1.5-3.6-2.2c-0.9-0.5-1.8-1-2.7-1.6c-2.1-1.2-3.4-3.3-3.4-5.7c-0.1-3.1-0.2-6.2-0.3-9.2l0-2.4c0-1.7,0.7-3.3,2-4.4&#xA;&#9;&#9;c1.3-1.1,2.6-2.2,4.1-3.3c0.8-0.6,1.6-1.2,2.5-1.7c1.1-0.8,2.3-1.6,3.4-2.5c2.6-2,3-3.6,1.7-6.5c-1.9-4.4-4-8.9-6.1-13.3&#xA;&#9;&#9;c-1.1-2.3-2.8-3.1-5.4-2.6c-1.9,0.4-3.8,0.8-5.6,1.3c-1.8,0.4-3.6,0.8-5.4,1.2c-2.4,0.7-5-0.1-6.7-1.9c-2-2-4.1-4-6.2-5.9l-1.9-1.8&#xA;&#9;&#9;c-1.5-1.4-2.2-3.3-1.9-5.3c0.1-1.4,0.3-2.8,0.5-4.1c0.2-1,0.3-1.9,0.5-2.9c0.3-1.8,0.7-3.7,0.9-5.6c0.3-1.8-0.7-3.6-2.3-4.3&#xA;&#9;&#9;c-4.4-1.7-9.2-3.4-15.4-5.6c-1.6-0.6-3.4,0-4.3,1.5c-1,1.4-1.9,2.8-2.8,4.2l-0.6,0.9c-0.5,0.8-1,1.6-1.6,2.4&#xA;&#9;&#9;c-0.8,1.2-1.5,2.4-2.3,3.5c-0.8,1.4-2.3,2.2-3.9,2.3l-4,0.2c-2.4,0.1-4.8,0.2-7.2,0.4c-2.9,0.3-5.8-1.1-7.3-3.6&#xA;&#9;&#9;c-1.3-1.9-2.8-3.8-4.1-5.7c-0.8-1-1.6-2.1-2.3-3.1c-0.9-1.4-2.5-2-4.1-1.5c-5.9,1.7-11.5,4.2-16.6,7.6c-0.6,0.5-0.9,1.3-1,2&#xA;&#9;&#9;c-0.1,1.3,0.1,2.6,0.4,3.8c0.4,1.9,0.8,3.8,1.2,5.6c0.3,1.5,0.7,3,1,4.5c0.5,1.8,0.1,3.7-1.1,5.1c-2.7,2.9-5.9,6.3-9.4,9.6&#xA;&#9;&#9;c-1,0.8-2.3,1.2-3.6,1.2c-1.2,0-2.4-0.2-3.6-0.4l-1.1-0.2c-1-0.1-1.9-0.3-2.9-0.5c-1.8-0.3-3.7-0.7-5.5-0.9c-2.1-0.3-4.1,1-4.8,3&#xA;&#9;&#9;c-0.7,1.7-1.4,3.5-2.1,5.3c-0.9,2.5-1.7,4.9-2.5,7.4l-1,2.9v1c0.7,2,2.4,3.1,4.2,4.2s3.4,2.2,5.1,3.3l3.6,2.3&#xA;&#9;&#9;c1.4,0.9,2.3,2.5,2.4,4.2c0.1,1.3,0.1,2.6,0.2,4c0.1,2.2,0.2,4.3,0.3,6.5c0.4,3.4-1.3,6.6-4.2,8.3c-2.4,1.6-5,3.4-8,5.6&#xA;&#9;&#9;c-2.2,1.6-2.5,2.9-1.5,5.3c2.2,5.4,4,9.5,5.7,13.3c1.7,3.6,2.7,4.1,6.7,3.3l3.3-0.8c2.3-0.5,4.6-1,6.8-1.6&#xA;&#9;&#9;C331.2,363.7,331.9,363.6,332.6,363.6L332.6,363.6z M382.9,357.8L382.9,357.8c-18.6,0-33.5-15-33.5-33.5c0-8.9,3.6-17.4,9.9-23.7&#xA;&#9;&#9;c6.3-6.3,15-10.1,23.1-10.1h0.1c19,0.1,33.9,14.9,33.9,33.7c0.5,7.9-2.9,16.6-9,23.1C401.1,354,392.2,357.8,382.9,357.8&#xA;&#9;&#9;L382.9,357.8z M382.4,291.8c-7.8,0-16.1,3.6-22.2,9.7c-6.1,6-9.5,14.2-9.5,22.7c0,17.7,14.3,32.1,32,32.2h0.1&#xA;&#9;&#9;c8.9,0.1,17.5-3.6,23.6-10.1c5.9-6.2,9.1-14.5,8.6-22.1l0,0c0-18-14.3-32.2-32.5-32.3L382.4,291.8L382.4,291.8z"/>
	<path class="st3_phone-maintenance-14 targetColor" d="M335.5,195c0.6-1.7,1.2-3.5,1.8-5.2c0.3-0.9,0.7-1.8,1-2.7c0.4-1.1,1.6-1.9,2.8-1.7c1.4,0.2,2.8,0.5,4.2,0.7&#xA;&#9;&#9;c0.7,0.2,1.5,0.3,2.3,0.3c0.6,0,1.1-0.2,1.6-0.5c1.6-1.5,3.2-3.1,4.7-4.8c0.5-0.6,0.7-1.4,0.5-2.2c-0.4-1.7-0.8-3.4-1.1-5.1&#xA;&#9;&#9;c-0.2-0.7-0.2-1.3-0.2-2c0-0.5,0.3-1,0.7-1.3c2.6-1.7,5.4-3,8.4-3.8c0.9-0.3,1.9,0.1,2.4,0.9c1.1,1.5,2.2,2.9,3.2,4.4&#xA;&#9;&#9;c0.7,1.2,2,1.8,3.3,1.7c1.9-0.1,3.7-0.2,5.6-0.3c0.7,0,1.3-0.4,1.7-1c0.7-1,1.3-2,1.9-3s1.1-1.7,1.7-2.5c0.5-0.9,1.6-1.2,2.6-0.9&#xA;&#9;&#9;c2.6,0.9,5.1,1.8,7.7,2.8c1,0.4,1.6,1.4,1.4,2.5c-0.1,1.4-0.5,2.8-0.7,4.3c-0.1,0.7-0.2,1.3-0.3,2c-0.1,0.9,0.2,1.8,0.9,2.4&#xA;&#9;&#9;c1.4,1.3,2.7,2.6,4,3.9c0.8,0.8,1.9,1.2,3,0.9c1.8-0.4,3.7-0.9,5.5-1.2c1.3-0.4,2.6,0.2,3.1,1.5c1,2.2,2.1,4.4,3,6.6&#xA;&#9;&#9;c0.7,1.6,0.5,2.6-1,3.7c-1,0.8-2,1.4-2.9,2.1c-0.7,0.5-1.4,1.1-2,1.6c-0.6,0.5-0.9,1.2-0.9,1.9c0,1.9,0.1,3.9,0.2,5.8&#xA;&#9;&#9;c0,1.1,0.6,2.1,1.6,2.6c1,0.6,2.1,1.2,3.2,1.9c0.7,0.4,1.3,0.8,1.9,1.3c0.9,0.6,1.3,1.8,0.9,2.8c-0.9,2.3-1.7,4.6-2.6,7&#xA;&#9;&#9;c-0.2,0.4-0.3,0.7-0.6,1c-0.4,0.8-1.3,1.2-2.2,1l-5-0.8l-0.4-0.1c-1.4-0.4-3,0.1-3.8,1.3c-0.9,1.1-2,2.1-3,3.2&#xA;&#9;&#9;c-1,0.9-1.3,2.3-0.9,3.6c0.4,1.6,0.8,3.2,1.1,4.9s0,2.5-1.6,3.2c-2.3,1.1-4.6,2.1-6.9,3.1c-1.1,0.6-2.4,0.2-3-0.8&#xA;&#9;&#9;c-0.9-1.1-1.7-2.3-2.5-3.5c-1.8-2.5-2.2-2.8-5.4-2.6c-1.2,0.1-2.4,0.1-3.6,0.2c-1.2,0-2.3,0.6-2.8,1.7c-0.7,1.2-1.4,2.4-2.2,3.6&#xA;&#9;&#9;c-0.4,0.6-0.9,1.2-1.4,1.7c-0.5,0.6-1.2,0.8-1.9,0.5c-2.4-0.9-4.9-1.8-7.3-2.7c-0.3-0.1-0.6-0.3-0.9-0.5c-0.8-0.4-1.2-1.3-1-2.2&#xA;&#9;&#9;c0.3-1.6,0.5-3.3,0.8-5c0.1-0.5,0.1-1,0.1-1.5c0.1-0.8-0.2-1.7-0.8-2.2c-1.3-1.2-2.6-2.4-4-3.7c-0.8-0.7-1.9-1-2.9-0.7&#xA;&#9;&#9;c-1.6,0.4-3.3,0.8-4.9,1.1h-0.2c-2.1,0.4-2.8,0.1-3.8-1.9c-1-2.2-2-4.4-2.9-6.6c-0.6-1-0.3-2.4,0.8-3c0,0,0.1,0,0.1-0.1&#xA;&#9;&#9;c1.3-1,2.6-1.9,4-2.8c1.4-0.8,2.2-2.3,2-3.9c-0.1-1.7-0.2-3.5-0.2-5.2c0-0.7-0.4-1.4-1-1.8c-1.5-0.9-2.9-1.8-4.3-2.8&#xA;&#9;&#9;c-1-0.5-1.8-1.3-2.3-2.4L335.5,195L335.5,195z M390.7,204.7c0-9.1-7.3-16.5-16.4-16.5c-0.1,0-0.1,0-0.2,0&#xA;&#9;&#9;c-9,0.3-16.1,7.6-16.2,16.5c0,9,7.3,16.3,16.4,16.4C384.8,221.2,391.2,212,390.7,204.7L390.7,204.7z" style="fill: rgb(214, 0, 36);"/>
	<path class="st0_phone-maintenance-14" d="M364.8,244.2c-0.3,0-0.6-0.1-0.9-0.2l-1.9-0.7l-5.4-2c-0.3-0.1-0.6-0.3-0.9-0.5l-0.1-0.1&#xA;&#9;&#9;c-1-0.6-1.5-1.7-1.3-2.9l0.4-2.2c0.1-0.9,0.3-1.9,0.5-2.8c0.1-0.5,0.1-1,0.1-1.4c0.1-0.6-0.1-1.3-0.6-1.7c-1.2-1.1-2.4-2.2-3.5-3.3&#xA;&#9;&#9;l-0.4-0.4c-0.6-0.6-1.4-0.8-2.2-0.5c-1.1,0.3-2.3,0.5-3.4,0.8l-1.7,0.4c-2.5,0.4-3.5,0-4.5-2.2c-1.1-2.4-2.1-4.8-2.9-6.7&#xA;&#9;&#9;c-0.7-1.4-0.2-3.1,1.2-3.9c1.5-1.2,2.8-2.1,4-2.9c1.1-0.6,1.8-1.9,1.6-3.2c-0.1-1.1-0.1-2.2-0.2-3.2l-0.1-2c0-0.5-0.3-1-0.7-1.3&#xA;&#9;&#9;l-1.8-1.1l-2.5-1.6c-1.2-0.6-2.1-1.6-2.6-2.8c0-0.1,0-0.1,0-0.2V195c0-0.1,0-0.2,0-0.2l0.5-1.5c0.4-1.2,0.8-2.5,1.3-3.7&#xA;&#9;&#9;c0.3-0.9,0.7-1.8,1.1-2.7c0.5-1.4,2-2.3,3.5-2.1c1,0.1,1.9,0.3,2.8,0.4l1.4,0.2l0.6,0.1c0.5,0.1,1,0.2,1.6,0.2&#xA;&#9;&#9;c0.4,0,0.8-0.1,1.1-0.3c1.7-1.6,3.3-3.3,4.6-4.7c0.4-0.4,0.5-1.1,0.3-1.6c-0.2-0.8-0.3-1.5-0.5-2.2c-0.2-1-0.4-1.9-0.6-2.8&#xA;&#9;&#9;c-0.2-0.7-0.2-1.5-0.2-2.2c0.1-0.7,0.4-1.4,1-1.8c2.7-1.7,5.6-3.1,8.6-3.9c1.2-0.4,2.5,0.1,3.1,1.1l1.2,1.6c0.7,1,1.4,1.9,2.1,2.9&#xA;&#9;&#9;c0.5,1,1.6,1.5,2.7,1.4c1.2-0.1,2.4-0.1,3.6-0.2l2-0.1c0.5,0,0.9-0.3,1.1-0.7c0.4-0.6,0.8-1.2,1.1-1.8l0.8-1.2l0.3-0.4&#xA;&#9;&#9;c0.5-0.7,0.9-1.4,1.4-2.1c0.7-1.1,2.1-1.6,3.4-1.1c3,1,5.5,1.9,7.7,2.8c1.3,0.5,2,1.8,1.8,3.2c-0.1,1-0.3,1.9-0.4,2.9&#xA;&#9;&#9;c-0.1,0.5-0.2,0.9-0.2,1.4c-0.1,0.6-0.2,1.3-0.2,2c-0.1,0.7,0.1,1.3,0.6,1.8l0.9,0.9c1,1,2.1,2,3.1,3c0.6,0.7,1.5,0.9,2.4,0.7&#xA;&#9;&#9;l2.7-0.6l2.8-0.6c1.6-0.5,3.3,0.3,3.9,1.9c1,2.2,2.1,4.4,3,6.7c0.8,1.9,0.5,3.2-1.2,4.5c-0.6,0.4-1.2,0.9-1.8,1.3&#xA;&#9;&#9;c-0.4,0.3-0.8,0.6-1.2,0.9c-0.7,0.5-1.4,1.1-2,1.6c-0.4,0.3-0.6,0.8-0.6,1.4v1.2c0,1.5,0.1,3.1,0.1,4.6c0,0.8,0.5,1.6,1.2,2&#xA;&#9;&#9;c0.4,0.3,0.9,0.5,1.3,0.8l1.8,1.1c0.7,0.4,1.4,0.8,2,1.3c1.1,0.8,1.6,2.3,1.1,3.6c-0.9,2.3-1.7,4.7-2.6,7c-0.2,0.4-0.4,0.7-0.6,1.1&#xA;&#9;&#9;c-0.6,1-1.7,1.6-2.9,1.4l-5-0.8l-0.4-0.1c-1.2-0.3-2.4,0.1-3.1,1.1c-0.7,0.8-1.4,1.6-2.1,2.3c-0.3,0.3-0.6,0.6-0.9,0.9&#xA;&#9;&#9;c-0.8,0.8-1.1,1.9-0.8,3c0.4,1.6,0.8,3.2,1.1,4.9c0.4,2.1-0.1,3.1-2,4c-2.1,1-4.3,2-6.9,3.1c-1.4,0.7-3,0.3-3.9-1&#xA;&#9;&#9;c-0.8-0.9-1.5-1.9-2.1-2.9l-0.5-0.6c-1.7-2.3-1.9-2.4-4.7-2.3l-2,0.1l-1.6,0.1c-0.9,0-1.8,0.5-2.3,1.3c-0.2,0.4-0.5,0.8-0.7,1.2&#xA;&#9;&#9;c-0.5,0.8-1,1.6-1.5,2.4c-0.4,0.7-0.9,1.3-1.5,1.8C366.2,244,365.5,244.3,364.8,244.2L364.8,244.2z M349.1,224.1&#xA;&#9;&#9;c0.9,0,1.8,0.4,2.5,1l0.4,0.4c1.2,1.1,2.3,2.2,3.5,3.3c0.8,0.7,1.2,1.7,1.1,2.8c0,0.5-0.1,1.1-0.2,1.6l-0.5,2.8l-0.4,2.2&#xA;&#9;&#9;c-0.1,0.6,0.2,1.2,0.7,1.5l0.1,0.1c0.2,0.2,0.4,0.3,0.7,0.4l5.4,2l1.9,0.7c0.4,0.2,0.9,0,1.2-0.3c0.5-0.5,0.9-1,1.3-1.6&#xA;&#9;&#9;c0.5-0.8,1-1.6,1.5-2.4l0.7-1.2c0.7-1.2,2-2,3.4-2l1.6-0.1l2-0.1c3.3-0.2,4,0.1,6,2.9l0.5,0.6c0.7,0.9,1.4,1.9,2.1,2.8&#xA;&#9;&#9;c0.4,0.8,1.4,1,2.2,0.6c0,0,0,0,0,0c2.6-1.1,4.8-2.1,6.9-3.1c1.3-0.6,1.5-1,1.2-2.5c-0.3-1.6-0.7-3.3-1.1-4.9&#xA;&#9;&#9;c-0.5-1.5,0-3.2,1.1-4.3l0.9-1c0.7-0.7,1.4-1.4,2.1-2.2c1.1-1.4,2.8-2,4.5-1.6h0.2l5.2,0.9c0.6,0.1,1.2-0.2,1.5-0.7&#xA;&#9;&#9;c0.2-0.3,0.4-0.6,0.5-0.9c0.9-2.3,1.7-4.6,2.6-6.9c0.3-0.7,0.1-1.6-0.6-2c-0.6-0.4-1.2-0.9-1.8-1.2c-0.6-0.4-1.2-0.7-1.8-1.1&#xA;&#9;&#9;l-1.4-0.8c-1.1-0.6-1.8-1.8-1.9-3.1c-0.1-1.5-0.1-3.1-0.1-4.6v-1.2c0-0.9,0.4-1.9,1.1-2.5c0.6-0.6,1.3-1.1,2.1-1.7l1.2-0.9&#xA;&#9;&#9;c0.6-0.4,1.1-0.8,1.7-1.2c1.2-0.9,1.3-1.5,0.7-2.9c-1-2.2-2-4.4-3-6.6c-0.3-0.9-1.3-1.4-2.3-1.1c0,0,0,0,0,0&#xA;&#9;&#9;c-0.9,0.2-1.9,0.4-2.8,0.6s-1.8,0.4-2.7,0.6c-1.3,0.3-2.7-0.1-3.7-1.1c-1-1-2-2-3.1-3l-0.9-0.9c-0.8-0.8-1.2-1.8-1.1-2.9&#xA;&#9;&#9;c0.1-0.7,0.2-1.4,0.3-2.1c0.1-0.5,0.2-1,0.3-1.5c0.2-0.9,0.3-1.8,0.4-2.8c0.1-0.7-0.2-1.5-0.9-1.8c-2.2-0.9-4.6-1.7-7.7-2.8&#xA;&#9;&#9;c-0.7-0.3-1.4,0-1.8,0.6c-0.5,0.7-1,1.4-1.4,2.1l-0.3,0.4c-0.3,0.4-0.5,0.8-0.8,1.2c-0.4,0.6-0.8,1.2-1.2,1.8&#xA;&#9;&#9;c-0.5,0.8-1.3,1.3-2.2,1.3l-2,0.1c-1.2,0-2.4,0.1-3.6,0.2c-1.6,0.2-3.1-0.6-3.9-2c-0.7-1-1.4-1.9-2-2.8l-1.2-1.3&#xA;&#9;&#9;c-0.3-0.6-1-0.8-1.7-0.6c-2.9,0.8-5.7,2.1-8.2,3.8c-0.2,0.2-0.3,0.5-0.3,0.8c0,0.6,0,1.2,0.2,1.8c0.2,0.9,0.4,1.9,0.6,2.8&#xA;&#9;&#9;c0.2,0.8,0.3,1.5,0.5,2.3c0.3,1,0,2.1-0.6,2.9c-1.4,1.4-3,3.1-4.7,4.8c-0.6,0.4-1.3,0.7-2,0.7c-0.6,0-1.2-0.1-1.9-0.2l-0.5-0.1&#xA;&#9;&#9;l-1.5-0.2c-0.9-0.2-1.8-0.3-2.7-0.4c-0.9-0.1-1.7,0.4-2,1.3c-0.4,0.9-0.7,1.7-1,2.6c-0.4,1.2-0.9,2.5-1.3,3.7l-0.5,1.4v0.4&#xA;&#9;&#9;c0.4,0.8,1.1,1.5,1.9,1.9c0.9,0.6,1.7,1.1,2.6,1.6l1.8,1.1c0.8,0.5,1.3,1.4,1.3,2.4l0.1,2c0,1.1,0.1,2.1,0.2,3.2&#xA;&#9;&#9;c0.2,1.8-0.7,3.6-2.3,4.5c-1.2,0.8-2.5,1.7-4,2.8c-1,0.7-1.1,1.2-0.7,2.2c0.7,1.8,1.7,4.2,2.9,6.6c0.8,1.6,1.1,1.8,3,1.5l0.3,0.6&#xA;&#9;&#9;l-0.2-0.7l1.5-0.3c1.1-0.3,2.3-0.5,3.4-0.8c0.3-0.1,0.7-0.1,1-0.1L349.1,224.1z M374.3,221.8L374.3,221.8&#xA;&#9;&#9;c-9.5,0-17.2-7.7-17.2-17.2c0-9.5,7.7-17.2,17.2-17.2c9.5,0,17.2,7.7,17.2,17.2c0.1,4.4-1.5,8.6-4.6,11.8&#xA;&#9;&#9;C383.6,219.9,379,221.9,374.3,221.8L374.3,221.8z M374,188.9c-4.1,0.1-8,1.8-10.8,4.7c-6.2,6.1-6.2,16-0.1,22.2&#xA;&#9;&#9;c2.9,3,6.9,4.6,11.1,4.6c4.4,0,8.6-1.8,11.6-4.9c2.8-2.9,4.3-6.8,4.2-10.8l0,0c0-8.7-7-15.8-15.7-15.8&#xA;&#9;&#9;C374.2,188.9,374.2,188.9,374,188.9L374,188.9L374,188.9z"/>
</g>
<g id="Character_phone-maintenance-14">
	<path class="st3_phone-maintenance-14 targetColor" d="M157.8,219.5c0,0,31.7-0.9,39-29.4l-22.7-1.4l-32.9,26L157.8,219.5L157.8,219.5z" style="fill: rgb(214, 0, 36);"/>
	<polygon class="st1_phone-maintenance-14" points="94.7,363.5 82.8,366.6 83.9,379 98.1,377.5 &#9;"/>
	<path class="st0_phone-maintenance-14" d="M83.9,379.7c-0.2,0-0.3-0.1-0.4-0.2c-0.1-0.1-0.2-0.3-0.2-0.5l-1-12.5c0-0.3,0.2-0.7,0.5-0.7l11.8-3&#xA;&#9;&#9;c0.2,0,0.4,0,0.5,0.1c0.2,0.1,0.3,0.3,0.3,0.4l3.4,13.9c0,0.2,0,0.4-0.1,0.6c-0.1,0.2-0.3,0.3-0.5,0.3L84,379.8L83.9,379.7&#xA;&#9;&#9;L83.9,379.7z M83.6,367.1l0.9,11.2l12.7-1.4l-3.1-12.5L83.6,367.1L83.6,367.1z"/>
	<path class="st0_phone-maintenance-14" d="M259.2,141.5c-7.5-3.2-16-2.8-23.2,0.8c-12.2,6.2-9.2,19.8-13.8,22.5s-92.7,37.1-101.5,39.7s-17.2,0-27.2-3.4&#xA;&#9;&#9;s-16.2,0.2-23.5,6.3s-10.1,19.6-6.2,20.8s20.2-13,22.5-12.8c0,0,7.7,2.5,10.1,6.8s3.2,15.1,3.2,15.1S81.8,249,81.8,249.6&#xA;&#9;&#9;s5.2,6.2,16.1,3.3s15.2-9.8,20.4-19.2s23.7-15,37.6-20.1s66.8-25.4,71.6-26.8s10.1,1.2,17,3.2c8.1,2.7,17.1,0.4,23-5.7&#xA;&#9;&#9;c7.4-7.3,7.7-15.6,6.2-20.8c0,0-12.1,8.2-17.3,9.8s-8-0.9-10.9-5.1s-3.8-10.7-1.6-14s16.3-9.2,16.3-10.1&#xA;&#9;&#9;C259.9,143.3,259.7,142.4,259.2,141.5L259.2,141.5z"/>
	<path class="st0_phone-maintenance-14" d="M91.8,254.5c-3.3,0.1-6.6-0.9-9.2-2.9c-0.6-0.4-1.5-1.3-1.5-2c0-0.4,0-1,17.8-12.7c-0.2-2-1.1-10.8-3.1-14.4&#xA;&#9;&#9;s-8.7-6.1-9.6-6.4c-0.9,0.1-4.6,2.7-7.5,4.8c-7.3,5.1-12.6,8.7-15,8c-0.7-0.2-1.7-0.9-2.1-2.7c-1-4.8,2.3-14.4,8-19.3&#xA;&#9;&#9;c8-6.8,14.2-9.8,24.2-6.4c10.4,3.6,18.3,5.9,26.8,3.4c8.6-2.5,96.7-36.9,101.3-39.6c1.5-0.9,2.1-3.3,2.9-6.3&#xA;&#9;&#9;c1.3-5.1,3.1-12.2,11-16.2c7.4-3.8,16.2-4.1,23.9-0.8c0.2,0.1,0.3,0.2,0.3,0.4c0.4,0.9,0.7,1.9,0.8,2.9c0,0.7-0.6,1.1-5.3,3.5&#xA;&#9;&#9;c-3.9,2-9.9,5.1-11.1,7c-2,3-1.3,9.4,1.5,13.2c3.1,4.2,5.6,6.2,10.2,4.8c5-1.6,17-9.6,17.1-9.7c0.3-0.2,0.7-0.1,1,0.2&#xA;&#9;&#9;c0,0.1,0.1,0.1,0.1,0.2c0.8,2.8,2.7,12.4-6.4,21.4c-6.1,6.3-15.3,8.6-23.7,5.9c-1.5-0.4-2.9-0.9-4.3-1.4c-4.9-1.6-8.8-2.9-12.3-1.9&#xA;&#9;&#9;c-3.1,0.9-27.5,10.1-47.1,17.5c-10.6,4-19.6,7.4-24.4,9.2c-1.7,0.6-3.5,1.3-5.4,1.9c-12.9,4.6-27.4,9.8-31.8,17.8&#xA;&#9;&#9;c-5.5,9.9-9.9,16.6-20.9,19.6C96,254.1,93.9,254.4,91.8,254.5L91.8,254.5z M82.6,249.8c1,1.2,5.8,5,15,2.5&#xA;&#9;&#9;c10.4-2.8,14.7-9.3,20-18.9c4.7-8.5,19.5-13.8,32.6-18.5c1.8-0.7,3.6-1.3,5.4-1.9c4.7-1.8,13.8-5.2,24.4-9.2&#xA;&#9;&#9;c20.6-7.8,44-16.7,47.2-17.6c4-1.1,8.2,0.3,13.1,1.9c1.3,0.4,2.7,0.9,4.2,1.4c7.9,2.5,16.5,0.4,22.3-5.6c7.7-7.6,7-15.7,6.3-19.1&#xA;&#9;&#9;c-2.8,1.9-12.1,7.9-16.6,9.3c-5.9,1.9-9-1.6-11.7-5.3c-3.2-4.3-3.9-11.3-1.6-14.8c1.4-2.2,7.1-5.1,11.6-7.5c1.5-0.7,3-1.6,4.5-2.5&#xA;&#9;&#9;c-0.1-0.7-0.3-1.4-0.6-2c-7.2-2.9-15.4-2.6-22.4,0.9c-7.3,3.7-8.9,10.1-10.2,15.3c-0.8,3.2-1.5,6-3.6,7.2&#xA;&#9;&#9;c-4.7,2.7-93,37.2-101.6,39.7c-8.8,2.6-17,0.2-27.6-3.4c-9.2-3.2-15.1-0.2-22.7,6.2c-5.6,4.8-8.4,14-7.6,17.9&#xA;&#9;&#9;c0.1,0.6,0.4,1.4,1.1,1.6c2,0.6,9.1-4.5,13.8-7.8c5.2-3.7,7.4-5.1,8.5-5h0.2c0.3,0.1,8,2.6,10.5,7.1s3.3,14.9,3.3,15.4&#xA;&#9;&#9;c0,0.3-0.1,0.5-0.3,0.6C94.1,241.9,84.4,248.3,82.6,249.8L82.6,249.8z"/>
	<polygon class="st1_phone-maintenance-14" points="192.4,351.5 179.5,366.3 188.1,375.3 201.5,361.5 &#9;"/>
	<path class="st0_phone-maintenance-14" d="M188.1,376c-0.2,0-0.4-0.1-0.5-0.2l-8.6-9c-0.2-0.3-0.2-0.7,0-0.9l12.9-14.8c0.1-0.2,0.3-0.2,0.5-0.2&#xA;&#9;&#9;c0.2,0,0.4,0.1,0.5,0.2l9.1,10c0.3,0.3,0.3,0.7,0,1c0,0,0,0,0,0l-13.4,13.8C188.5,376,188.3,376,188.1,376L188.1,376z M180.4,366.3&#xA;&#9;&#9;l7.6,8l12.4-12.8l-8.1-9L180.4,366.3L180.4,366.3z"/>
	<path class="st0_phone-maintenance-14" d="M175.3,282.4c0,0,51.2,27.4,55.9,44.8s-32.7,40.5-32.7,40.5l-10.6-12.5c0,0,14-18.8,8.1-24.5&#xA;&#9;&#9;s-33.6-17.1-33.6-17.1s-2.7,33.8-16.9,49.2c-15.3,16.5-50.2,17.4-50.2,17.4l-2.6-18.8c0,0,23.6-6.1,33.6-16.8s0.2-59.6,0.2-59.6&#xA;&#9;&#9;L175.3,282.4L175.3,282.4z"/>
	<path class="st0_phone-maintenance-14" d="M95.2,380.8c-0.3,0-0.6-0.3-0.7-0.6l-2.6-18.8c-0.1-0.4,0.2-0.7,0.5-0.8c0.2-0.1,23.6-6.2,33.3-16.5&#xA;&#9;&#9;s0.2-58.5,0-59c0-0.2,0-0.4,0.1-0.6c0.1-0.2,0.3-0.3,0.5-0.3l48.8-2.5c0.1,0,0.3,0,0.4,0.1c2.1,1.1,51.5,27.8,56.3,45.2&#xA;&#9;&#9;c4.8,17.6-31.5,40.3-33,41.2c-0.3,0.2-0.7,0.1-0.9-0.1l-10.6-12.5c-0.2-0.3-0.2-0.6,0-0.9c3.8-5.1,12.7-19.3,8.2-23.6&#xA;&#9;&#9;c-5.1-5-27.8-14.6-32.5-16.6c-0.6,5.7-3.9,34.5-17,48.7c-8,8.7-21.4,13-31.2,15.1C108.4,379.6,101.8,380.5,95.2,380.8L95.2,380.8&#xA;&#9;&#9;L95.2,380.8z M93.4,361.8l2.4,17.6c4.8-0.2,35.3-2.2,49.1-17.2s16.7-48.5,16.8-48.8c0-0.2,0.1-0.4,0.3-0.5c0.2-0.1,0.4-0.1,0.6,0&#xA;&#9;&#9;c1.1,0.5,27.9,11.5,33.8,17.3s-5.6,22-7.7,25l9.9,11.6c4.4-2.8,36.2-23.8,31.9-39.4c-4.5-16.4-52.1-42.5-55.4-44.2l-47.8,2.5&#xA;&#9;&#9;c1.3,6.6,9,49.3-0.6,59.5C117.5,354.8,97.2,360.7,93.4,361.8L93.4,361.8z"/>
	<path class="st1_phone-maintenance-14" d="M200.8,206.4l3.2-5.2c0,0-0.3-8,1.1-9.1s1.8,4.7,2.1,4.7s3.7-7.8,5.3-6.6s2.2,5.4,1.7,7s-8.1,15.8-8.1,15.8&#xA;&#9;&#9;L200.8,206.4L200.8,206.4z"/>
	<path class="st0_phone-maintenance-14" d="M206.2,213.6c-0.2,0-0.4-0.1-0.5-0.2l-5.4-6.5c-0.2-0.2-0.2-0.6-0.1-0.8l3.1-5.1c-0.1-2.2-0.1-8.3,1.4-9.4&#xA;&#9;&#9;c0.3-0.3,0.8-0.4,1.1-0.2c0.9,0.3,1.3,1.7,1.6,3.6c1.5-2.8,3-5.3,4.4-5.6c0.4-0.1,0.8,0,1.1,0.2c1.9,1.5,2.4,6,2,7.7&#xA;&#9;&#9;s-7.3,14.5-8.1,15.9C206.7,213.5,206.5,213.6,206.2,213.6L206.2,213.6L206.2,213.6z M201.7,206.3l4.4,5.3c3-5.7,7.2-13.7,7.5-14.7&#xA;&#9;&#9;c0.4-1.4-0.3-5.3-1.5-6.3c-0.5,0.1-1.7,1.8-3.4,5.1c-0.7,1.4-0.8,1.6-1.2,1.6c-0.2,0-0.4,0-0.6-0.1c-0.3-0.2-0.4-0.6-0.6-1.7&#xA;&#9;&#9;c-0.2-1-0.4-1.9-0.8-2.9c-0.5,0.9-0.9,4.5-0.7,8.4c0,0.1,0,0.3-0.1,0.4L201.7,206.3L201.7,206.3z"/>
	<path class="st1_phone-maintenance-14" d="M132.6,201.9c-2.7,1.3-5.8,1.8-8.8,1.4c-1.4-0.1-2.6-0.6-3.7-1.5c-1-0.9-1.4-2.4-0.8-3.7c-1.5,0.2-3-0.4-4-1.5&#xA;&#9;&#9;c-1-1.1-1.7-2.5-1.9-3.9c-0.4-1.9-0.3-4.1,1.1-5.4c-1.5-0.7-3.2-1.5-3.6-3.1c-0.2-0.8-0.2-1.6,0.1-2.4c0.3-1.6,0.8-3.1,1.4-4.6&#xA;&#9;&#9;c0.3-0.8,0.8-1.7,1.7-1.8c-1.4-2.9-0.9-6.3,1.1-8.8c1-1.2,2.3-2.1,3.8-2.5c1.6-0.1,3.3-0.1,4.9,0c1.3-1.9,4.4-3.8,6.7-3.6&#xA;&#9;&#9;c2.1,0.2,3.9,1.5,4.8,3.5c1.8-0.4,3.7-0.3,5.5,0.1c1.8,0.4,3.3,1.7,4.1,3.4c0.7,1.7,0.2,3.8-1.3,4.9c2.2,0.2,3.9,2.1,3.9,4.3&#xA;&#9;&#9;c-0.1,2.2-1.4,4.1-3.5,4.9c-0.3,0.1-0.6,0.2-0.8,0.4c-0.2,0.3-0.3,0.6-0.4,1c-0.2,1.2-1.3,1.7-1.8,2.7c-0.5,1.5-0.9,3-1.2,4.6&#xA;&#9;&#9;c-0.4,1.5-0.9,2.9-1.4,4.4c-0.6,1.6-0.9,3.4-1.8,4.9c-0.8,1.3-1.9,1.3-3.2,1.9C133.2,201.6,132.9,201.8,132.6,201.9L132.6,201.9z"/>
	<path class="st0_phone-maintenance-14" d="M125.7,204.2c-0.7,0-1.3,0-2-0.1c-1.5-0.1-2.9-0.7-4.1-1.7c-0.9-0.9-1.4-2.2-1.3-3.4c-1.3-0.1-2.6-0.8-3.5-1.8&#xA;&#9;&#9;c-1.1-1.2-1.8-2.7-2.1-4.3c-0.5-1.8-0.3-3.7,0.6-5.3c-1.5-0.6-2.6-1.7-3.2-3.2c-0.2-0.9-0.2-1.9,0-2.8c0.3-1.6,0.8-3.2,1.4-4.8&#xA;&#9;&#9;c0.3-0.8,0.8-1.4,1.4-1.9c-1.1-3-0.5-6.3,1.5-8.8c1-1.4,2.5-2.3,4.2-2.8c1.6-0.1,3.2-0.1,4.7,0c1.5-2,4.5-3.8,7.1-3.6&#xA;&#9;&#9;c2.2,0.2,4.1,1.5,5.1,3.4c1.7-0.3,3.5-0.2,5.2,0.2c2,0.5,3.7,1.9,4.6,3.8c0.7,1.6,0.5,3.4-0.5,4.8c1.9,0.8,3.2,2.6,3.2,4.7&#xA;&#9;&#9;c0,2.5-1.6,4.7-4,5.6c-0.2,0.1-0.4,0.1-0.5,0.2c-0.1,0.1-0.1,0.3-0.1,0.5v0.2c-0.2,0.7-0.6,1.4-1.1,1.9c-0.3,0.3-0.5,0.6-0.7,1&#xA;&#9;&#9;c-0.4,0.9-0.6,1.9-0.8,2.9c-0.1,0.5-0.2,1.1-0.3,1.5c-0.4,1.5-0.9,3-1.4,4.4c-0.2,0.5-0.4,1.1-0.5,1.6c-0.3,1.2-0.7,2.3-1.3,3.4&#xA;&#9;&#9;c-0.6,0.9-1.5,1.6-2.6,1.8c-0.3,0.1-0.6,0.2-0.9,0.3l-1,0.4l0,0C130.6,203.6,128.2,204.2,125.7,204.2L125.7,204.2z M119.4,197.5&#xA;&#9;&#9;c0.2,0,0.4,0.1,0.6,0.3c0.1,0.2,0.1,0.5,0,0.8c-0.4,1-0.2,2.1,0.7,2.8c0.9,0.8,2.1,1.2,3.3,1.3c2.9,0.3,5.8-0.2,8.4-1.4l1-0.4&#xA;&#9;&#9;c0.3-0.1,0.7-0.3,1-0.4c0.8-0.2,1.4-0.6,1.9-1.3c0.5-0.9,0.9-1.9,1.2-3c0.2-0.6,0.3-1.2,0.6-1.7c0.5-1.4,1-2.8,1.4-4.3&#xA;&#9;&#9;c0.1-0.5,0.2-1,0.3-1.5c0.2-1.1,0.5-2.2,0.9-3.2c0.2-0.5,0.5-0.9,0.9-1.3c0.4-0.4,0.7-0.8,0.8-1.3v-0.2c0-0.4,0.2-0.8,0.5-1.2&#xA;&#9;&#9;c0.3-0.3,0.6-0.5,1-0.6c1.8-0.6,3.1-2.3,3.1-4.3c0-1.9-1.4-3.4-3.3-3.6c-0.4,0-0.7-0.3-0.7-0.7c0-0.2,0.1-0.4,0.3-0.5&#xA;&#9;&#9;c1.2-1,1.6-2.6,1-4.1c-0.7-1.5-2-2.6-3.7-3c-1.7-0.4-3.5-0.4-5.2-0.1c-0.3,0-0.6-0.1-0.8-0.4c-0.7-1.7-2.3-2.9-4.2-3.1&#xA;&#9;&#9;c-2.1-0.2-4.9,1.6-6,3.3l0,0c-0.2,0.3-0.6,0.4-0.9,0.3c-1.5-0.1-3-0.1-4.4,0c-1.4,0.4-2.6,1.1-3.4,2.3c-1.8,2.3-2.2,5.4-1,8.1&#xA;&#9;&#9;c0.2,0.3,0,0.8-0.3,0.9c-0.1,0-0.2,0.1-0.3,0.1c-0.5,0-0.9,0.7-1.1,1.3c-0.6,1.5-1,3-1.4,4.5c-0.2,0.7-0.2,1.4-0.1,2.1&#xA;&#9;&#9;c0.4,1.3,1.9,2.1,3.2,2.7c0.2,0.1,0.4,0.3,0.4,0.5c0,0.2,0,0.5-0.2,0.6c-1.4,1.3-1.1,3.7-0.9,4.7c0.3,1.3,0.9,2.6,1.8,3.6&#xA;&#9;&#9;C116.8,197.1,118,197.6,119.4,197.5L119.4,197.5L119.4,197.5z M132.6,201.9L132.6,201.9z"/>
	<path class="st1_phone-maintenance-14" d="M143.9,183c0,0,6.3,4.2,6,5.7s-3.2,1.9-3.2,1.9"/>
	<path class="st0_phone-maintenance-14" d="M146.7,191.2c-0.4,0-0.7-0.4-0.7-0.7c0-0.3,0.3-0.6,0.6-0.7c1-0.1,2.5-0.6,2.6-1.3c0-0.7-2.7-3-5.7-5&#xA;&#9;&#9;c-0.3-0.2-0.4-0.6-0.2-1s0.6-0.4,1-0.2l0,0c2.5,1.6,6.6,4.7,6.3,6.4C150.3,190.8,147.1,191.2,146.7,191.2L146.7,191.2L146.7,191.2z&#xA;&#9;&#9;"/>
	<path class="st1_phone-maintenance-14" d="M137.3,170.8c0.5,0,0.9,0.2,1.2,0.6c1.2,1.1,2.2,2.4,2.9,3.8c1.5,2.8,2.8,5.7,4,8.6c1.6,3.9,3.1,7.8,4.6,11.7&#xA;&#9;&#9;c0.9,2.5-5.4,5.2-6.8,5l5.1,9.2c0,0-2.7,2.1-8.8,1.9s-6.7-1.4-6.7-1.4l-4.3-11.4c0,0,4.2-1.8,4.5-7.8c0.1-1-0.3-2.3-0.1-3.2&#xA;&#9;&#9;c0.3-1.1,1.2-1.7,1.3-3c0-1.2-0.6-2.4-1.5-3.1c-0.2-0.2-0.5-0.4-0.4-0.6c0-0.1,0.1-0.3,0.2-0.4c1.1-1.4,0.9-3.4-0.5-4.6&#xA;&#9;&#9;c0,0,0,0,0,0c1.6-0.7,2-2.7,2.1-4.5c-0.1,0.5,2.6-1,2.6-1C136.9,170.8,137.1,170.8,137.3,170.8L137.3,170.8z"/>
	<path class="st0_phone-maintenance-14" d="M140.2,212.4h-0.8c-5.9-0.2-7.1-1.3-7.3-1.8l-4.4-11.4c-0.1-0.4,0-0.8,0.4-0.9c0.1-0.1,3.8-1.7,4.1-7.2&#xA;&#9;&#9;c0-0.4,0-0.8-0.1-1.2c-0.1-0.7-0.1-1.4,0-2.2c0.2-0.5,0.4-1,0.7-1.4c0.3-0.4,0.5-0.9,0.6-1.4c0-1-0.5-1.9-1.2-2.5&#xA;&#9;&#9;c-0.5-0.3-0.7-0.7-0.7-1.3c0-0.3,0.2-0.5,0.4-0.7c0.4-0.5,0.7-1.2,0.6-1.9c-0.1-0.7-0.4-1.3-0.9-1.7c-0.2-0.1-0.3-0.4-0.3-0.6&#xA;&#9;&#9;c0-0.3,0.2-0.5,0.4-0.6c1.2-0.5,1.6-2.4,1.7-3.9c0-0.4,0.4-0.7,0.7-0.6c0,0,0,0,0,0c0.1,0,0.2,0,0.2,0.1c0.6-0.2,1.2-0.5,1.8-0.9&#xA;&#9;&#9;l0.2-0.1c0.3-0.1,0.6-0.1,0.9-0.1c0.6,0,1.2,0.3,1.6,0.7c1.3,1.1,2.3,2.5,3.1,4c1.4,2.5,2.6,5.2,3.7,7.9l0.4,0.9&#xA;&#9;&#9;c1.6,3.9,3.2,7.8,4.6,11.7c0.3,0.9,0,1.9-0.7,2.6c-1.6,1.6-3.5,2.7-5.7,3.2l4.6,8.3c0.2,0.3,0.1,0.7-0.2,0.9&#xA;&#9;&#9;C148.5,210.4,145.9,212.4,140.2,212.4L140.2,212.4z M133.4,210c0.2,0.2,1.4,0.9,6.1,1c2.7,0.2,5.4-0.3,7.8-1.5l-4.8-8.6&#xA;&#9;&#9;c-0.1-0.2-0.1-0.5,0-0.8c0.2-0.2,0.4-0.3,0.7-0.3c2.1-0.3,4.1-1.3,5.6-2.8c0.3-0.3,0.5-0.8,0.4-1.2c-1.4-3.9-3-7.8-4.6-11.7&#xA;&#9;&#9;l-0.4-0.9c-1-2.6-2.2-5.2-3.6-7.7c-0.7-1.4-1.6-2.6-2.7-3.6c-0.4-0.3-0.6-0.4-0.8-0.4l0,0c-0.1,0-0.2,0-0.4,0.1&#xA;&#9;&#9;c-0.7,0.4-1.4,0.7-2.2,1c-0.1,1.4-0.6,2.8-1.6,3.9c0.4,0.6,0.7,1.3,0.8,2c0.1,1-0.2,2.1-0.8,2.9l0,0c1.1,0.9,1.8,2.2,1.8,3.7&#xA;&#9;&#9;c0,0.8-0.3,1.5-0.8,2.2c-0.2,0.3-0.4,0.6-0.5,1c-0.1,0.5-0.1,1.1,0,1.6c0.1,0.5,0.1,0.9,0.1,1.4c-0.3,5-3.1,7.3-4.4,8.1L133.4,210&#xA;&#9;&#9;L133.4,210z"/>
	<path class="st1_phone-maintenance-14" d="M148.6,192.7c-2,1.4-4.7,1.1-6.4-0.7"/>
	<path class="st0_phone-maintenance-14" d="M145.9,194.3c-1.5,0-3-0.6-4.1-1.7c-0.2-0.3-0.1-0.8,0.2-1c0.2-0.2,0.5-0.2,0.8,0c1.4,1.5,3.7,1.8,5.5,0.6&#xA;&#9;&#9;c0.3-0.2,0.7-0.2,1,0.1c0,0,0,0,0,0c0.2,0.3,0.2,0.8-0.1,1c0,0,0,0,0,0C148.1,194,147,194.4,145.9,194.3L145.9,194.3z"/>
	<path class="st1_phone-maintenance-14" d="M137.6,188.6c-0.5-0.9-1.3-1.7-2.2-2.2c-0.6-0.5-1.4-0.9-2.1-1.1c-0.8-0.3-1.6-0.2-2.4,0.2&#xA;&#9;&#9;c-0.6,0.4-0.9,1.1-1,1.8c0,0.7,0.1,1.4,0.3,2.1c1.1,3,3.8,5.2,6.9,5.7l-0.3-0.1"/>
	<path class="st0_phone-maintenance-14" d="M137.2,195.9h-0.1c-3.4-0.6-6.3-2.9-7.5-6.1c-0.3-0.8-0.4-1.6-0.4-2.4c0.1-0.9,0.5-1.8,1.3-2.3&#xA;&#9;&#9;c0.9-0.6,2-0.7,2.9-0.4c0.8,0.3,1.6,0.7,2.3,1.2c1,0.6,1.9,1.4,2.4,2.5c0.2,0.3,0,0.8-0.3,0.9c-0.3,0.2-0.8,0-0.9-0.3&#xA;&#9;&#9;c0,0,0-0.1,0-0.1c-0.5-0.8-1.2-1.5-2-1.9c-0.6-0.4-1.3-0.8-1.9-1.1c-0.6-0.2-1.2-0.2-1.7,0.2c-0.4,0.3-0.7,0.8-0.7,1.3&#xA;&#9;&#9;c0,0.6,0.1,1.2,0.3,1.8c1,2.6,3.1,4.5,5.8,5.1c0.2-0.1,0.3-0.1,0.5,0l0.3,0.1c0.4,0.2,0.5,0.6,0.4,0.9&#xA;&#9;&#9;C137.7,195.7,137.4,195.8,137.2,195.9L137.2,195.9z"/>
	<path class="st0_phone-maintenance-14" d="M143.1,200.6c0,0-3.7,0.4-6.2-1.2c0,0,2.7,5.8,8.5,5.3L143.1,200.6z"/>
	<path class="st0_phone-maintenance-14" d="M144.8,205.4c-5.7,0-8.3-5.5-8.4-5.8c-0.1-0.3-0.1-0.6,0.2-0.8c0.2-0.2,0.6-0.2,0.8-0.1&#xA;&#9;&#9;c2.2,1.4,5.7,1.1,5.8,1.1c0.3,0,0.6,0.1,0.7,0.4l2.3,4.1c0.1,0.2,0.1,0.5,0,0.7c-0.1,0.2-0.3,0.3-0.6,0.4L144.8,205.4L144.8,205.4z&#xA;&#9;&#9; M138.8,200.9c1.3,1.7,3.3,2.9,5.4,3.1l-1.5-2.7C141.4,201.3,140,201.2,138.8,200.9L138.8,200.9z"/>
	<ellipse transform="matrix(0.9326 -0.361 0.361 0.9326 -55.5889 62.5196)" class="st0_phone-maintenance-14" cx="139.6" cy="180.1" rx="0.6" ry="1.5"/>
	<path class="st3_phone-maintenance-14 targetColor" d="M153.1,205.8c-1.8-1.1-21.4-4.8-26.2,4s-7.6,69.6-3.5,83l52-10.4C175.3,282.4,162.9,211.9,153.1,205.8&#xA;&#9;&#9;L153.1,205.8z" style="fill: rgb(214, 0, 36);"/>
	<path class="st3_phone-maintenance-14 targetColor" d="M154.5,231.5c0,0,13.5,11.4,26.1,7.7s28.4-26.1,28.4-26.1l-8.4-10.2c0,0-8.6,15.6-19,15.7&#xA;&#9;&#9;s-28.5-12.7-28.5-12.7L154.5,231.5L154.5,231.5z" style="fill: rgb(214, 0, 36);"/>
	<path class="st0_phone-maintenance-14" d="M175.6,240.6c-12.7,0-26.2-9.4-27-9.9c-0.3-0.2-0.4-0.7-0.2-1s0.7-0.4,1-0.2l0,0c0.2,0.2,23,16,36.6,6.7&#xA;&#9;&#9;c13.8-9.5,18.4-18.3,18.5-18.4c0.2-0.3,0.6-0.4,1-0.2c0.3,0.2,0.4,0.5,0.3,0.9c-0.2,0.4-4.8,9.1-18.9,18.9&#xA;&#9;&#9;C183.5,239.6,179.6,240.7,175.6,240.6L175.6,240.6z"/>
	<path class="st0_phone-maintenance-14" d="M176.2,218.4c0,0-0.1,0-0.1,0c-2.8-0.6-17.8-7.2-21.8-10.6c-3.6-3-6.8-2.7-6.9-2.7c-0.4,0-0.7-0.2-0.8-0.6&#xA;&#9;&#9;c0-0.4,0.2-0.7,0.6-0.8c0,0,0,0,0,0c0.1,0,3.8-0.4,7.9,3c3.9,3.2,18.7,9.7,21.2,10.2c0.4,0.1,0.6,0.5,0.5,0.8&#xA;&#9;&#9;C176.8,218.2,176.5,218.4,176.2,218.4L176.2,218.4z"/>
	<path class="st1_phone-maintenance-14" d="M185.6,179.4c-0.2,1-0.4,2.1-0.5,3.1c-0.1,0.3-0.1,0.7,0,1c0.3,0.8,1,1.3,1.9,1.4c1.3,0.1,2.5-0.2,3.6-0.7&#xA;&#9;&#9;c3-1.2,8.8-5.3,4.6-8.8C192.1,172.8,186.3,175.9,185.6,179.4L185.6,179.4z"/>
	<path class="st0_phone-maintenance-14" d="M187.7,185.6c-0.2,0-0.4,0-0.7-0.1c-1.1-0.1-2.1-0.8-2.4-1.9c-0.1-0.4-0.1-0.8-0.1-1.2&#xA;&#9;&#9;c0.1-1.1,0.2-2.2,0.5-3.2l0,0c0.4-2.1,2.5-4.2,5.1-5.1c1.9-0.8,4-0.5,5.7,0.7c1.2,0.8,1.9,2.3,1.7,3.8c-0.4,2.8-4.1,5.2-6.4,6.2&#xA;&#9;&#9;C189.9,185.2,188.8,185.5,187.7,185.6L187.7,185.6z M192.4,175.1c-0.7,0-1.3,0.1-1.9,0.4c-2.1,0.7-3.8,2.4-4.2,4.1l0,0&#xA;&#9;&#9;c-0.2,1-0.4,2-0.4,3c0,0.2,0,0.5,0,0.7c0.2,0.5,0.7,0.8,1.3,0.9c1.1,0,2.3-0.2,3.3-0.7c2.1-0.9,5.3-3,5.6-5.1&#xA;&#9;&#9;c0.1-1-0.4-1.9-1.2-2.5C194.1,175.3,193.3,175,192.4,175.1L192.4,175.1z M185.6,179.3L185.6,179.3z"/>
	<path class="st0_phone-maintenance-14" d="M179.5,366.3c0,0-7.5,6.8-7.1,7.7s15.5,19.8,17.3,17.8s-1.7-16.5-1.7-16.5L179.5,366.3L179.5,366.3z"/>
	<path class="st0_phone-maintenance-14" d="M189.4,392.7c-0.1,0-0.2,0-0.3,0c-3.6-0.6-16.9-17.4-17.3-18.4c-0.2-0.5-0.6-1.4,7.3-8.5c0.3-0.3,0.7-0.3,1,0&#xA;&#9;&#9;l8.6,9c0.1,0.1,0.1,0.2,0.2,0.3c0.9,3.5,3.5,15.1,1.5,17.2C190,392.6,189.7,392.7,189.4,392.7L189.4,392.7z M173.1,373.9&#xA;&#9;&#9;c1.5,2.3,13.8,17.2,16.2,17.4c0.9-1.3-0.3-9-1.9-15.6l-8-8.4C176.6,369.9,173.6,373,173.1,373.9L173.1,373.9z"/>
	<path class="st0_phone-maintenance-14" d="M82.8,366.6c0,0-9.7,1.3-10.5,3.3s2.1,24.2,4.1,23.8s7.5-14.6,7.5-14.6L82.8,366.6z"/>
	<path class="st0_phone-maintenance-14" d="M76.3,394.3c-0.4,0-0.7-0.2-0.9-0.5c-2-2.4-4.7-22-3.8-24.3s8.7-3.4,11.1-3.7c0.2,0,0.4,0,0.5,0.1&#xA;&#9;&#9;c0.1,0.1,0.2,0.3,0.3,0.5l1,12.5c0,0.1,0,0.2,0,0.3c-1.7,4.4-5.9,14.6-8,15L76.3,394.3L76.3,394.3z M76.6,393L76.6,393z&#xA;&#9;&#9; M82.2,367.4c-4.3,0.6-8.9,1.9-9.2,2.8c-1,2.6,2.3,20.7,3.5,22.7c1.2-1,4.4-7.8,6.8-13.9L82.2,367.4L82.2,367.4z"/>
</g>
</svg>