<svg version="1.1" id="Layer_1" xmlns="http://www.w3.org/2000/svg" xmlns:xlink="http://www.w3.org/1999/xlink" x="0px" y="0px" viewBox="0 0 500 500" style="width: 166px;" xml:space="preserve" data-imageid="salesman-100" imageName="Salesman" class="illustrations_image">
<style type="text/css">
	.st0_salesman-100{fill:#D1D3D4;}
	.st1_salesman-100{fill:#FFFFFF;}
	.st2_salesman-100{fill:#231F20;}
	.st3_salesman-100{fill:#68E1FD;}
</style>
<g id="Line_salesman-100">
	<path class="st0_salesman-100" d="M99.1,338.1c-0.2,0-0.3-0.1-0.4-0.2c-0.3-0.2-0.4-0.7-0.1-1c0,0,0,0,0,0c8.5-10.3,17.6-20,27.3-29.2&#xA;&#9;&#9;c20.7-19.5,37.5-29.6,50.1-30c13.2-0.4,30.1,6.2,47.9,13.1c22.9,8.9,46.7,18.1,64.5,13.3c71.8-19,119.5-99.5,120-100.3&#xA;&#9;&#9;c0.2-0.3,0.6-0.4,1-0.2c0.3,0.2,0.4,0.6,0.2,0.9c-0.5,0.8-48.5,81.8-120.8,101c-18.3,4.8-42.2-4.4-65.4-13.4&#xA;&#9;&#9;c-17.7-6.9-34.5-13.4-47.4-13c-29.3,0.8-75.9,58.1-76.4,58.7C99.6,338.1,99.4,338.2,99.1,338.1z"/>
	<path class="st0_salesman-100" d="M407.4,346H89.9c-0.4,0-0.7-0.3-0.7-0.7l0,0V154.4c0-0.4,0.3-0.7,0.7-0.7c0.4,0,0.7,0.3,0.7,0.7v190.2h316.7&#xA;&#9;&#9;c0.4,0,0.7,0.3,0.7,0.7C408.1,345.7,407.8,346,407.4,346L407.4,346z"/>
	<path class="st0_salesman-100" d="M408.1,222.5H408c-0.4,0-0.7-0.4-0.6-0.8l1.9-17.9L392,212c-0.4,0.1-0.8,0-0.9-0.4c-0.1-0.3,0-0.7,0.3-0.9&#xA;&#9;&#9;l18.3-8.7c0.2-0.1,0.5-0.1,0.7,0.1c0.2,0.1,0.3,0.4,0.3,0.6l-2,19.1C408.7,222.2,408.4,222.5,408.1,222.5z"/>
	<path class="st0_salesman-100" d="M379.4,341.6c-0.4,0-0.7-0.3-0.7-0.7v0v-2.1c0-0.4,0.3-0.7,0.7-0.7c0.4,0,0.7,0.3,0.7,0.7v2.1&#xA;&#9;&#9;C380.1,341.3,379.8,341.6,379.4,341.6z"/>
	<path class="st0_salesman-100" d="M379.4,335.3c-0.4,0-0.7-0.3-0.7-0.7v0v-4.3c0-0.4,0.3-0.7,0.7-0.7c0.4,0,0.7,0.3,0.7,0.7v4.3&#xA;&#9;&#9;C380.1,334.9,379.8,335.3,379.4,335.3z M379.4,326.7c-0.4,0-0.7-0.3-0.7-0.7v0v-4.3c0-0.4,0.3-0.7,0.7-0.7s0.7,0.3,0.7,0.7&#xA;&#9;&#9;c0,0,0,0,0,0v4.2C380.1,326.4,379.8,326.7,379.4,326.7C379.4,326.7,379.4,326.7,379.4,326.7L379.4,326.7z M379.4,318.2&#xA;&#9;&#9;c-0.4,0-0.7-0.3-0.7-0.7v0v-4.3c0-0.4,0.3-0.7,0.7-0.7s0.7,0.3,0.7,0.7c0,0,0,0,0,0v4.3C380.1,317.9,379.8,318.2,379.4,318.2&#xA;&#9;&#9;L379.4,318.2z M379.4,309.7c-0.4,0-0.7-0.3-0.7-0.7v0v-4.3c0-0.4,0.3-0.7,0.7-0.7s0.7,0.3,0.7,0.7c0,0,0,0,0,0v4.3&#xA;&#9;&#9;C380.1,309.4,379.8,309.7,379.4,309.7L379.4,309.7z M379.4,301.2c-0.4,0-0.7-0.3-0.7-0.7v0v-4.3c0-0.4,0.3-0.7,0.7-0.7&#xA;&#9;&#9;c0.4,0,0.7,0.3,0.7,0.7v4.3C380.1,300.9,379.8,301.2,379.4,301.2L379.4,301.2z M379.4,292.7c-0.4,0-0.7-0.3-0.7-0.7v0v-4.3&#xA;&#9;&#9;c0-0.4,0.3-0.7,0.7-0.7c0.4,0,0.7,0.3,0.7,0.7v4.3C380.1,292.4,379.8,292.7,379.4,292.7L379.4,292.7z M379.4,284.1&#xA;&#9;&#9;c-0.4,0-0.7-0.3-0.7-0.7v0v-4.3c0-0.4,0.3-0.7,0.7-0.7c0.4,0,0.7,0.3,0.7,0.7v4.3C380.1,283.8,379.8,284.1,379.4,284.1L379.4,284.1&#xA;&#9;&#9;z M379.4,275.6c-0.4,0-0.7-0.3-0.7-0.7v0v-4.3c0-0.4,0.3-0.7,0.7-0.7s0.7,0.3,0.7,0.7c0,0,0,0,0,0v4.3&#xA;&#9;&#9;C380.1,275.3,379.8,275.6,379.4,275.6L379.4,275.6z M379.4,267.1c-0.4,0-0.7-0.3-0.7-0.7v0v-4.3c0-0.4,0.3-0.7,0.7-0.7&#xA;&#9;&#9;s0.7,0.3,0.7,0.7c0,0,0,0,0,0v4.3C380.1,266.8,379.8,267.1,379.4,267.1L379.4,267.1z"/>
	<path class="st0_salesman-100" d="M379.4,258.6c-0.4,0-0.7-0.3-0.7-0.7v0v-2.1c0-0.4,0.3-0.7,0.7-0.7c0.4,0,0.7,0.3,0.7,0.7c0,0,0,0,0,0v2.1&#xA;&#9;&#9;C380.1,258.3,379.8,258.6,379.4,258.6z"/>
	<path class="st0_salesman-100" d="M175.3,339.5c-0.4,0-0.7-0.3-0.7-0.7v-4.2c0-0.4,0.3-0.7,0.7-0.7s0.7,0.3,0.7,0.7c0,0,0,0,0,0v4.2&#xA;&#9;&#9;C176,339.2,175.7,339.5,175.3,339.5C175.3,339.5,175.3,339.5,175.3,339.5z M175.3,331.1c-0.4,0-0.7-0.3-0.7-0.7v-4.2&#xA;&#9;&#9;c0-0.4,0.3-0.7,0.7-0.7s0.7,0.3,0.7,0.7c0,0,0,0,0,0v4.2C176,330.8,175.7,331.1,175.3,331.1C175.3,331.1,175.3,331.1,175.3,331.1z&#xA;&#9;&#9; M175.3,322.8c-0.4,0-0.7-0.3-0.7-0.7v-4.2c0-0.4,0.3-0.7,0.7-0.7s0.7,0.3,0.7,0.7c0,0,0,0,0,0v4.2&#xA;&#9;&#9;C176,322.4,175.7,322.8,175.3,322.8C175.3,322.8,175.3,322.8,175.3,322.8z M175.3,314.4c-0.4,0-0.7-0.3-0.7-0.7v-4.2&#xA;&#9;&#9;c0-0.4,0.3-0.7,0.7-0.7s0.7,0.3,0.7,0.7c0,0,0,0,0,0v4.2C176,314,175.7,314.4,175.3,314.4C175.3,314.4,175.3,314.4,175.3,314.4z&#xA;&#9;&#9; M175.3,306c-0.4,0-0.7-0.3-0.7-0.7V301c0-0.4,0.3-0.7,0.7-0.7c0.4,0,0.7,0.3,0.7,0.7v4.2C176.1,305.6,175.8,306,175.3,306&#xA;&#9;&#9;C175.4,306,175.4,306,175.3,306L175.3,306z M175.3,297.6c-0.4,0-0.7-0.3-0.7-0.7v-4.2c0-0.4,0.3-0.7,0.7-0.7c0.4,0,0.7,0.3,0.7,0.7&#xA;&#9;&#9;v4.2C176,297.2,175.7,297.5,175.3,297.6L175.3,297.6z M175.3,289.2c-0.4,0-0.7-0.3-0.7-0.7v-4.2c0-0.4,0.3-0.7,0.7-0.7&#xA;&#9;&#9;c0.4,0,0.7,0.3,0.7,0.7v4.2C176,288.8,175.7,289.1,175.3,289.2L175.3,289.2z M175.3,280.7c-0.4,0-0.7-0.3-0.7-0.6c0,0,0,0,0,0v-0.1&#xA;&#9;&#9;c0-0.4,0.3-0.7,0.7-0.7c0.4,0,0.7,0.3,0.7,0.7C176,280.3,175.7,280.7,175.3,280.7L175.3,280.7z"/>
</g>
<g id="Character_salesman-100">
	<ellipse class="st0_salesman-100" cx="274.2" cy="418.7" rx="81.5" ry="4.7"/>
	<polygon class="st1_salesman-100" points="255.3,387.6 254,402.4 235.1,403.1 235,385.4 &#9;"/>
	<path class="st2_salesman-100" d="M235.1,403.8c-0.2,0-0.4-0.1-0.5-0.2c-0.1-0.1-0.2-0.3-0.2-0.5l-0.1-17.7c0-0.2,0.1-0.4,0.2-0.5&#xA;&#9;&#9;c0.2-0.1,0.4-0.2,0.6-0.2l20.3,2.2c0.4,0,0.7,0.4,0.6,0.8l-1.3,14.7c0,0.4-0.3,0.7-0.7,0.7L235.1,403.8L235.1,403.8z M235.7,386.2&#xA;&#9;&#9;l0.1,16.2l17.6-0.7l1.2-13.4L235.7,386.2z"/>
	<path class="st2_salesman-100" d="M254.2,402.4c0,0,0.8,14.2-0.8,14.6s-36.9,2.4-43.5,0.2c-5-1.6,25.1-14.1,25.1-14.1L254.2,402.4z"/>
	<path class="st2_salesman-100" d="M224.6,418.9c-6.7,0-12.5-0.3-14.9-1c-0.6-0.1-1-0.6-1-1.2c-0.1-3,18.2-11,26.1-14.2c0.1,0,0.2,0,0.2-0.1&#xA;&#9;&#9;l19.2-0.7c0.4,0,0.7,0.3,0.7,0.7c0,0,0,0,0,0c0.8,14.7-0.8,15.2-1.3,15.3C252.7,418,237.1,418.9,224.6,418.9z M210.1,416.5&#xA;&#9;&#9;L210.1,416.5c6.4,2.1,40.3,0.3,43-0.2c0.6-1,0.7-7.5,0.4-13.3l-18.4,0.7C223.5,408.7,211.2,414.6,210.1,416.5L210.1,416.5z"/>
	<polygon class="st1_salesman-100" points="289.5,387.6 290.8,402.4 311.3,403.1 309.9,385.4 &#9;"/>
	<path class="st2_salesman-100" d="M311.3,403.8L311.3,403.8l-20.5-0.7c-0.4,0-0.7-0.3-0.7-0.7l-1.3-14.7c0-0.4,0.2-0.7,0.6-0.8l20.4-2.2&#xA;&#9;&#9;c0.2,0,0.4,0,0.5,0.2c0.1,0.1,0.2,0.3,0.3,0.5l1.5,17.7c0,0.2-0.1,0.4-0.2,0.6C311.7,403.8,311.5,403.8,311.3,403.8z M291.5,401.7&#xA;&#9;&#9;l19.1,0.7l-1.3-16.2l-18.9,2.1L291.5,401.7z"/>
	<path class="st2_salesman-100" d="M290.6,402.4c0,0-0.8,14.2,0.8,14.6s36.9,2.4,43.5,0.2c5-1.6-23.6-14.1-23.6-14.1L290.6,402.4z"/>
	<path class="st2_salesman-100" d="M320.3,418.9c-12.6,0-28.1-0.9-29.1-1.2c-0.5-0.1-2-0.6-1.3-15.3c0-0.4,0.3-0.7,0.7-0.7l20.7,0.7&#xA;&#9;&#9;c0.1,0,0.2,0,0.3,0.1c7.4,3.2,24.7,11.1,24.6,14.2c-0.1,0.6-0.5,1.1-1.1,1.2C332.8,418.6,326.9,418.9,320.3,418.9z M291.7,416.4&#xA;&#9;&#9;c2.6,0.5,36.6,2.3,43,0.2h0.1c-0.8-1.8-12.7-7.9-23.6-12.7l-19.9-0.7C291,408.9,291.1,415.3,291.7,416.4L291.7,416.4z M291.7,416.4&#xA;&#9;&#9;L291.7,416.4z"/>
	<polygon class="st2_salesman-100" points="258.7,389.6 270,282 287.3,389.6 313.4,389.6 307.2,235.6 229.9,231 230.1,389.6 &#9;"/>
	<polygon class="st3_salesman-100 targetColor" points="227.7,137.5 189.9,172.7 203.8,203.1 240.9,180.3 &#9;" style="fill: rgb(214, 0, 36);"/>
	<path class="st3_salesman-100 targetColor" d="M303.6,231.8l9.3-31.5c0,0-3.4-48.3-16.7-65.4c-19.7-10.6-60.2-8.1-68.5,2.6s6.4,95.1,6.4,95.1L303.6,231.8z" style="fill: rgb(214, 0, 36);"/>
	<path class="st1_salesman-100" d="M238.4,90.6c0.2,0.2,0.4,0.3,0.7,0.4c-3.4-2.1,1.2-11.7,2.6-13.7c2.5,3.1,6.6,4.4,10.5,4.8&#xA;&#9;&#9;c3.9,0.4,7.9,0.2,11.8,1s7.8,2.8,9.5,6.4c-0.2-0.3,2.4-0.2,2.7-0.1c1.3,0.6,2.2,1.7,2.7,3c0.6,1.6,0.9,3.3,0.8,5&#xA;&#9;&#9;c0.1,7.3-1.7,14.5-5.1,21c-1.3,2.7-3.1,5-5.4,6.9c-5.5,4.2-12.1,0.8-17.4-2.2c-12.5-7-15.6-22.7-16.8-35.9&#xA;&#9;&#9;C235.9,88.5,237,89.7,238.4,90.6z"/>
	<path class="st2_salesman-100" d="M263.2,128c-4.5,0-8.9-2.5-11.9-4.2c-13.2-7.4-16.1-24.4-17.1-36.5c0-0.3,0.2-0.6,0.5-0.7&#xA;&#9;&#9;c0.3-0.1,0.6,0,0.8,0.2c0.5,0.7,1,1.3,1.6,1.9c-0.2-4,3-10.4,3.9-11.7c0.1-0.2,0.3-0.3,0.6-0.3c0.2,0,0.4,0.1,0.6,0.3&#xA;&#9;&#9;c2,2.5,5.4,4,10,4.6c1.6,0.2,3.2,0.2,4.7,0.3c2.4,0,4.8,0.3,7.1,0.7c4.5,0.9,8,3.1,9.7,6.2c0.9-0.1,1.7,0,2.5,0.1&#xA;&#9;&#9;c1.4,0.7,2.5,1.9,3.1,3.3c0.7,1.7,1,3.5,0.9,5.3c0.1,7.5-1.7,14.8-5.2,21.4c-1.3,2.7-3.2,5.2-5.6,7.1&#xA;&#9;&#9;C267.7,127.3,265.5,128,263.2,128z M235.8,89.4c1.2,11.6,4.4,26.4,16.2,33.1c5.7,3.2,11.6,6,16.6,2.2c2.2-1.8,4-4.1,5.2-6.6&#xA;&#9;&#9;c3.4-6.4,5.1-13.5,5-20.7c0.1-1.6-0.2-3.2-0.8-4.8c-0.4-1.1-1.2-2-2.3-2.6c-0.6-0.1-1.3-0.1-1.9-0.1c-0.1,0-0.1,0.1-0.2,0.1&#xA;&#9;&#9;c-0.4,0.2-0.8,0-1-0.3c0,0,0,0,0,0c-1.9-4.2-6.9-5.6-8.9-6c-2.3-0.4-4.6-0.6-6.9-0.6c-1.6-0.1-3.2-0.1-4.8-0.3&#xA;&#9;&#9;c-4.6-0.5-8-2-10.3-4.3c-1.3,2.4-3.7,7.8-3.1,10.6c0.1,0.5,0.3,1,0.8,1.2c0.3,0.2,0.4,0.7,0.2,1c-0.2,0.3-0.7,0.4-1,0.2&#xA;&#9;&#9;c-0.2-0.2-0.5-0.3-0.7-0.5C237.1,90.6,236.5,90,235.8,89.4z"/>
	<path class="st1_salesman-100" d="M250.5,125l-0.1,12.1c0,0,2.1,6.7,9.9,4.3c4.5-1.4,7.9-5.2,8.7-9.9v-21.7c0,0-4.7-4.3-3.8-17.1&#xA;&#9;&#9;c0,0-11.6,4.3-23.4,3.5c0,0-0.9,16.1,0.4,22.1S250.5,125,250.5,125z"/>
	<path class="st2_salesman-100" d="M257.1,142.7c-5.7,0-7.4-5.3-7.4-5.3c0-0.1,0-0.1,0-0.2l0.1-11.5c-1.9-0.3-7.1-1.8-8.2-7.1&#xA;&#9;&#9;c-1.3-6.1-0.5-21.7-0.4-22.3c0-0.2,0.1-0.4,0.2-0.5c0.1-0.1,0.3-0.2,0.5-0.2c11.5,0.8,23-3.4,23.1-3.4c0.2-0.1,0.5-0.1,0.7,0.1&#xA;&#9;&#9;c0.2,0.1,0.3,0.4,0.3,0.6c-0.9,12.2,3.5,16.5,3.5,16.5c0.1,0.1,0.2,0.3,0.2,0.5v21.7c-0.8,5-4.4,9.1-9.2,10.6&#xA;&#9;&#9;C259.5,142.5,258.3,142.7,257.1,142.7z M251.1,137c0.3,0.8,2.4,5.8,8.9,3.8c4.3-1.3,7.5-4.9,8.2-9.3v-21.3c-1-1.1-4.4-5.7-3.8-16.4&#xA;&#9;&#9;c-3.1,1-12.4,3.7-22,3.2c-0.1,3.2-0.7,16.1,0.4,21.2c1.2,5.4,7.4,6.1,7.6,6.1c0.4,0,0.7,0.3,0.6,0.7L251.1,137z"/>
	<path class="st1_salesman-100" d="M264.4,109.7c0.2-1.1,0.8-2.1,1.6-2.8c0.8-0.7,1.7-1.2,2.7-1.6c0.5-0.3,1.1-0.4,1.6-0.4c0.4,0,0.8,0.2,1.1,0.3&#xA;&#9;&#9;c0.9,0.4,1.6,1,2,1.9c0.3,0.7,0.3,1.5,0.2,2.2c-0.1,0.8-0.2,1.6-0.5,2.4c-1.2,3.2-4.7,4.9-8,3.7c0,0,0,0,0,0"/>
	<path class="st2_salesman-100" d="M267.3,116.7c-0.8,0-1.7-0.1-2.4-0.4c-0.4-0.2-0.5-0.6-0.3-1c0.2-0.3,0.5-0.5,0.8-0.4c2.8,1.1,6-0.4,7.1-3.2&#xA;&#9;&#9;c0,0,0,0,0-0.1c0.2-0.7,0.4-1.5,0.4-2.2c0.1-0.6,0-1.3-0.2-1.9c-0.4-0.7-1-1.2-1.7-1.5c-0.3-0.1-0.6-0.2-0.9-0.3&#xA;&#9;&#9;c-0.5,0-0.9,0.1-1.3,0.3c-0.9,0.3-1.7,0.8-2.5,1.4c-0.7,0.6-1.2,1.5-1.4,2.4c-0.1,0.4-0.4,0.7-0.8,0.6c0,0,0,0,0,0&#xA;&#9;&#9;c-0.4-0.1-0.7-0.5-0.6-0.8c0.2-1.2,0.9-2.4,1.8-3.2c0.9-0.7,1.8-1.3,2.9-1.7c0.6-0.3,1.3-0.5,2-0.4c0.5,0,1,0.2,1.4,0.4&#xA;&#9;&#9;c1,0.4,1.9,1.2,2.4,2.2c0.3,0.8,0.4,1.7,0.3,2.6c-0.1,0.9-0.2,1.8-0.5,2.6C272.9,114.8,270.3,116.7,267.3,116.7L267.3,116.7z"/>
	<path class="st2_salesman-100" d="M250.5,130.9c2.6-0.4,5.1-1.6,7-3.4c1.6-1.4,2.4-3.5,2-5.6c0,0-3.8,4-9,3.2V130.9z"/>
	<path class="st2_salesman-100" d="M250.5,131.5c-0.4,0-0.7-0.3-0.7-0.7l0.1-5.8c0-0.4,0.3-0.7,0.7-0.7c0,0,0.1,0,0.1,0c4.8,0.7,8.3-3,8.4-3&#xA;&#9;&#9;c0.2-0.2,0.4-0.3,0.7-0.2c0.2,0.1,0.4,0.3,0.5,0.5c0.5,2.3-0.4,4.8-2.2,6.3C255.9,129.9,253.3,131.2,250.5,131.5L250.5,131.5z&#xA;&#9;&#9; M251.2,125.8v4.2c2.2-0.6,4.2-1.6,5.8-3.1c1.1-0.9,1.7-2.2,1.9-3.6C256.7,125,254,125.9,251.2,125.8z"/>
	<path class="st2_salesman-100" d="M249.8,114c-0.8,0.1-1.7-0.2-2.3-0.8c-1.1-1.2,0.9-5.1,2.9-8.2c0.2-0.3,0.6-0.4,1-0.2c0,0,0,0,0,0&#xA;&#9;&#9;c0.3,0.2,0.4,0.6,0.2,1c0,0,0,0,0,0c-1.8,2.8-3.2,5.9-3,6.5c0.4,0.4,2.1,0.3,3,0c0.4-0.1,0.8,0.1,0.9,0.5c0.1,0.4-0.1,0.7-0.5,0.9&#xA;&#9;&#9;c0,0,0,0,0,0C251.2,113.9,250.5,114,249.8,114z"/>
	<path class="st2_salesman-100" d="M252.5,118.4c-0.6,0-1.2-0.1-1.8-0.2c-0.4-0.1-0.6-0.5-0.5-0.9c0.1-0.4,0.5-0.6,0.9-0.5&#xA;&#9;&#9;c1.1,0.3,2.3,0.2,3.3-0.3c0.8-0.5,1.4-1.4,1.6-2.3c0.1-0.4,0.5-0.6,0.9-0.5c0.4,0.1,0.6,0.5,0.5,0.9l0,0c-0.3,1.3-1.1,2.5-2.3,3.2&#xA;&#9;&#9;C254.3,118.2,253.4,118.4,252.5,118.4z"/>
	<path class="st2_salesman-100" d="M259.7,103.8c-0.2,0-0.4-0.1-0.5-0.2c-0.6-0.6-1.3-1-2.2-1.2c-0.6,0-1.2,0.2-1.6,0.7c-0.2,0.3-0.7,0.4-1,0.2&#xA;&#9;&#9;c-0.3-0.2-0.4-0.7-0.2-1c0.1-0.1,0.1-0.1,0.2-0.2c0.7-0.7,1.7-1,2.7-1c1.2,0.1,2.3,0.7,3.1,1.6c0.3,0.3,0.2,0.7,0,1c0,0,0,0,0,0&#xA;&#9;&#9;C260,103.8,259.9,103.9,259.7,103.8z"/>
	<path class="st2_salesman-100" d="M247.3,103.9c-0.3,0-0.6-0.2-0.7-0.5l0,0c0,0-0.3-0.8-0.9-0.9s-1.3,0.3-1.8,0.8c-0.3,0.3-0.7,0.2-1-0.1&#xA;&#9;&#9;c0,0,0,0,0,0c-0.3-0.3-0.2-0.7,0-1c0,0,0,0,0,0c0.8-0.9,1.9-1.3,3.1-1.1c0.9,0.3,1.5,1,1.8,1.8c0.1,0.4-0.1,0.8-0.4,0.9&#xA;&#9;&#9;C247.5,103.9,247.4,103.9,247.3,103.9z"/>
	<polygon class="st1_salesman-100" points="258,142.9 262.4,145.9 259.6,150.7 265.8,183.1 257.9,191.4 251.8,179.5 256.2,149.9 254,145.4 &#9;"/>
	<path class="st2_salesman-100" d="M236.4,132c-0.3,0.1,1.4,22.2,22.3,47.3c0,0,3.4-0.4,13.1-21.4s8.3-28.3,8.3-28.3c3.1,0,6.2,0.5,9.1,1.4&#xA;&#9;&#9;c3.3,1,6.5,2.4,9.3,4.3c0,0-8,34.3,12.7,52l-4.1,48.2l-77.3-4.6l-3.1-43.3c0,0,3.3-3.6,4.9-22c1-10.5,0.8-21.2-0.6-31.7L236.4,132z&#xA;&#9;&#9;"/>
	
		<rect x="264.5" y="193.7" transform="matrix(4.187566e-02 -0.9991 0.9991 4.187566e-02 23.1813 490.9652)" class="st1_salesman-100" width="6.2" height="79.3"/>
	<path class="st2_salesman-100" d="M307.1,238.9L307.1,238.9l-79.3-3.3c-0.2,0-0.4-0.1-0.5-0.2c-0.1-0.1-0.2-0.3-0.2-0.5l0.3-6.2&#xA;&#9;&#9;c0-0.4,0.4-0.7,0.8-0.7l79.3,3.3c0.2,0,0.4,0.1,0.5,0.2c0.1,0.1,0.2,0.3,0.2,0.5l-0.3,6.2C307.8,238.6,307.5,238.9,307.1,238.9&#xA;&#9;&#9;C307.1,238.9,307.1,238.9,307.1,238.9z M228.6,234.1l77.8,3.3l0.2-4.8l-77.8-3.3L228.6,234.1z"/>
	
		<rect x="261.9" y="225.1" transform="matrix(4.187566e-02 -0.9991 0.9991 4.187566e-02 20.3971 490.6286)" class="st1_salesman-100" width="8.1" height="19.2"/>
	<path class="st2_salesman-100" d="M275.5,239.9L275.5,239.9l-19.2-0.8c-0.2,0-0.4-0.1-0.5-0.2c-0.1-0.1-0.2-0.3-0.2-0.5l0.3-8.1&#xA;&#9;&#9;c0-0.4,0.4-0.7,0.8-0.7l19.2,0.8c0.4,0,0.7,0.4,0.7,0.8c0,0,0,0,0,0l-0.3,8.1C276.2,239.6,275.9,239.9,275.5,239.9z M257,237.6&#xA;&#9;&#9;l17.8,0.7l0.3-6.7l-17.8-0.7L257,237.6z"/>
	<path class="st2_salesman-100" d="M247.2,109h-6.7c-1.8,0-3.2-1.4-3.2-3.2c0,0,0,0,0,0v-3.7c0-1.8,1.4-3.2,3.2-3.2l0,0h6.7&#xA;&#9;&#9;c1.8,0,3.2,1.4,3.2,3.2c0,0,0,0,0,0v3.7C250.4,107.6,249,109,247.2,109L247.2,109z M240.5,100.3c-1,0-1.8,0.8-1.8,1.8v3.7&#xA;&#9;&#9;c0,1,0.8,1.8,1.8,1.8h6.7c1,0,1.8-0.8,1.8-1.8v-3.7c0-1-0.8-1.8-1.8-1.8H240.5z"/>
	<path class="st2_salesman-100" d="M261.5,109h-6.7c-1.8,0-3.2-1.4-3.2-3.2c0,0,0,0,0,0v-3.7c0-1.8,1.4-3.2,3.2-3.2l0,0h6.7&#xA;&#9;&#9;c1.8,0,3.2,1.4,3.2,3.2c0,0,0,0,0,0v3.7C264.7,107.6,263.3,109,261.5,109L261.5,109z M254.8,100.3c-1,0-1.8,0.8-1.8,1.8v3.7&#xA;&#9;&#9;c0,1,0.8,1.8,1.8,1.8h6.7c1,0,1.8-0.8,1.8-1.8v0v-3.7c0-1-0.8-1.8-1.8-1.8l0,0H254.8z"/>
	<path class="st2_salesman-100" d="M252.3,101.7h-2.1c-0.4,0-0.7-0.3-0.7-0.7c0-0.4,0.3-0.7,0.7-0.7h2.1c0.4,0,0.7,0.3,0.7,0.7&#xA;&#9;&#9;C253,101.4,252.7,101.7,252.3,101.7z"/>
</g>
<g id="Document_salesman-100">
	
		<rect x="149.4" y="131.6" transform="matrix(3.996804e-02 -0.9992 0.9992 3.996804e-02 17.269 348.2555)" class="st2_salesman-100" width="80.9" height="67.1"/>
	
		<rect x="152.3" y="137" transform="matrix(4.187566e-02 -0.9991 0.9991 4.187566e-02 16.2481 347.6558)" class="st1_salesman-100" width="74.1" height="56.6"/>
	<path class="st2_salesman-100" d="M216.1,204.3L216.1,204.3l-56.6-2.4c-0.2,0-0.4-0.1-0.5-0.2c-0.1-0.1-0.2-0.3-0.2-0.5l3.1-74.1&#xA;&#9;&#9;c0-0.4,0.4-0.7,0.8-0.7l56.6,2.4c0.4,0,0.7,0.4,0.7,0.7c0,0,0,0,0,0l-3.1,74.1C216.9,204,216.6,204.3,216.1,204.3L216.1,204.3z&#xA;&#9;&#9; M160.3,200.5l55.1,2.3l3-72.6l-55.1-2.3L160.3,200.5z"/>
	<path class="st1_salesman-100" d="M182.9,125.6l20.4,0.8c0.9,0,1.6,0.8,1.6,1.7l-0.2,4.1c0,0.9-0.8,1.6-1.7,1.6l-20.4-0.8&#xA;&#9;&#9;c-0.9,0-1.6-0.8-1.6-1.7l0.2-4.1C181.2,126.3,182,125.6,182.9,125.6z"/>
	<path class="st2_salesman-100" d="M202,134.8h-0.1l-19.1-0.8c-1.7,0-3-1.4-2.9-3.1c0,0,0-0.1,0-0.1l0.1-2.8c0-0.8,0.4-1.6,1-2.1&#xA;&#9;&#9;c0.6-0.5,1.4-0.8,2.2-0.8l19.1,0.8c0.8,0,1.6,0.4,2.1,1c0.6,0.6,0.8,1.4,0.8,2.2l-0.1,2.8C205,133.5,203.6,134.8,202,134.8z&#xA;&#9;&#9; M201.9,133.3c0.9,0,1.6-0.7,1.7-1.5l0.1-2.8c0-0.9-0.6-1.6-1.5-1.7c0,0,0,0,0,0l-19.1-0.8c-0.4,0-0.8,0.1-1.1,0.4&#xA;&#9;&#9;c-0.3,0.3-0.5,0.7-0.5,1.1l-0.1,2.8c0,0.9,0.7,1.6,1.5,1.7L201.9,133.3z"/>
	<path class="st0_salesman-100" d="M191.5,146.4L191.5,146.4l-22.9-0.9c-0.4,0-0.7-0.3-0.7-0.7c0-0.4,0.3-0.7,0.7-0.7c0,0,0,0,0,0l22.9,1&#xA;&#9;&#9;c0.4,0,0.7,0.4,0.6,0.8C192.1,146.1,191.9,146.4,191.5,146.4L191.5,146.4z"/>
	<path class="st0_salesman-100" d="M212.7,147.2L212.7,147.2l-5.4-0.2c-0.4,0-0.7-0.3-0.7-0.7c0-0.4,0.3-0.7,0.7-0.7c0,0,0,0,0,0l5.4,0.2&#xA;&#9;&#9;c0.4,0,0.7,0.3,0.7,0.7C213.4,146.9,213.1,147.2,212.7,147.2L212.7,147.2z"/>
	<path class="st0_salesman-100" d="M186,154L186,154l-17.7-0.7c-0.4,0-0.7-0.3-0.7-0.7c0-0.4,0.3-0.7,0.7-0.7c0,0,0,0,0.1,0l17.7,0.7&#xA;&#9;&#9;c0.4,0,0.7,0.3,0.7,0.7C186.7,153.7,186.4,154,186,154L186,154z"/>
	<path class="st0_salesman-100" d="M212.4,155.1L212.4,155.1l-7.7-0.3c-0.4,0-0.7-0.3-0.7-0.7c0-0.4,0.3-0.7,0.7-0.7c0,0,0,0,0,0l7.7,0.3&#xA;&#9;&#9;c0.4,0,0.7,0.3,0.7,0.7C213.1,154.7,212.8,155,212.4,155.1L212.4,155.1z"/>
	<path class="st0_salesman-100" d="M195,162.1L195,162.1l-27-1.1c-0.4,0-0.7-0.3-0.7-0.7c0,0,0,0,0,0c0-0.4,0.3-0.7,0.6-0.7c0,0,0.1,0,0.1,0&#xA;&#9;&#9;l27,1.1c0.4,0,0.7,0.3,0.7,0.7C195.8,161.8,195.4,162.1,195,162.1L195,162.1z"/>
	<path class="st0_salesman-100" d="M212,162.9L212,162.9l-5.4-0.2c-0.4,0-0.7-0.3-0.7-0.7c0,0,0,0,0,0c0-0.4,0.3-0.7,0.7-0.7c0,0,0,0,0.1,0&#xA;&#9;&#9;l5.4,0.2c0.4,0,0.7,0.3,0.7,0.7C212.7,162.6,212.4,162.9,212,162.9C212,162.9,212,162.9,212,162.9z"/>
	<path class="st0_salesman-100" d="M180.7,169.4L180.7,169.4l-13.1-0.5c-0.4,0-0.7-0.3-0.7-0.7c0-0.4,0.3-0.7,0.7-0.7c0,0,0,0,0.1,0l13.1,0.6&#xA;&#9;&#9;c0.4,0,0.7,0.3,0.7,0.7c0,0,0,0,0,0C181.4,169.1,181.1,169.4,180.7,169.4C180.7,169.4,180.7,169.4,180.7,169.4z"/>
	<path class="st0_salesman-100" d="M211.7,170.7L211.7,170.7l-8.9-0.4c-0.4,0-0.7-0.3-0.7-0.7c0-0.4,0.3-0.7,0.7-0.7c0,0,0,0,0,0l8.9,0.4&#xA;&#9;&#9;c0.4,0,0.7,0.3,0.7,0.7C212.5,170.4,212.1,170.7,211.7,170.7L211.7,170.7z"/>
	<path class="st0_salesman-100" d="M188.9,177.5L188.9,177.5l-21.6-0.9c-0.4,0-0.7-0.3-0.7-0.7c0-0.4,0.3-0.7,0.7-0.7c0,0,0,0,0.1,0l21.6,0.9&#xA;&#9;&#9;c0.4,0,0.7,0.3,0.7,0.7C189.7,177.2,189.4,177.5,188.9,177.5L188.9,177.5z"/>
	<path class="st0_salesman-100" d="M211.4,178.5L211.4,178.5l-5.4-0.2c-0.4,0-0.7-0.3-0.7-0.7c0-0.4,0.3-0.7,0.7-0.7c0,0,0,0,0.1,0l5.4,0.2&#xA;&#9;&#9;c0.4,0,0.7,0.3,0.7,0.7C212.1,178.2,211.8,178.5,211.4,178.5L211.4,178.5z"/>
	<path class="st0_salesman-100" d="M183.7,185.1L183.7,185.1l-16.7-0.7c-0.4,0-0.7-0.3-0.7-0.7c0,0,0,0,0,0c0-0.4,0.3-0.7,0.7-0.7c0,0,0,0,0.1,0&#xA;&#9;&#9;l16.7,0.7c0.4,0,0.7,0.3,0.7,0.7C184.5,184.8,184.2,185.1,183.7,185.1L183.7,185.1z"/>
	<path class="st0_salesman-100" d="M211.1,186.3L211.1,186.3l-8.9-0.4c-0.4,0-0.7-0.3-0.7-0.7c0-0.4,0.3-0.7,0.7-0.7c0,0,0,0,0,0l8.9,0.4&#xA;&#9;&#9;c0.4,0,0.7,0.3,0.7,0.7C211.8,186,211.5,186.3,211.1,186.3L211.1,186.3z"/>
	<circle class="st0_salesman-100" cx="205.3" cy="194.6" r="3.6"/>
	<path class="st0_salesman-100" d="M196.9,194.4L196.9,194.4l-4.1-0.2c-0.4,0-0.7-0.3-0.7-0.7c0-0.4,0.3-0.7,0.7-0.7c0,0,0,0,0,0l4.1,0.2&#xA;&#9;&#9;c0.4,0,0.7,0.3,0.7,0.7C197.6,194,197.3,194.4,196.9,194.4L196.9,194.4z"/>
</g>
<g id="Bliings_salesman-100">
	<path class="st0_salesman-100" d="M158.4,213.5c0,0-0.7,8.7-10.7,10.8c5.2,0.6,9.6,4.3,11.2,9.3c0,0,1.1-10,9.4-10.1&#xA;&#9;&#9;C168.4,223.6,158.7,221.8,158.4,213.5z"/>
	<path class="st0_salesman-100" d="M212.2,99.6c-0.4,3-2.7,5.3-5.7,5.8c2.8,0.3,5.2,2.3,6,5c0,0,0.6-5.3,5-5.4C217.5,105,212.4,104,212.2,99.6z"/>
	<path class="st0_salesman-100" d="M146.5,108.4c0,0-3.7,7.7-13.6,6.2c4.6,2.4,7.3,7.3,7,12.5c0,0,4.5-8.8,12.1-6&#xA;&#9;&#9;C152,121.1,143.8,116,146.5,108.4z"/>
</g>
<g id="Hands_salesman-100">
	<path class="st1_salesman-100" d="M311.3,187.4c0,0,3.7,33.1-1.6,37.6s-74.9-4.3-74.9-4.3s-18,1.9-22.9-1s-28.4-8.2-23.9-9.9s19.9-0.6,24.1-0.5&#xA;&#9;&#9;c0,0-10.5-4.9-6.5-5.3s17.8,4.8,21.8,4.9s56.8-0.8,56.8-0.8l2-13.4"/>
	<path class="st2_salesman-100" d="M299.2,227c-19.6,0-58.6-4.8-64.4-5.6c-1.5,0.2-18.3,1.8-23.2-1c-1.9-1.1-6.7-2.6-11.4-4.1&#xA;&#9;&#9;c-10.3-3.3-13.4-4.4-13.4-5.9c0-0.4,0.2-0.9,1-1.2c3.8-1.4,14.7-1,21-0.7c-4.9-2.6-4.8-3.7-4.7-4.1c0.1-0.6,0.6-1,1.5-1&#xA;&#9;&#9;c2.4-0.2,7.7,1.3,12.8,2.7c3.8,1.1,7.5,2.1,9.1,2.2c3.7,0.1,50.2-0.7,56.1-0.8l1.9-12.8c0.1-0.4,0.4-0.7,0.8-0.6&#xA;&#9;&#9;c0.4,0.1,0.7,0.4,0.6,0.8l0,0l-2,13.4c-0.1,0.3-0.3,0.6-0.7,0.6c-2.2,0-52.9,1-56.8,0.9c-1.8-0.1-5.6-1.1-9.5-2.3&#xA;&#9;&#9;c-4.8-1.4-10.1-2.9-12.2-2.7l0,0c2.1,1.6,4.4,2.9,6.8,4c0.3,0.1,0.5,0.5,0.4,0.8c-0.1,0.3-0.4,0.6-0.7,0.6l-2-0.1&#xA;&#9;&#9;c-5.3-0.3-17.7-0.9-21.7,0.5c1.4,1.1,7.8,3.1,12.2,4.4c5,1.6,9.7,3.1,11.7,4.2c4.6,2.7,22.2,0.9,22.4,0.9h0.2&#xA;&#9;&#9;c27.9,3.5,70.6,7.6,74.3,4.5c4.1-3.5,2.3-27.9,1.3-37c-0.1-0.4,0.2-0.8,0.6-0.8c0.4-0.1,0.8,0.2,0.8,0.6c0,0,0,0,0,0.1&#xA;&#9;&#9;c0.4,3.4,3.6,33.7-1.8,38.3C309,226.6,304.9,227,299.2,227z"/>
	<path class="st3_salesman-100 targetColor" d="M298.6,135.4c0,0,19.6,30.2,18.6,54.8l-31.7,8.7l-6-15C279.5,183.9,275.9,150.6,298.6,135.4z" style="fill: rgb(214, 0, 36);"/>
	<path class="st1_salesman-100" d="M147.4,171.7c0.9-6.6,1.8-13.7,6.1-19c1-1.3,4.6-5.3,6.4-3.7s-0.6,3.4-1.7,4.2c-2,1.6-3.7,3.7-4.9,6&#xA;&#9;&#9;c1.7-1.7,3.6-3.2,5.7-4.4c0.5-0.4,1.1-0.6,1.7-0.8c0.6-0.2,1.3,0.1,1.7,0.6c0.3,0.5,0.3,1.1,0,1.6c-0.3,0.5-0.6,1-1.1,1.4&#xA;&#9;&#9;c-1.9,2-3.6,4.3-5,6.7c1.3-1.8,3.2-3.2,5.3-4c0.7-0.3,1.7-0.4,2.2,0.2s0,1.6-0.5,2.3l-4.3,5.6c0.6-0.7,2.7-1.8,3.6-1.1&#xA;&#9;&#9;c1.2,0.9-0.7,2.2-1.4,2.8c-1.2,1.4-2.3,3-3.1,4.7c-0.5,0.9-1.1,1.8-1.7,2.6C152.4,182.5,146.7,176.6,147.4,171.7z"/>
	<path class="st2_salesman-100" d="M152.9,180c-0.6,0-1.2-0.1-1.8-0.4c-3-1.5-4.8-4.7-4.4-8.1l0.7,0.1l-0.7-0.1l0.7,0.1l-0.7-0.2&#xA;&#9;&#9;c0.9-6.5,1.9-13.8,6.3-19.3c0.5-0.7,3.4-4.1,5.8-4.3c0.6-0.1,1.2,0.1,1.7,0.5c0.6,0.4,0.9,1.1,0.9,1.8c0,1.4-1.5,2.6-2.4,3.4&#xA;&#9;&#9;l-0.2,0.1c-0.5,0.4-1,0.9-1.5,1.4l1.5-1c0.6-0.4,1.2-0.7,1.9-0.9c0.9-0.2,1.9,0.1,2.4,0.9c0.4,0.7,0.5,1.6,0.1,2.4&#xA;&#9;&#9;c-0.3,0.5-0.7,1-1.1,1.5c-0.7,0.7-1.3,1.4-1.9,2.2c0.4-0.2,0.9-0.4,1.3-0.6c1.3-0.5,2.4-0.3,3,0.5c0.4,0.6,0.7,1.6-0.6,3.2&#xA;&#9;&#9;l-2.4,3.1c0.5-0.1,1.1,0,1.6,0.3c0.4,0.3,0.7,0.7,0.7,1.2c0,1-0.9,1.8-1.7,2.4c-0.1,0.1-0.2,0.2-0.4,0.3c-1,1-1.7,2.2-2.3,3.4&#xA;&#9;&#9;c-0.2,0.4-0.4,0.7-0.6,1.1c-0.5,0.9-1.1,1.8-1.8,2.6C156,179,154.5,179.9,152.9,180z M159,149.3h-0.1c-1.3,0.1-3.4,2.1-4.8,3.8&#xA;&#9;&#9;c-4.1,5.2-5.1,12-6,18.6v0.1c-0.3,2.7,1.1,5.3,3.5,6.5c1.5,0.6,2.9,0.1,4.2-1.5c0.6-0.8,1.2-1.6,1.7-2.5l0.6-1.1&#xA;&#9;&#9;c0.7-1.4,1.5-2.7,2.6-3.8c0.1-0.1,0.2-0.2,0.4-0.4s1.2-1,1.2-1.3c-0.6-0.4-2.2,0.4-2.7,0.9c-0.3,0.3-0.7,0.3-1,0.1&#xA;&#9;&#9;c-0.3-0.3-0.3-0.7-0.1-1l0,0l4.3-5.6c0.5-0.6,0.7-1.2,0.5-1.4s-0.8-0.2-1.3,0c-2,0.7-3.7,2.1-4.9,3.8c-0.2,0.3-0.7,0.4-1,0.2&#xA;&#9;&#9;c-0.3-0.2-0.4-0.7-0.2-1c0,0,0,0,0,0c1.4-2.5,3.2-4.8,5.1-6.9c0.4-0.3,0.7-0.7,0.9-1.2c0.2-0.3,0.2-0.6,0-0.9&#xA;&#9;&#9;c-0.3-0.3-0.6-0.4-1-0.3c-0.5,0.1-1,0.4-1.4,0.7c-2,1.2-3.9,2.7-5.6,4.3c-0.2,0.3-0.6,0.3-0.9,0.1c-0.3-0.2-0.4-0.6-0.2-0.9&#xA;&#9;&#9;c1.2-2.4,3-4.5,5.1-6.2l0.2-0.1c0.7-0.5,1.9-1.5,1.9-2.3c0-0.1,0-0.4-0.4-0.7C159.3,149.3,159.1,149.3,159,149.3z"/>
</g>
</svg>