<svg version="1.1" id="Layer_1" xmlns="http://www.w3.org/2000/svg" xmlns:xlink="http://www.w3.org/1999/xlink" x="0px" y="0px" viewBox="0 0 500 500" style="width: 166px;" xml:space="preserve" data-imageid="customer-service-1-33" imageName="Customer Service 1" class="illustrations_image">
<style type="text/css">
	.st0_customer-service-1-33{fill:#68E1FD;}
	.st1_customer-service-1-33{fill:#231F20;}
	.st2_customer-service-1-33{fill:#D1D3D4;}
	.st3_customer-service-1-33{fill:#FFFFFF;}
</style>
<g id="Character_customer-service-1-33">
	<path class="st0_customer-service-1-33 targetColor" d="M225.7,224.1c0,0-46.8-18.3-62.6-5.7s-63.4,148.5-54.7,171.3s74.3,11.3,74.3,11.3s184.1,10.9,202.8,3.9&#xA;&#9;&#9;c27.9-10.5-33.9-174.4-43.2-183.2s-51.8,6.3-51.8,6.3" style="fill: rgb(214, 0, 36);"/>
	<path class="st1_customer-service-1-33" d="M187.1,363.4c-0.1,0-0.3,0-0.4-0.1c-21.9-15-50-11.1-50.3-11.1c-0.4,0.1-0.7-0.2-0.8-0.6&#xA;&#9;&#9;c-0.1-0.4,0.2-0.7,0.6-0.8l0,0c0.3,0,29-4,51.3,11.3c0.3,0.2,0.4,0.6,0.2,1c0,0,0,0,0,0C187.5,363.3,187.3,363.4,187.1,363.4z"/>
	<path class="st1_customer-service-1-33" d="M322.7,363.4c-0.2,0-0.4-0.1-0.6-0.3c-0.2-0.3-0.2-0.7,0.1-1c0,0,0,0,0,0c22.4-15.3,51-11.4,51.3-11.3&#xA;&#9;&#9;c0.4,0.1,0.7,0.4,0.6,0.8s-0.4,0.7-0.8,0.6l0,0c-0.3,0-28.4-3.9-50.3,11.1C323,363.3,322.9,363.4,322.7,363.4z"/>
	<path class="st1_customer-service-1-33" d="M172.9,343.2L172.9,343.2c-0.4,0-0.7-0.4-0.7-0.7c0,0,0,0,0,0l4.9-83.3c0-0.4,0.4-0.7,0.7-0.7c0,0,0,0,0,0&#xA;&#9;&#9;c0.4,0,0.7,0.4,0.7,0.7l-4.9,83.3C173.6,342.9,173.3,343.2,172.9,343.2z"/>
	<path class="st1_customer-service-1-33" d="M322.7,343.2c-0.4,0-0.7-0.3-0.7-0.7v0v-79.8c0-0.4,0.3-0.7,0.7-0.7c0.4,0,0.7,0.3,0.7,0.7v79.8&#xA;&#9;&#9;C323.4,342.9,323.1,343.2,322.7,343.2z"/>
	<path class="st1_customer-service-1-33" d="M209.5,218.9c0,0,16,83.9,46.2,123.6c0,0,40.9-73.2,48.8-118.8c0,0-31,5.9-42.5,6.1S209.5,218.9,209.5,218.9z"/>
	<path class="st1_customer-service-1-33" d="M255.6,343.2c-0.2,0-0.4-0.1-0.6-0.3C225.2,303.5,209,219.8,208.8,219c-0.1-0.2,0-0.5,0.2-0.6&#xA;&#9;&#9;c0.2-0.2,0.4-0.2,0.7-0.2c0.4,0.1,40.6,10.9,52.1,10.9h0.2c11.3-0.1,42-6,42.4-6.1c0.2,0,0.5,0,0.6,0.2c0.2,0.2,0.2,0.4,0.2,0.6&#xA;&#9;&#9;c-7.9,45.2-48.5,118.3-48.9,119C256.2,343,255.9,343.2,255.6,343.2L255.6,343.2z M210.4,219.8c2,9.9,17.8,84.4,45.2,121.4&#xA;&#9;&#9;c4.7-8.7,40.3-74.4,48-116.6c-5.5,1-31.2,5.8-41.6,5.9h-0.2C251.1,230.5,217.1,221.6,210.4,219.8z"/>
	<polygon class="st2_customer-service-1-33" points="246,249.9 252.5,261.1 236.2,309.4 255.6,342.5 273.4,307.9 260.5,261.3 267.3,249.9 256.6,239.2 &#9;"/>
	<path class="st1_customer-service-1-33" d="M255.6,343.2c-0.2,0-0.5-0.1-0.6-0.3l-19.4-33c-0.1-0.2-0.1-0.4-0.1-0.6l16.2-48l-6.3-11&#xA;&#9;&#9;c-0.2-0.3-0.1-0.6,0.1-0.8l10.5-10.6c0.1-0.2,0.3-0.2,0.5-0.2c0.2,0,0.4,0.1,0.5,0.2l10.7,10.6c0.2,0.2,0.3,0.6,0.1,0.9l-6.6,11.2&#xA;&#9;&#9;l12.8,46.3c0,0.2,0,0.4,0,0.5l-17.8,34.5C256.1,343,255.9,343.2,255.6,343.2L255.6,343.2z M237,309.4l18.6,31.6l17.1-33.2&#xA;&#9;&#9;l-12.8-46.3c0-0.2,0-0.4,0.1-0.5l6.5-11l-9.9-9.8l-9.7,9.8l6.2,10.8c0.1,0.2,0.1,0.4,0.1,0.6L237,309.4z"/>
	<polygon class="st1_customer-service-1-33" points="223.3,215.8 284.8,216 283.7,239.5 240.3,239.5 219.2,229.4 &#9;"/>
	<path class="st1_customer-service-1-33" d="M283.7,240.2h-43.4c-0.1,0-0.2,0-0.3-0.1L218.9,230c-0.3-0.2-0.5-0.5-0.4-0.8l4.1-13.6&#xA;&#9;&#9;c0.1-0.3,0.4-0.5,0.7-0.5l0,0l61.5,0.2c0.4,0,0.7,0.3,0.7,0.7c0,0,0,0,0,0l-1.1,23.5C284.4,239.9,284.1,240.2,283.7,240.2&#xA;&#9;&#9;C283.7,240.2,283.7,240.2,283.7,240.2z M240.4,238.8H283l1-22.1l-60.2-0.2L220,229L240.4,238.8z"/>
	<path class="st3_customer-service-1-33" d="M300.8,156.1c3.3-7.3,4.2-17,5.5-24.8c0.6-3.5,2.4-8.1,1.9-11.7c-0.4-2.5-2-4.5-2.2-7.3&#xA;&#9;&#9;c-0.1-2.5-0.1-5.2-1.5-7.2s-4.8-3-6.3-1c2-6.2,3.2-12.7,3.5-19.2c-5.3,2.4-11.2,3.4-17,2.8c2.3-1.9,4.3-4.2,5.9-6.8&#xA;&#9;&#9;c-5.1,3.8-12.2,2.6-18.5,1.8c-14.5-1.8-29.7,0-42.3,7.3c-4.1,2.3-8.1,5.8-8.6,10.5c-3.1-0.8-6.6,0.7-8.8,3.1&#xA;&#9;&#9;c-2.1,2.5-3.5,5.5-4.1,8.7c-4.3,18.5,2.7,34.4,4.6,52.7c13.7,0.8,27.4,2,41.2,1.8C265.1,166.6,294.9,169.1,300.8,156.1z"/>
	<path class="st1_customer-service-1-33" d="M265.4,167.6c-2.1,0-4.1,0-5.9-0.1c-2,0-3.9,0-5.3,0c-11.2,0.2-22.5-0.6-33.5-1.3l-7.8-0.5&#xA;&#9;&#9;c-0.3,0-0.6-0.3-0.6-0.6c-0.6-5.9-1.7-11.6-2.9-17.1c-2.4-11.9-4.6-23.1-1.7-35.8c0.9-4,2.3-6.9,4.3-9.1c2.2-2.5,5.4-3.8,8.7-3.4&#xA;&#9;&#9;c0.7-3.8,3.6-7.2,8.8-10.2c11.7-6.8,26.9-9.4,42.7-7.4l1.4,0.2c6,0.8,12.1,1.6,16.6-1.8c0.3-0.2,0.6-0.2,0.9,0&#xA;&#9;&#9;c0.3,0.2,0.3,0.6,0.1,0.9c-1.3,2.2-2.9,4.2-4.7,5.9c5.1,0.3,10.3-0.7,14.9-2.9c0.4-0.2,0.8,0,0.9,0.4c0,0.1,0.1,0.2,0.1,0.3&#xA;&#9;&#9;c-0.3,5.9-1.3,11.8-3,17.5c0.4-0.1,0.9-0.2,1.3-0.2c1.7,0.1,3.3,1,4.3,2.4c1.4,2,1.5,4.5,1.6,6.9v0.7c0.1,1.3,0.5,2.7,1.1,3.9&#xA;&#9;&#9;c0.5,1.1,0.9,2.2,1.1,3.4c0.4,2.5-0.4,5.4-1.1,8.3c-0.3,1.3-0.6,2.5-0.8,3.6c-0.2,1.4-0.5,3-0.7,4.5c-1,6.8-2.1,14.5-4.8,20.5&#xA;&#9;&#9;C296.9,166.5,279,167.6,265.4,167.6z M255.4,166.1c1.2,0,2.5,0,4,0c12.5,0.2,35.8,0.5,40.7-10.3l0,0c2.6-5.8,3.8-13.4,4.7-20.1&#xA;&#9;&#9;c0.2-1.6,0.5-3.1,0.7-4.5c0.2-1.2,0.5-2.4,0.8-3.7c0.7-2.7,1.4-5.5,1-7.7c-0.2-1-0.5-2-1-3c-0.7-1.4-1.1-2.8-1.2-4.3v-0.7&#xA;&#9;&#9;c-0.1-2.2-0.2-4.4-1.4-6.2c-0.7-1.1-1.9-1.7-3.2-1.8c-0.8-0.1-1.5,0.2-2,0.8c-0.2,0.3-0.7,0.4-1,0.1c-0.2-0.2-0.3-0.5-0.2-0.8&#xA;&#9;&#9;c1.8-5.8,3-11.8,3.4-17.9c-5.1,2.1-10.7,3-16.3,2.4c-0.4,0-0.7-0.4-0.6-0.8c0-0.2,0.1-0.3,0.3-0.5c1.5-1.2,2.8-2.6,4-4.2&#xA;&#9;&#9;c-4.5,1.9-10,1.2-15,0.5l-1.4-0.2c-15.5-2-30.4,0.6-41.8,7.2c-5.1,3-7.9,6.3-8.2,9.9c0,0.4-0.4,0.7-0.8,0.6c0,0-0.1,0-0.1,0&#xA;&#9;&#9;c-3-0.6-6.1,0.5-8.1,2.8c-1.8,2-3.1,4.7-3.9,8.4c-2.8,12.3-0.6,23.4,1.7,35.2c1.1,5.4,2.2,10.9,2.8,16.7l7.2,0.5&#xA;&#9;&#9;c10.9,0.7,22.2,1.5,33.4,1.3L255.4,166.1z"/>
	<path class="st3_customer-service-1-33" d="M225.7,232.7c0,0,11.4,5.8,30.9,6.5s22.8-4.6,22.8-4.6l-0.5-10.5l-1.1-24.3l-1-22.7l-44.6-1.6l-2.1,18.5&#xA;&#9;&#9;l-0.7,6L225.7,232.7z"/>
	<path class="st1_customer-service-1-33" d="M259.9,240c-1,0-2.2,0-3.3-0.1c-19.5-0.7-31.1-6.5-31.2-6.6c-0.3-0.1-0.4-0.4-0.4-0.7l6.5-57.2&#xA;&#9;&#9;c0-0.4,0.4-0.6,0.7-0.6l44.6,1.5c0.4,0,0.7,0.3,0.7,0.7l2.6,57.5c0,0.1,0,0.3-0.1,0.4C279.8,235.2,276.7,240,259.9,240z&#xA;&#9;&#9; M226.4,232.3c2.2,1,13.1,5.6,30.2,6.2c16.8,0.6,21.3-3.3,22.1-4.2l-2.5-56.6l-43.3-1.5L226.4,232.3z"/>
	<path class="st1_customer-service-1-33" d="M229.4,200.1c3.2,5.5,8.6,10,14.2,13.4c9.4,5.6,23.6,12.1,35.3,10.8l-1.1-24.3c-8.6,0.8-17.2,0.5-25.7-0.7&#xA;&#9;&#9;c-7.5-0.9-15.2-1.9-22-5.1L229.4,200.1z"/>
	<path class="st1_customer-service-1-33" d="M275.6,225c-12,0-25.2-6.8-32.3-11c-6.7-4.1-11.6-8.6-14.4-13.6c-0.1-0.1-0.1-0.3-0.1-0.4l0.7-6&#xA;&#9;&#9;c0-0.2,0.2-0.4,0.4-0.5c0.2-0.1,0.4-0.1,0.6,0c6.9,3.2,14.8,4.2,21.8,5c10.2,1.3,18.1,1.5,25.6,0.7c0.4,0,0.7,0.3,0.8,0.7&#xA;&#9;&#9;c0,0,0,0,0,0l1.1,24.3c0,0.4-0.3,0.7-0.6,0.7C277.8,225,276.7,225,275.6,225z M230.1,199.9c2.8,4.7,7.4,9,13.9,12.9&#xA;&#9;&#9;c7.5,4.5,21.9,11.9,34.2,10.7l-1-22.9c-7.4,0.7-15.2,0.5-25.1-0.8c-6.8-0.8-14.5-1.8-21.4-4.7L230.1,199.9z"/>
	<path class="st3_customer-service-1-33" d="M289.9,126.1c2.2,0.2,1.6,6.4,1.6,9.7v16.5c0,6.5,0.2,13,0,19.5c-0.1,2.3-0.4,4.6-0.9,6.9&#xA;&#9;&#9;c-3.8,15.8-18.2,26.7-34.4,26.1l-4-0.1c-15.2-0.5-28.2-11-32-25.7c-0.8-3.2-1.1-6.4-1-9.7c0.1-3.8,0-7.6,0-11.4&#xA;&#9;&#9;c0-4.8-2.5-16.5,3.1-18.7c1.8-0.7,3.8-0.6,5.7-0.9c5.6-0.7,10.7-3.6,14.1-8.1l-0.9,5.3c9.8,0.9,19.6-0.5,28.8-3.9&#xA;&#9;&#9;c4.5-1.7,9.1-4.3,11-8.7l-0.2,9.8c2.3-0.3,3.9-2.4,5.5-4.2S289.1,126,289.9,126.1z"/>
	<path class="st1_customer-service-1-33" d="M257.4,205.5h-1.2l-4-0.1c-15.5-0.6-28.7-11.2-32.6-26.2c-0.8-3.2-1.2-6.5-1.1-9.9c0.1-2.5,0-5.1,0-7.6&#xA;&#9;&#9;c0-1.3,0-2.5,0-3.8c0-1-0.1-2.2-0.2-3.7c-0.5-5.8-1.2-13.8,3.8-15.7c1.4-0.5,2.9-0.7,4.4-0.8c0.5,0,1-0.1,1.5-0.1&#xA;&#9;&#9;c5.4-0.6,10.3-3.4,13.6-7.8c0.2-0.3,0.5-0.3,0.8-0.2c0.3,0.1,0.5,0.4,0.4,0.8l-0.8,4.5c9.4,0.7,18.8-0.7,27.6-4&#xA;&#9;&#9;c5.8-2.2,9.1-4.8,10.5-8.3c0.1-0.4,0.6-0.5,0.9-0.4c0.3,0.1,0.4,0.4,0.4,0.7l-0.1,8.8c1.5-0.6,2.7-1.9,3.9-3.3l0.4-0.5&#xA;&#9;&#9;c1.8-2,3.1-2.9,4.2-2.7l0,0c2.5,0.3,2.4,4.7,2.3,8.6c0,0.6,0,1.2,0,1.8v16.5c0,2.2,0,4.3,0.1,6.5c0,4.3,0.1,8.7,0,13&#xA;&#9;&#9;C291.7,190.6,276.2,205.5,257.4,205.5L257.4,205.5z M241.1,132.7c-3.4,3.5-8,5.8-12.9,6.4c-0.5,0.1-1,0.1-1.6,0.1&#xA;&#9;&#9;c-1.4,0-2.7,0.3-4,0.7c-4,1.5-3.4,8.9-2.9,14.2c0.1,1.5,0.2,2.8,0.2,3.8c0,1.2,0,2.5,0,3.8c0,2.5,0.1,5.1,0,7.6&#xA;&#9;&#9;c-0.7,18.4,13.7,34,32.1,34.7c0.1,0,0.1,0,0.2,0l4,0.1c15.9,0.5,30-10.2,33.8-25.6c0.5-2.2,0.8-4.5,0.9-6.7c0.1-4.3,0.1-8.7,0-13&#xA;&#9;&#9;c0-2.2,0-4.3-0.1-6.5v-16.6c0-0.5,0-1.1,0-1.8c0-2.3,0.2-7.1-1-7.2l0,0c-0.3,0-1.1,0.1-3,2.3l-0.4,0.4c-1.5,1.7-3.1,3.6-5.5,3.9&#xA;&#9;&#9;c-0.4,0-0.7-0.2-0.8-0.6c0,0,0-0.1,0-0.1l0.1-7c-2,2.7-5.2,4.8-10,6.6c-9.2,3.5-19.2,4.9-29,4c-0.2,0-0.4-0.1-0.5-0.3&#xA;&#9;&#9;c-0.1-0.2-0.2-0.3-0.1-0.5L241.1,132.7z"/>
	<path class="st3_customer-service-1-33" d="M255.8,148c0,0,11.2,24.8,6.2,25.3s-12-3.3-12-3.3"/>
	<path class="st1_customer-service-1-33" d="M261.1,174c-5,0-11.2-3.2-11.5-3.4c-0.3-0.2-0.5-0.6-0.3-0.9c0,0,0,0,0,0c0.2-0.3,0.6-0.5,0.9-0.3&#xA;&#9;&#9;c0.1,0,6.9,3.6,11.6,3.2c0.2,0,0.3-0.1,0.4-0.2c1.5-2.6-3.6-16.1-7.2-24c-0.2-0.4,0-0.8,0.4-0.9c0.4-0.2,0.8,0,0.9,0.3c0,0,0,0,0,0&#xA;&#9;&#9;c1,2.2,9.5,21.2,7.2,25.3c-0.3,0.5-0.9,0.9-1.5,0.9C261.8,174,261.5,174,261.1,174z"/>
	<ellipse class="st1_customer-service-1-33" cx="242.7" cy="155.5" rx="2.4" ry="4.5"/>
	<ellipse class="st1_customer-service-1-33" cx="272.4" cy="155.5" rx="2.4" ry="4.5"/>
	<path class="st3_customer-service-1-33" d="M284.8,216c-0.9,0-28.5,23.2-28.5,23.2l17.1,19.9l18.2-34.8L284.8,216z"/>
	<path class="st1_customer-service-1-33" d="M273.4,259.9c-0.2,0-0.4-0.1-0.5-0.2l-17.1-19.9c-0.1-0.1-0.2-0.3-0.2-0.5c0-0.2,0.1-0.4,0.2-0.5&#xA;&#9;&#9;c27.8-23.4,28.6-23.4,28.9-23.4c0.2,0,0.4,0.1,0.5,0.2l6.9,8.4c0.2,0.2,0.2,0.5,0.1,0.8L274,259.5&#xA;&#9;&#9;C273.9,259.7,273.7,259.8,273.4,259.9L273.4,259.9z M257.3,239.3l16,18.6l17.5-33.5l-6.2-7.5C281.9,218.8,267.3,230.9,257.3,239.3z&#xA;&#9;&#9;"/>
	<path class="st3_customer-service-1-33" d="M223.3,215.8c0.9,0,33.3,23.4,33.3,23.4l-19.8,19.9l-19.7-38L223.3,215.8z"/>
	<path class="st1_customer-service-1-33" d="M236.8,259.9h-0.1c-0.2,0-0.4-0.2-0.5-0.4l-19.7-38c-0.1-0.3-0.1-0.6,0.2-0.9l6.2-5.3c0.1-0.1,0.3-0.2,0.5-0.2&#xA;&#9;&#9;c0.3,0,1.1,0,33.7,23.6c0.2,0.1,0.3,0.3,0.3,0.5c0,0.2-0.1,0.4-0.2,0.6l-19.8,19.9C237.2,259.8,237,259.9,236.8,259.9z M218,221.3&#xA;&#9;&#9;l19,36.7l18.5-18.7c-12-8.6-29.3-21.1-32.1-22.7L218,221.3z"/>
	<path class="st1_customer-service-1-33" d="M256.3,194.8c-0.3,0-0.7,0-1,0c-13.3-0.9-16.1-16.1-16.2-16.3c0-0.2,0-0.4,0.1-0.6c0.1-0.2,0.3-0.3,0.5-0.3&#xA;&#9;&#9;l35.6-1.2c0.2,0,0.5,0.1,0.6,0.3c0.1,0.2,0.2,0.4,0.1,0.7C275.7,178.1,268.9,194.8,256.3,194.8z M240.6,179&#xA;&#9;&#9;c0.8,3,4.2,13.6,14.7,14.4s17.2-11.8,18.9-15.5L240.6,179z"/>
	<path class="st3_customer-service-1-33" d="M208.9,130.8h10.3l0,0v44.8l0,0h-10.3c-5,0-9.1-4.1-9.1-9.1v-26.5C199.8,134.9,203.8,130.8,208.9,130.8&#xA;&#9;&#9;C208.9,130.8,208.9,130.8,208.9,130.8z"/>
	<path class="st1_customer-service-1-33" d="M219.2,176.3h-6.7c-7.4,0-13.5-6-13.5-13.5v-19.2c0-7.4,6-13.5,13.5-13.5h6.7c0.4,0,0.7,0.3,0.7,0.7v44.8&#xA;&#9;&#9;C219.9,176,219.6,176.3,219.2,176.3z M212.5,131.5c-6.7,0-12.1,5.4-12.1,12.1v19.2c0,6.7,5.4,12.1,12.1,12.1h6v-43.4L212.5,131.5z"/>
	<path class="st3_customer-service-1-33" d="M302,174.4h-10.3l0,0v-44.8l0,0H302c5,0,9.1,4.1,9.1,9.1v26.6C311.1,170.3,307,174.4,302,174.4z"/>
	<path class="st1_customer-service-1-33" d="M298.3,175.1h-6.7c-0.4,0-0.7-0.3-0.7-0.7c0,0,0,0,0,0v-44.8c0-0.4,0.3-0.7,0.7-0.7l0,0h6.7&#xA;&#9;&#9;c7.4,0,13.5,6,13.5,13.5v19.2C311.8,169.1,305.8,175.1,298.3,175.1z M292.3,173.7h6c6.7,0,12.1-5.4,12.1-12.1v-19.2&#xA;&#9;&#9;c0-6.7-5.4-12.1-12.1-12.1h-6V173.7z"/>
	<path class="st1_customer-service-1-33" d="M298.7,142c-0.8,0-1.4-0.6-1.4-1.4c0-23.4-14.6-42.4-32.6-42.4h-18.1c-18,0-32.6,19-32.6,42.4&#xA;&#9;&#9;c0,0.8-0.6,1.4-1.4,1.4c-0.8,0-1.4-0.6-1.4-1.4c0-24.9,15.9-45.2,35.4-45.2h18.1c19.5,0,35.4,20.3,35.4,45.2&#xA;&#9;&#9;C300.1,141.4,299.5,142,298.7,142z"/>
	<path class="st1_customer-service-1-33" d="M227.3,189.2c-6.7,0-12.2-0.3-13.1-1.4c-2.4-2.7-3.2-15.6-3.3-17.1c0-0.4,0.3-0.7,0.7-0.7c0,0,0,0,0,0&#xA;&#9;&#9;c0.4,0,0.7,0.2,0.7,0.6c0,0,0,0,0,0.1c0.2,3.8,1.1,14.2,2.9,16.2c1.5,1.5,22,1,41-0.2c0.4,0,0.7,0.3,0.8,0.7c0,0.4-0.3,0.7-0.7,0.7&#xA;&#9;&#9;C252.3,188.3,238.1,189.2,227.3,189.2z"/>
	<path class="st1_customer-service-1-33" d="M238.4,184.8h16.9c1.2,0,2.2,1,2.2,2.2v1.8c0,1.2-1,2.2-2.2,2.2h-16.9c-1.2,0-2.2-1-2.2-2.2v-1.8&#xA;&#9;&#9;C236.2,185.7,237.2,184.8,238.4,184.8z"/>
	<path class="st1_customer-service-1-33" d="M254.4,191.6h-15.1c-2.1,0.1-3.9-1.5-4-3.6c-0.1-2.1,1.5-3.9,3.6-4c0.1,0,0.3,0,0.4,0h15.1&#xA;&#9;&#9;c2.1,0.1,3.7,1.9,3.6,4C257.8,189.9,256.3,191.5,254.4,191.6z M239.2,185.5c-1.3-0.1-2.4,0.9-2.5,2.2c-0.1,1.3,0.9,2.4,2.2,2.5&#xA;&#9;&#9;c0.1,0,0.2,0,0.3,0h15.1c1.3-0.1,2.3-1.2,2.2-2.5c-0.1-1.2-1-2.1-2.2-2.2H239.2z"/>
	<path class="st1_customer-service-1-33" d="M247.2,161.4H232c-5,0-9-4.1-9-9.1v-8c0-0.4,0.3-0.7,0.7-0.7h32c0.4,0,0.7,0.3,0.7,0.7v8&#xA;&#9;&#9;C256.4,157.3,252.3,161.4,247.2,161.4C247.3,161.4,247.3,161.4,247.2,161.4z M224.4,145.1v7.2c0,4.2,3.4,7.7,7.6,7.7h15.2&#xA;&#9;&#9;c4.2,0,7.7-3.4,7.7-7.7v-7.2L224.4,145.1z"/>
	<path class="st1_customer-service-1-33" d="M284.4,161.4h-15.2c-5,0-9.1-4.1-9.1-9.1v-8c0-0.4,0.3-0.7,0.7-0.7l0,0h32c0.4,0,0.7,0.3,0.7,0.7c0,0,0,0,0,0&#xA;&#9;&#9;v8C293.5,157.3,289.4,161.4,284.4,161.4C284.4,161.4,284.4,161.4,284.4,161.4z M261.5,145.1v7.2c0,4.2,3.4,7.7,7.7,7.7h15.2&#xA;&#9;&#9;c4.2,0,7.7-3.4,7.7-7.7v-7.2L261.5,145.1z"/>
	<path class="st1_customer-service-1-33" d="M260.8,148.7c-0.1,0-0.3,0-0.4-0.1c-1.4-0.9-2.5-1.3-3.3-1c-0.3,0.1-0.6,0.4-0.7,0.7c-0.1,0.4-0.5,0.6-0.9,0.4&#xA;&#9;&#9;c-0.4-0.1-0.6-0.5-0.4-0.9l0,0c0.3-0.7,0.8-1.3,1.6-1.6c1.2-0.4,2.7,0,4.5,1.2c0.3,0.2,0.4,0.7,0.2,1c0,0,0,0,0,0&#xA;&#9;&#9;C261.3,148.7,261,148.8,260.8,148.7z"/>
	<path class="st1_customer-service-1-33" d="M223.7,148.7h-4.5c-0.4,0-0.7-0.3-0.7-0.7c0-0.4,0.3-0.7,0.7-0.7h4.5c0.4,0,0.7,0.3,0.7,0.7&#xA;&#9;&#9;C224.4,148.4,224,148.7,223.7,148.7z"/>
	<path class="st2_customer-service-1-33" d="M206.9,156.2h-5.4c-0.4,0-0.7-0.3-0.7-0.7c0-0.4,0.3-0.7,0.7-0.7c0,0,0,0,0,0h5.4c0.4,0,0.7,0.3,0.7,0.7&#xA;&#9;&#9;C207.6,155.8,207.3,156.2,206.9,156.2C206.9,156.2,206.9,156.2,206.9,156.2z"/>
	<path class="st2_customer-service-1-33" d="M206.9,161.4h-5.4c-0.4,0-0.7-0.3-0.7-0.7c0-0.4,0.3-0.7,0.7-0.7c0,0,0,0,0,0h5.4c0.4,0,0.7,0.3,0.7,0.7&#xA;&#9;&#9;C207.6,161.1,207.3,161.4,206.9,161.4C206.9,161.4,206.9,161.4,206.9,161.4z"/>
</g>
<g id="Laptop_customer-service-1-33">
	<polygon class="st1_customer-service-1-33" points="340.7,410.3 160.9,410.3 144.6,292.8 356.9,292.8 &#9;"/>
	<path class="st1_customer-service-1-33" d="M340.7,411H160.9c-0.4,0-0.6-0.3-0.7-0.6L144,292.8c-0.1-0.4,0.2-0.7,0.6-0.8c0,0,0.1,0,0.1,0h212.2&#xA;&#9;&#9;c0.2,0,0.4,0.1,0.5,0.2c0.1,0.2,0.2,0.4,0.2,0.5l-16.2,117.5C341.3,410.7,341,411,340.7,411z M161.5,409.6h178.6l16-116.1H145.4&#xA;&#9;&#9;L161.5,409.6z"/>
	<path class="st1_customer-service-1-33" d="M157.6,410.3h186c1.7,0,3.1,1.4,3.1,3.1v2.5c0,1.7-1.4,3.1-3.1,3.1h-186c-1.7,0-3.1-1.4-3.1-3.1v-2.5&#xA;&#9;&#9;C154.5,411.7,155.9,410.3,157.6,410.3z"/>
	<path class="st1_customer-service-1-33" d="M342.3,419.7H158.9c-2.8,0-5.1-2.3-5.1-5.1s2.3-5.1,5.1-5.1l0,0h183.5c2.8,0,5.1,2.3,5.1,5.1&#xA;&#9;&#9;S345.1,419.7,342.3,419.7z M158.9,411c-2,0-3.7,1.6-3.7,3.7s1.6,3.7,3.7,3.7c0,0,0,0,0,0h183.5c2,0,3.7-1.6,3.7-3.7&#xA;&#9;&#9;s-1.6-3.7-3.7-3.7c0,0,0,0,0,0H158.9z"/>
	<path class="st3_customer-service-1-33" d="M334.1,411H158.9c-0.4,0-0.7-0.3-0.7-0.7c0-0.4,0.3-0.7,0.7-0.7h175.3c0.4,0,0.7,0.3,0.7,0.7&#xA;&#9;&#9;C334.8,410.7,334.5,411,334.1,411z"/>
	<path class="st3_customer-service-1-33" d="M250,349.6c-0.3-0.5-0.8-0.8-1.3-1c-0.5-0.2-1-0.3-1.6-0.3c-0.6,0-1.2,0.1-1.8,0.4c-0.5,0.2-1,0.6-1.4,1&#xA;&#9;&#9;c-0.4,0.4-0.7,0.9-0.9,1.4c-0.2,0.6-0.3,1.2-0.3,1.8c0,0.6,0.1,1.3,0.3,1.9c0.2,0.5,0.5,1,0.9,1.5c0.4,0.4,0.8,0.7,1.3,0.9&#xA;&#9;&#9;c0.5,0.2,1.1,0.4,1.7,0.3c0.6,0,1.2-0.1,1.8-0.4c0.5-0.2,0.9-0.6,1.2-1l1.8,1.2c-0.5,0.7-1.2,1.2-2,1.6c-0.9,0.4-1.8,0.6-2.8,0.6&#xA;&#9;&#9;c-0.9,0-1.8-0.2-2.7-0.5c-0.8-0.3-1.5-0.8-2.1-1.4c-0.6-0.6-1.1-1.3-1.4-2.1c-0.3-0.8-0.5-1.8-0.5-2.7c0-0.9,0.2-1.8,0.5-2.7&#xA;&#9;&#9;c0.3-0.8,0.8-1.5,1.4-2c0.6-0.6,1.3-1,2.1-1.3c0.9-0.3,1.8-0.5,2.7-0.5c0.4,0,0.8,0,1.2,0.1c0.4,0.1,0.8,0.2,1.2,0.4&#xA;&#9;&#9;c0.4,0.2,0.8,0.4,1.1,0.6c0.3,0.2,0.6,0.5,0.9,0.9L250,349.6z"/>
	<path class="st3_customer-service-1-33" d="M259.6,349.3c-0.3-0.3-0.6-0.6-1-0.8c-0.4-0.2-0.8-0.3-1.3-0.3c-0.3,0-0.5,0-0.8,0.1c-0.2,0.1-0.5,0.2-0.7,0.3&#xA;&#9;&#9;c-0.2,0.1-0.4,0.3-0.5,0.5c-0.1,0.2-0.2,0.5-0.2,0.8c0,0.3,0.1,0.5,0.2,0.7c0.1,0.2,0.3,0.4,0.5,0.5c0.2,0.2,0.5,0.3,0.8,0.4&#xA;&#9;&#9;c0.3,0.1,0.6,0.2,1,0.3s0.8,0.3,1.2,0.4c0.4,0.2,0.8,0.4,1.2,0.6c0.4,0.3,0.7,0.6,0.9,1c0.2,0.5,0.4,1,0.3,1.5&#xA;&#9;&#9;c0,0.6-0.1,1.2-0.4,1.8c-0.2,0.5-0.6,0.9-1,1.2c-0.4,0.3-0.9,0.6-1.4,0.7c-0.6,0.2-1.2,0.2-1.7,0.2c-0.8,0-1.6-0.2-2.4-0.5&#xA;&#9;&#9;c-0.7-0.3-1.4-0.7-1.9-1.3l1.6-1.5c0.3,0.4,0.7,0.8,1.2,1c0.5,0.2,1,0.4,1.5,0.4c0.3,0,0.5,0,0.8-0.1c0.3-0.1,0.5-0.2,0.7-0.3&#xA;&#9;&#9;c0.2-0.1,0.4-0.3,0.5-0.6c0.1-0.3,0.2-0.6,0.2-0.9c0-0.3-0.1-0.6-0.2-0.8c-0.2-0.2-0.4-0.4-0.6-0.6c-0.3-0.2-0.6-0.3-0.9-0.4&#xA;&#9;&#9;l-1.1-0.4c-0.4-0.1-0.8-0.3-1.1-0.4c-0.4-0.2-0.7-0.4-1-0.6c-0.3-0.3-0.6-0.6-0.7-1c-0.2-0.5-0.3-1-0.3-1.5c0-0.6,0.1-1.1,0.4-1.6&#xA;&#9;&#9;c0.2-0.4,0.6-0.8,1-1.1c0.4-0.3,0.9-0.5,1.5-0.7c0.5-0.1,1.1-0.2,1.7-0.2c0.7,0,1.3,0.1,1.9,0.3c0.6,0.2,1.2,0.6,1.7,1L259.6,349.3&#xA;&#9;&#9;z"/>
	<path class="st3_customer-service-1-33" d="M250.8,368.9c-8.8,0-16-7.2-16-16c0-8.8,7.2-16,16-16s16,7.2,16,16S259.6,368.9,250.8,368.9L250.8,368.9z&#xA;&#9;&#9; M250.8,338.3c-8.1,0-14.6,6.5-14.6,14.6c0,8.1,6.5,14.6,14.6,14.6c8.1,0,14.6-6.5,14.6-14.6C265.3,344.8,258.8,338.3,250.8,338.3&#xA;&#9;&#9;L250.8,338.3z"/>
</g>
</svg>